# MagicaVoxel @ Ephtracy

# group
o 

# material
mtllib muban-0.mtl
usemtl palette

# normals
vn -1 0 0
vn 1 0 0
vn 0 0 1
vn 0 0 -1
vn 0 -1 0
vn 0 1 0

# texcoords
vt 0.0292969 0.5
vt 0.0605469 0.5
vt 0.111328 0.5
vt 0.119141 0.5

# verts
v -0.6 -0.3 0.3
v -0.6 -0.3 -0.1
v -0.6 -0.2 0.4
v -0.6 -0.2 0.3
v -0.6 -0.2 -0.1
v -0.6 -0.2 -0.2
v -0.6 -0.1 0.4
v -0.6 -0.1 0.3
v -0.6 -0.1 0.2
v -0.6 -0.1 -0.1
v -0.6 -0.1 -0.2
v -0.6 0 0.3
v -0.6 0 0.2
v -0.6 0 -0.1
v 0.6 -0.3 0.3
v 0.6 -0.3 -0.1
v 0.6 -0.2 0.4
v 0.6 -0.2 0.3
v 0.6 -0.2 -0.1
v 0.6 -0.2 -0.2
v 0.6 -0.1 0.4
v 0.6 -0.1 0.3
v 0.6 -0.1 0.2
v 0.6 -0.1 0.1
v 0.6 -0.1 0
v 0.6 -0.1 -0.1
v 0.6 -0.1 -0.2
v 0.6 0 0.3
v 0.6 0 0.2
v 0.6 0 0.1
v 0.6 0 0
v 0.6 0 -0.1
v -0.6 -0.2 0.4
v -0.6 -0.1 0.4
v -0.3 -0.2 0.4
v -0.3 -0.1 0.4
v 0.2 -0.2 0.4
v 0.2 -0.1 0.4
v 0.5 -0.2 0.4
v 0.5 -0.1 0.4
v 0.6 -0.2 0.4
v 0.6 -0.1 0.4
v -0.6 -0.3 0.3
v -0.6 -0.2 0.3
v -0.6 -0.1 0.3
v -0.6 0 0.3
v -0.5 -0.1 0.3
v -0.5 0 0.3
v -0.3 -0.2 0.3
v -0.3 -0.1 0.3
v 0.2 -0.2 0.3
v 0.2 -0.1 0.3
v 0.5 -0.2 0.3
v 0.5 -0.1 0.3
v 0.6 -0.3 0.3
v 0.6 -0.2 0.3
v 0.6 -0.1 0.3
v 0.6 0 0.3
v -0.6 -0.3 -0.1
v -0.6 -0.2 -0.1
v -0.6 -0.1 -0.1
v -0.6 0 -0.1
v -0.4 -0.2 -0.1
v -0.4 -0.1 -0.1
v -0.4 0 -0.1
v -0.2 -0.2 -0.1
v -0.2 -0.1 -0.1
v -0.1 -0.1 -0.1
v -0.1 0 -0.1
v -5.96046e-08 -0.1 -0.1
v -5.96046e-08 0 -0.1
v 0.2 -0.2 -0.1
v 0.2 -0.1 -0.1
v 0.5 -0.2 -0.1
v 0.5 -0.1 -0.1
v 0.6 -0.3 -0.1
v 0.6 -0.2 -0.1
v 0.6 -0.1 -0.1
v 0.6 0 -0.1
v -0.6 -0.2 -0.2
v -0.6 -0.1 -0.2
v -0.4 -0.2 -0.2
v -0.4 -0.1 -0.2
v -0.2 -0.2 -0.2
v -0.2 -0.1 -0.2
v 0.2 -0.2 -0.2
v 0.2 -0.1 -0.2
v 0.5 -0.2 -0.2
v 0.5 -0.1 -0.2
v 0.6 -0.2 -0.2
v 0.6 -0.1 -0.2
v -0.6 -0.3 0.3
v 0.6 -0.3 0.3
v -0.6 -0.3 -0.1
v 0.6 -0.3 -0.1
v -0.6 -0.2 0.4
v -0.3 -0.2 0.4
v 0.2 -0.2 0.4
v 0.5 -0.2 0.4
v 0.6 -0.2 0.4
v -0.6 -0.2 0.3
v -0.3 -0.2 0.3
v 0.2 -0.2 0.3
v 0.5 -0.2 0.3
v 0.6 -0.2 0.3
v -0.6 -0.2 -0.1
v -0.4 -0.2 -0.1
v -0.2 -0.2 -0.1
v 0.2 -0.2 -0.1
v 0.5 -0.2 -0.1
v 0.6 -0.2 -0.1
v -0.6 -0.2 -0.2
v -0.4 -0.2 -0.2
v -0.2 -0.2 -0.2
v 0.2 -0.2 -0.2
v 0.5 -0.2 -0.2
v 0.6 -0.2 -0.2
v -0.6 -0.1 0.4
v -0.3 -0.1 0.4
v 0.2 -0.1 0.4
v 0.5 -0.1 0.4
v 0.6 -0.1 0.4
v -0.6 -0.1 0.3
v -0.5 -0.1 0.3
v -0.3 -0.1 0.3
v 0.2 -0.1 0.3
v 0.5 -0.1 0.3
v 0.6 -0.1 0.3
v -0.6 -0.1 -0.1
v -0.4 -0.1 -0.1
v -0.2 -0.1 -0.1
v -0.1 -0.1 -0.1
v -5.96046e-08 -0.1 -0.1
v 0.2 -0.1 -0.1
v 0.5 -0.1 -0.1
v 0.6 -0.1 -0.1
v -0.6 -0.1 -0.2
v -0.4 -0.1 -0.2
v -0.2 -0.1 -0.2
v 0.2 -0.1 -0.2
v 0.5 -0.1 -0.2
v 0.6 -0.1 -0.2
v -0.6 0 0.3
v -0.5 0 0.3
v 0.6 0 0.3
v -0.6 0 0.2
v -0.5 0 0.2
v -0.2 0 0.2
v 0.1 0 0.2
v 0.4 0 0.2
v 0.5 0 0.2
v 0.6 0 0.2
v -0.5 0 0.1
v -0.2 0 0.1
v 0.1 0 0.1
v 0.4 0 0.1
v 0.5 0 0.1
v 0.6 0 0.1
v -0.4 0 0
v -0.1 0 0
v -5.96046e-08 0 0
v 0.6 0 0
v -0.6 0 -0.1
v -0.4 0 -0.1
v -0.1 0 -0.1
v -5.96046e-08 0 -0.1
v 0.6 0 -0.1

# faces
f 4/1/1 2/1/1 1/1/1
f 5/1/1 2/1/1 4/1/1
f 7/1/1 4/1/1 3/1/1
f 8/2/1 5/2/1 4/2/1
f 8/1/1 4/1/1 7/1/1
f 9/2/1 5/2/1 8/2/1
f 10/4/1 6/4/1 5/4/1
f 10/2/1 5/2/1 9/2/1
f 11/4/1 6/4/1 10/4/1
f 12/3/1 9/3/1 8/3/1
f 13/1/1 10/1/1 9/1/1
f 13/3/1 9/3/1 12/3/1
f 14/1/1 10/1/1 13/1/1
f 15/1/2 16/1/2 18/1/2
f 18/1/2 16/1/2 19/1/2
f 17/4/2 18/4/2 21/4/2
f 18/2/2 19/2/2 22/2/2
f 21/4/2 18/4/2 22/4/2
f 22/2/2 19/2/2 23/2/2
f 23/2/2 19/2/2 24/2/2
f 24/2/2 19/2/2 25/2/2
f 19/4/2 20/4/2 26/4/2
f 25/2/2 19/2/2 26/2/2
f 26/4/2 20/4/2 27/4/2
f 22/1/2 23/1/2 28/1/2
f 23/3/2 24/3/2 29/3/2
f 28/1/2 23/1/2 29/1/2
f 24/1/2 25/1/2 30/1/2
f 29/3/2 24/3/2 30/3/2
f 25/3/2 26/3/2 31/3/2
f 30/1/2 25/1/2 31/1/2
f 31/3/2 26/3/2 32/3/2
f 35/1/3 34/1/3 33/1/3
f 36/1/3 34/1/3 35/1/3
f 37/4/3 36/4/3 35/4/3
f 38/4/3 36/4/3 37/4/3
f 39/1/3 38/1/3 37/1/3
f 40/1/3 38/1/3 39/1/3
f 41/4/3 40/4/3 39/4/3
f 42/4/3 40/4/3 41/4/3
f 47/3/3 46/3/3 45/3/3
f 48/3/3 46/3/3 47/3/3
f 49/1/3 44/1/3 43/1/3
f 50/1/3 48/1/3 47/1/3
f 51/1/3 49/1/3 43/1/3
f 52/1/3 48/1/3 50/1/3
f 53/1/3 51/1/3 43/1/3
f 54/1/3 48/1/3 52/1/3
f 55/1/3 53/1/3 43/1/3
f 56/1/3 53/1/3 55/1/3
f 57/1/3 48/1/3 54/1/3
f 58/1/3 48/1/3 57/1/3
f 59/1/4 60/1/4 63/1/4
f 61/1/4 62/1/4 64/1/4
f 64/1/4 62/1/4 65/1/4
f 59/1/4 63/1/4 66/1/4
f 64/3/4 65/3/4 67/3/4
f 67/3/4 65/3/4 68/3/4
f 68/3/4 65/3/4 69/3/4
f 68/1/4 69/1/4 70/1/4
f 70/1/4 69/1/4 71/1/4
f 59/1/4 66/1/4 72/1/4
f 70/3/4 71/3/4 73/3/4
f 59/1/4 72/1/4 74/1/4
f 73/3/4 71/3/4 75/3/4
f 59/1/4 74/1/4 76/1/4
f 76/1/4 74/1/4 77/1/4
f 75/3/4 71/3/4 78/3/4
f 78/3/4 71/3/4 79/3/4
f 80/4/4 81/4/4 82/4/4
f 82/4/4 81/4/4 83/4/4
f 82/1/4 83/1/4 84/1/4
f 84/1/4 83/1/4 85/1/4
f 84/4/4 85/4/4 86/4/4
f 86/4/4 85/4/4 87/4/4
f 86/1/4 87/1/4 88/1/4
f 88/1/4 87/1/4 89/1/4
f 88/4/4 89/4/4 90/4/4
f 90/4/4 89/4/4 91/4/4
f 94/1/5 93/1/5 92/1/5
f 95/1/5 93/1/5 94/1/5
f 101/1/5 97/1/5 96/1/5
f 102/4/5 98/4/5 97/4/5
f 102/1/5 97/1/5 101/1/5
f 103/1/5 99/1/5 98/1/5
f 103/4/5 98/4/5 102/4/5
f 104/4/5 100/4/5 99/4/5
f 104/1/5 99/1/5 103/1/5
f 105/4/5 100/4/5 104/4/5
f 112/4/5 107/4/5 106/4/5
f 113/1/5 108/1/5 107/1/5
f 113/4/5 107/4/5 112/4/5
f 114/4/5 109/4/5 108/4/5
f 114/1/5 108/1/5 113/1/5
f 115/1/5 110/1/5 109/1/5
f 115/4/5 109/4/5 114/4/5
f 116/4/5 111/4/5 110/4/5
f 116/1/5 110/1/5 115/1/5
f 117/4/5 111/4/5 116/4/5
f 118/1/6 119/1/6 123/1/6
f 123/1/6 119/1/6 124/1/6
f 119/4/6 120/4/6 125/4/6
f 124/1/6 119/1/6 125/1/6
f 120/1/6 121/1/6 126/1/6
f 125/4/6 120/4/6 126/4/6
f 121/4/6 122/4/6 127/4/6
f 126/1/6 121/1/6 127/1/6
f 127/4/6 122/4/6 128/4/6
f 129/4/6 130/4/6 137/4/6
f 130/1/6 131/1/6 138/1/6
f 137/4/6 130/4/6 138/4/6
f 131/4/6 132/4/6 139/4/6
f 138/1/6 131/1/6 139/1/6
f 132/4/6 133/4/6 139/4/6
f 133/4/6 134/4/6 139/4/6
f 134/1/6 135/1/6 140/1/6
f 139/4/6 134/4/6 140/4/6
f 135/4/6 136/4/6 141/4/6
f 140/1/6 135/1/6 141/1/6
f 141/4/6 136/4/6 142/4/6
f 143/3/6 144/3/6 146/3/6
f 144/1/6 145/1/6 147/1/6
f 146/3/6 144/3/6 147/3/6
f 147/1/6 145/1/6 148/1/6
f 148/1/6 145/1/6 149/1/6
f 149/1/6 145/1/6 150/1/6
f 150/1/6 145/1/6 151/1/6
f 151/1/6 145/1/6 152/1/6
f 146/1/6 147/1/6 153/1/6
f 147/3/6 148/3/6 153/3/6
f 148/1/6 149/1/6 154/1/6
f 153/3/6 148/3/6 154/3/6
f 149/3/6 150/3/6 155/3/6
f 154/1/6 149/1/6 155/1/6
f 150/1/6 151/1/6 156/1/6
f 155/3/6 150/3/6 156/3/6
f 151/3/6 152/3/6 157/3/6
f 156/1/6 151/1/6 157/1/6
f 157/3/6 152/3/6 158/3/6
f 155/1/6 156/1/6 159/1/6
f 153/1/6 154/1/6 159/1/6
f 157/1/6 158/1/6 159/1/6
f 156/1/6 157/1/6 159/1/6
f 154/1/6 155/1/6 159/1/6
f 159/1/6 158/1/6 160/1/6
f 160/1/6 158/1/6 161/1/6
f 161/1/6 158/1/6 162/1/6
f 146/1/6 153/1/6 163/1/6
f 153/1/6 159/1/6 163/1/6
f 159/3/6 160/3/6 164/3/6
f 163/1/6 159/1/6 164/1/6
f 160/1/6 161/1/6 165/1/6
f 164/3/6 160/3/6 165/3/6
f 161/3/6 162/3/6 166/3/6
f 165/1/6 161/1/6 166/1/6
f 166/3/6 162/3/6 167/3/6
