# MagicaVoxel @ Ephtracy

# group
o 

# material
mtllib cubeland1-42.mtl
usemtl palette

# normals
vn -1 0 0
vn 1 0 0
vn 0 0 1
vn 0 0 -1
vn 0 -1 0
vn 0 1 0

# texcoords
vt 0.0136719 0.5
vt 0.0175781 0.5
vt 0.0214844 0.5
vt 0.0253906 0.5
vt 0.0292969 0.5

# verts
v -0.4 0.3 0
v -0.4 0.3 -0.1
v -0.4 0.4 0
v -0.4 0.4 -0.1
v -0.3 0.4 0
v -0.3 0.4 -0.1
v -0.3 0.5 0
v -0.3 0.5 -0.1
v -0.2 0.5 0
v -0.2 0.5 -0.1
v -0.2 0.6 0
v -0.2 0.6 -0.1
v 0 -0.6 0
v 0 -0.6 -0.1
v 0 -0.3 0
v 0 -0.3 -0.1
v 0 0.4 0
v 0 0.4 -0.1
v 0 0.6 0
v 0 0.6 -0.1
v 0 0.7 0
v 0 0.7 -0.1
v 0.4 0.3 0
v 0.4 0.3 -0.1
v 0.4 0.4 0
v 0.4 0.4 -0.1
v -0.3 0.3 0
v -0.3 0.3 -0.1
v -0.3 0.4 0
v -0.3 0.4 -0.1
v 0.1 -0.6 0
v 0.1 -0.6 -0.1
v 0.1 -0.3 0
v 0.1 -0.3 -0.1
v 0.1 0.4 0
v 0.1 0.4 -0.1
v 0.1 0.6 0
v 0.1 0.6 -0.1
v 0.1 0.7 0
v 0.1 0.7 -0.1
v 0.3 0.5 0
v 0.3 0.5 -0.1
v 0.3 0.6 0
v 0.3 0.6 -0.1
v 0.4 0.4 0
v 0.4 0.4 -0.1
v 0.4 0.5 0
v 0.4 0.5 -0.1
v 0.5 0.3 0
v 0.5 0.3 -0.1
v 0.5 0.4 0
v 0.5 0.4 -0.1
v -0.4 0.3 0
v -0.4 0.4 0
v -0.3 0.3 0
v -0.3 0.4 0
v -0.3 0.5 0
v -0.2 0.4 0
v -0.2 0.5 0
v -0.2 0.6 0
v 0 -0.6 0
v 0 -0.3 0
v 0 0.4 0
v 0 0.5 0
v 0 0.6 0
v 0 0.7 0
v 0.1 -0.6 0
v 0.1 -0.3 0
v 0.1 0.4 0
v 0.1 0.5 0
v 0.1 0.6 0
v 0.1 0.7 0
v 0.3 0.4 0
v 0.3 0.5 0
v 0.3 0.6 0
v 0.4 0.3 0
v 0.4 0.4 0
v 0.4 0.5 0
v 0.5 0.3 0
v 0.5 0.4 0
v -0.4 0.3 -0.1
v -0.4 0.4 -0.1
v -0.3 0.3 -0.1
v -0.3 0.4 -0.1
v -0.3 0.5 -0.1
v -0.2 0.4 -0.1
v -0.2 0.5 -0.1
v -0.2 0.6 -0.1
v 0 -0.6 -0.1
v 0 -0.3 -0.1
v 0 0.4 -0.1
v 0 0.5 -0.1
v 0 0.6 -0.1
v 0 0.7 -0.1
v 0.1 -0.6 -0.1
v 0.1 -0.3 -0.1
v 0.1 0.4 -0.1
v 0.1 0.5 -0.1
v 0.1 0.6 -0.1
v 0.1 0.7 -0.1
v 0.3 0.4 -0.1
v 0.3 0.5 -0.1
v 0.3 0.6 -0.1
v 0.4 0.3 -0.1
v 0.4 0.4 -0.1
v 0.4 0.5 -0.1
v 0.5 0.3 -0.1
v 0.5 0.4 -0.1
v 0 -0.6 0
v 0.1 -0.6 0
v 0 -0.6 -0.1
v 0.1 -0.6 -0.1
v -0.4 0.3 0
v -0.3 0.3 0
v 0.4 0.3 0
v 0.5 0.3 0
v -0.4 0.3 -0.1
v -0.3 0.3 -0.1
v 0.4 0.3 -0.1
v 0.5 0.3 -0.1
v -0.3 0.4 0
v -0.2 0.4 0
v 0 0.4 0
v 0.1 0.4 0
v 0.3 0.4 0
v 0.4 0.4 0
v -0.3 0.4 -0.1
v -0.2 0.4 -0.1
v 0 0.4 -0.1
v 0.1 0.4 -0.1
v 0.3 0.4 -0.1
v 0.4 0.4 -0.1
v -0.4 0.4 0
v -0.3 0.4 0
v 0.4 0.4 0
v 0.5 0.4 0
v -0.4 0.4 -0.1
v -0.3 0.4 -0.1
v 0.4 0.4 -0.1
v 0.5 0.4 -0.1
v -0.3 0.5 0
v -0.2 0.5 0
v 0.3 0.5 0
v 0.4 0.5 0
v -0.3 0.5 -0.1
v -0.2 0.5 -0.1
v 0.3 0.5 -0.1
v 0.4 0.5 -0.1
v -0.2 0.6 0
v 0 0.6 0
v 0.1 0.6 0
v 0.3 0.6 0
v -0.2 0.6 -0.1
v 0 0.6 -0.1
v 0.1 0.6 -0.1
v 0.3 0.6 -0.1
v 0 0.7 0
v 0.1 0.7 0
v 0 0.7 -0.1
v 0.1 0.7 -0.1

# faces
f 3/2/1 2/2/1 1/2/1
f 4/2/1 2/2/1 3/2/1
f 7/2/1 6/2/1 5/2/1
f 8/2/1 6/2/1 7/2/1
f 11/2/1 10/2/1 9/2/1
f 12/2/1 10/2/1 11/2/1
f 15/1/1 14/1/1 13/1/1
f 16/1/1 14/1/1 15/1/1
f 17/5/1 16/5/1 15/5/1
f 18/5/1 16/5/1 17/5/1
f 21/5/1 20/5/1 19/5/1
f 22/5/1 20/5/1 21/5/1
f 25/2/1 24/2/1 23/2/1
f 26/2/1 24/2/1 25/2/1
f 27/2/2 28/2/2 29/2/2
f 29/2/2 28/2/2 30/2/2
f 31/1/2 32/1/2 33/1/2
f 33/1/2 32/1/2 34/1/2
f 33/5/2 34/5/2 35/5/2
f 35/5/2 34/5/2 36/5/2
f 37/5/2 38/5/2 39/5/2
f 39/5/2 38/5/2 40/5/2
f 41/2/2 42/2/2 43/2/2
f 43/2/2 42/2/2 44/2/2
f 45/2/2 46/2/2 47/2/2
f 47/2/2 46/2/2 48/2/2
f 49/2/2 50/2/2 51/2/2
f 51/2/2 50/2/2 52/2/2
f 55/2/3 54/2/3 53/2/3
f 56/2/3 54/2/3 55/2/3
f 58/2/3 57/2/3 56/2/3
f 59/2/3 57/2/3 58/2/3
f 63/3/3 59/3/3 58/3/3
f 64/2/3 60/2/3 59/2/3
f 64/3/3 59/3/3 63/3/3
f 65/2/3 60/2/3 64/2/3
f 67/1/3 62/1/3 61/1/3
f 68/5/3 63/5/3 62/5/3
f 68/1/3 62/1/3 67/1/3
f 69/4/3 64/4/3 63/4/3
f 69/5/3 63/5/3 68/5/3
f 70/3/3 65/3/3 64/3/3
f 70/4/3 64/4/3 69/4/3
f 71/5/3 66/5/3 65/5/3
f 71/3/3 65/3/3 70/3/3
f 72/5/3 66/5/3 71/5/3
f 73/3/3 70/3/3 69/3/3
f 74/2/3 71/2/3 70/2/3
f 74/3/3 70/3/3 73/3/3
f 75/2/3 71/2/3 74/2/3
f 77/2/3 74/2/3 73/2/3
f 78/2/3 74/2/3 77/2/3
f 79/2/3 77/2/3 76/2/3
f 80/2/3 77/2/3 79/2/3
f 81/2/4 82/2/4 83/2/4
f 83/2/4 82/2/4 84/2/4
f 84/2/4 85/2/4 86/2/4
f 86/2/4 85/2/4 87/2/4
f 86/3/4 87/3/4 91/3/4
f 87/2/4 88/2/4 92/2/4
f 91/3/4 87/3/4 92/3/4
f 92/2/4 88/2/4 93/2/4
f 89/1/4 90/1/4 95/1/4
f 90/5/4 91/5/4 96/5/4
f 95/1/4 90/1/4 96/1/4
f 91/4/4 92/4/4 97/4/4
f 96/5/4 91/5/4 97/5/4
f 92/3/4 93/3/4 98/3/4
f 97/4/4 92/4/4 98/4/4
f 93/5/4 94/5/4 99/5/4
f 98/3/4 93/3/4 99/3/4
f 99/5/4 94/5/4 100/5/4
f 97/3/4 98/3/4 101/3/4
f 98/2/4 99/2/4 102/2/4
f 101/3/4 98/3/4 102/3/4
f 102/2/4 99/2/4 103/2/4
f 101/2/4 102/2/4 105/2/4
f 105/2/4 102/2/4 106/2/4
f 104/2/4 105/2/4 107/2/4
f 107/2/4 105/2/4 108/2/4
f 111/1/5 110/1/5 109/1/5
f 112/1/5 110/1/5 111/1/5
f 117/2/5 114/2/5 113/2/5
f 118/2/5 114/2/5 117/2/5
f 119/2/5 116/2/5 115/2/5
f 120/2/5 116/2/5 119/2/5
f 127/2/5 122/2/5 121/2/5
f 128/3/5 123/3/5 122/3/5
f 128/2/5 122/2/5 127/2/5
f 129/3/5 123/3/5 128/3/5
f 130/3/5 125/3/5 124/3/5
f 131/2/5 126/2/5 125/2/5
f 131/3/5 125/3/5 130/3/5
f 132/2/5 126/2/5 131/2/5
f 133/2/6 134/2/6 137/2/6
f 137/2/6 134/2/6 138/2/6
f 135/2/6 136/2/6 139/2/6
f 139/2/6 136/2/6 140/2/6
f 141/2/6 142/2/6 145/2/6
f 145/2/6 142/2/6 146/2/6
f 143/2/6 144/2/6 147/2/6
f 147/2/6 144/2/6 148/2/6
f 149/2/6 150/2/6 153/2/6
f 153/2/6 150/2/6 154/2/6
f 151/2/6 152/2/6 155/2/6
f 155/2/6 152/2/6 156/2/6
f 157/5/6 158/5/6 159/5/6
f 159/5/6 158/5/6 160/5/6
