# MagicaVoxel @ Ephtracy

# group
o 

# material
mtllib cubeland1-4.mtl
usemtl palette

# normals
vn -1 0 0
vn 1 0 0
vn 0 0 1
vn 0 0 -1
vn 0 -1 0
vn 0 1 0

# texcoords
vt 0.0214844 0.5
vt 0.0410156 0.5

# verts
v -0.4 -0.2 0.1
v -0.4 -0.2 -0.2
v -0.4 -0.1 0.1
v -0.4 -0.1 -0.2
v -0.3 -0.1 0.1
v -0.3 -0.1 0
v -0.3 -0.1 -0.1
v -0.3 -0.1 -0.2
v -0.3 0 0.1
v -0.3 0 0
v -0.3 0 -0.1
v -0.3 0 -0.2
v -0.2 -0.2 0.3
v -0.2 -0.2 0.2
v -0.2 -0.2 -0.2
v -0.2 -0.2 -0.3
v -0.2 -0.1 0.3
v -0.2 -0.1 0.2
v -0.2 -0.1 0.1
v -0.2 -0.1 -0.2
v -0.2 0 0.2
v -0.2 0 0.1
v -0.2 0 0
v -0.2 0 -0.1
v -0.2 0 -0.2
v -0.2 0 -0.3
v -0.2 0.1 0.1
v -0.2 0.1 -0.2
v -0.2 0.3 0.1
v -0.2 0.3 -0.2
v 0.1 0 0
v 0.1 0 -0.1
v 0.1 0.1 0
v 0.1 0.1 -0.1
v 0.1 0.2 0.1
v 0.1 0.2 0
v 0.1 0.2 -0.1
v 0.1 0.2 -0.2
v 0.1 0.3 0.1
v 0.1 0.3 -0.2
v 0.2 -0.1 0.1
v 0.2 -0.1 0
v 0.2 -0.1 -0.1
v 0.2 -0.1 -0.2
v 0.2 0 0.1
v 0.2 0 0
v 0.2 0 -0.1
v 0.2 0 -0.2
v 0.3 -0.2 0.1
v 0.3 -0.2 -0.2
v 0.3 -0.1 0.1
v 0.3 -0.1 0
v 0.3 -0.1 -0.1
v 0.3 -0.1 -0.2
v -0.3 -0.2 0.1
v -0.3 -0.2 -0.2
v -0.3 -0.1 0.1
v -0.3 -0.1 0
v -0.3 -0.1 -0.1
v -0.3 -0.1 -0.2
v -0.2 -0.1 0.1
v -0.2 -0.1 0
v -0.2 -0.1 -0.1
v -0.2 -0.1 -0.2
v -0.2 0 0.1
v -0.2 0 0
v -0.2 0 -0.1
v -0.2 0 -0.2
v -0.1 0 0
v -0.1 0 -0.1
v -0.1 0.1 0
v -0.1 0.1 -0.1
v -0.1 0.2 0.1
v -0.1 0.2 0
v -0.1 0.2 -0.1
v -0.1 0.2 -0.2
v -0.1 0.3 0.1
v -0.1 0.3 -0.2
v 0.2 -0.2 0.3
v 0.2 -0.2 0.2
v 0.2 -0.2 -0.2
v 0.2 -0.2 -0.3
v 0.2 -0.1 0.3
v 0.2 -0.1 0.2
v 0.2 -0.1 0.1
v 0.2 -0.1 -0.2
v 0.2 0 0.2
v 0.2 0 0.1
v 0.2 0 0
v 0.2 0 -0.1
v 0.2 0 -0.2
v 0.2 0 -0.3
v 0.2 0.1 0.1
v 0.2 0.1 -0.2
v 0.2 0.3 0.1
v 0.2 0.3 -0.2
v 0.3 -0.1 0.1
v 0.3 -0.1 0
v 0.3 -0.1 -0.1
v 0.3 -0.1 -0.2
v 0.3 0 0.1
v 0.3 0 0
v 0.3 0 -0.1
v 0.3 0 -0.2
v 0.4 -0.2 0.1
v 0.4 -0.2 -0.2
v 0.4 -0.1 0.1
v 0.4 -0.1 -0.2
v -0.2 -0.2 0.3
v -0.2 -0.1 0.3
v 0.2 -0.2 0.3
v 0.2 -0.1 0.3
v -0.2 -0.1 0.2
v -0.2 0 0.2
v -0.1 -0.1 0.2
v -0.1 0 0.2
v 0.1 -0.1 0.2
v 0.1 0 0.2
v 0.2 -0.1 0.2
v 0.2 0 0.2
v -0.4 -0.2 0.1
v -0.4 -0.1 0.1
v -0.3 -0.2 0.1
v -0.3 -0.1 0.1
v -0.3 0 0.1
v -0.2 -0.1 0.1
v -0.2 0 0.1
v -0.2 0.1 0.1
v -0.2 0.3 0.1
v -0.1 0 0.1
v -0.1 0.2 0.1
v -0.1 0.3 0.1
v 0.1 0 0.1
v 0.1 0.2 0.1
v 0.1 0.3 0.1
v 0.2 -0.1 0.1
v 0.2 0 0.1
v 0.2 0.1 0.1
v 0.2 0.3 0.1
v 0.3 -0.2 0.1
v 0.3 -0.1 0.1
v 0.3 0 0.1
v 0.4 -0.2 0.1
v 0.4 -0.1 0.1
v -0.1 0 -0.1
v -0.1 0.1 -0.1
v -0.1 0.2 -0.1
v 0.1 0 -0.1
v 0.1 0.1 -0.1
v 0.1 0.2 -0.1
v -0.2 -0.2 -0.2
v -0.2 -0.1 -0.2
v -0.2 0 -0.2
v -0.1 -0.1 -0.2
v -0.1 0 -0.2
v 0.1 -0.1 -0.2
v 0.1 0 -0.2
v 0.2 -0.2 -0.2
v 0.2 -0.1 -0.2
v 0.2 0 -0.2
v -0.2 -0.2 0.2
v -0.2 -0.1 0.2
v -0.1 -0.1 0.2
v 0.1 -0.1 0.2
v 0.2 -0.2 0.2
v 0.2 -0.1 0.2
v -0.2 -0.1 0.1
v -0.2 0 0.1
v -0.1 -0.1 0.1
v -0.1 0 0.1
v 0.1 -0.1 0.1
v 0.1 0 0.1
v 0.2 -0.1 0.1
v 0.2 0 0.1
v -0.1 0 0
v -0.1 0.1 0
v -0.1 0.2 0
v 0.1 0 0
v 0.1 0.1 0
v 0.1 0.2 0
v -0.4 -0.2 -0.2
v -0.4 -0.1 -0.2
v -0.3 -0.2 -0.2
v -0.3 -0.1 -0.2
v -0.3 0 -0.2
v -0.2 -0.1 -0.2
v -0.2 0 -0.2
v -0.2 0.1 -0.2
v -0.2 0.3 -0.2
v -0.1 0 -0.2
v -0.1 0.2 -0.2
v -0.1 0.3 -0.2
v 0.1 0 -0.2
v 0.1 0.2 -0.2
v 0.1 0.3 -0.2
v 0.2 -0.1 -0.2
v 0.2 0 -0.2
v 0.2 0.1 -0.2
v 0.2 0.3 -0.2
v 0.3 -0.2 -0.2
v 0.3 -0.1 -0.2
v 0.3 0 -0.2
v 0.4 -0.2 -0.2
v 0.4 -0.1 -0.2
v -0.2 -0.2 -0.3
v -0.2 0 -0.3
v -0.1 -0.1 -0.3
v -0.1 0 -0.3
v 0.1 -0.1 -0.3
v 0.1 0 -0.3
v 0.2 -0.2 -0.3
v 0.2 0 -0.3
v -0.2 -0.2 0.3
v 0.2 -0.2 0.3
v -0.2 -0.2 0.2
v 0.2 -0.2 0.2
v -0.4 -0.2 0.1
v -0.3 -0.2 0.1
v 0.3 -0.2 0.1
v 0.4 -0.2 0.1
v -0.4 -0.2 -0.2
v -0.3 -0.2 -0.2
v -0.2 -0.2 -0.2
v 0.2 -0.2 -0.2
v 0.3 -0.2 -0.2
v 0.4 -0.2 -0.2
v -0.2 -0.2 -0.3
v 0.2 -0.2 -0.3
v -0.2 -0.1 0.2
v -0.1 -0.1 0.2
v 0.1 -0.1 0.2
v 0.2 -0.1 0.2
v -0.3 -0.1 0.1
v -0.2 -0.1 0.1
v -0.1 -0.1 0.1
v 0.1 -0.1 0.1
v 0.2 -0.1 0.1
v 0.3 -0.1 0.1
v -0.3 -0.1 0
v -0.2 -0.1 0
v 0.2 -0.1 0
v 0.3 -0.1 0
v -0.3 -0.1 -0.1
v -0.2 -0.1 -0.1
v 0.2 -0.1 -0.1
v 0.3 -0.1 -0.1
v -0.3 -0.1 -0.2
v -0.2 -0.1 -0.2
v 0.2 -0.1 -0.2
v 0.3 -0.1 -0.2
v -0.2 0 0.1
v -0.1 0 0.1
v 0.1 0 0.1
v 0.2 0 0.1
v -0.2 0 0
v -0.1 0 0
v 0.1 0 0
v 0.2 0 0
v -0.2 0 -0.1
v -0.1 0 -0.1
v 0.1 0 -0.1
v 0.2 0 -0.1
v -0.2 0 -0.2
v -0.1 0 -0.2
v 0.1 0 -0.2
v 0.2 0 -0.2
v -0.2 -0.1 0.3
v 0.2 -0.1 0.3
v -0.2 -0.1 0.2
v -0.1 -0.1 0.2
v 0.1 -0.1 0.2
v 0.2 -0.1 0.2
v -0.4 -0.1 0.1
v -0.3 -0.1 0.1
v 0.3 -0.1 0.1
v 0.4 -0.1 0.1
v -0.3 -0.1 0
v 0.3 -0.1 0
v -0.3 -0.1 -0.1
v 0.3 -0.1 -0.1
v -0.4 -0.1 -0.2
v -0.3 -0.1 -0.2
v 0.3 -0.1 -0.2
v 0.4 -0.1 -0.2
v -0.2 0 0.2
v -0.1 0 0.2
v 0.1 0 0.2
v 0.2 0 0.2
v -0.3 0 0.1
v -0.2 0 0.1
v -0.1 0 0.1
v 0.1 0 0.1
v 0.2 0 0.1
v 0.3 0 0.1
v -0.3 0 0
v -0.2 0 0
v 0.2 0 0
v 0.3 0 0
v -0.3 0 -0.1
v -0.2 0 -0.1
v 0.2 0 -0.1
v 0.3 0 -0.1
v -0.3 0 -0.2
v -0.2 0 -0.2
v -0.1 0 -0.2
v 0.1 0 -0.2
v 0.2 0 -0.2
v 0.3 0 -0.2
v -0.2 0 -0.3
v -0.1 0 -0.3
v 0.1 0 -0.3
v 0.2 0 -0.3
v -0.1 0.2 0.1
v 0.1 0.2 0.1
v -0.1 0.2 0
v 0.1 0.2 0
v -0.1 0.2 -0.1
v 0.1 0.2 -0.1
v -0.1 0.2 -0.2
v 0.1 0.2 -0.2
v -0.2 0.3 0.1
v -0.1 0.3 0.1
v 0.1 0.3 0.1
v 0.2 0.3 0.1
v -0.2 0.3 -0.2
v -0.1 0.3 -0.2
v 0.1 0.3 -0.2
v 0.2 0.3 -0.2

# faces
f 3/2/1 2/2/1 1/2/1
f 4/2/1 2/2/1 3/2/1
f 9/2/1 6/2/1 5/2/1
f 10/1/1 7/1/1 6/1/1
f 10/2/1 6/2/1 9/2/1
f 11/2/1 8/2/1 7/2/1
f 11/1/1 7/1/1 10/1/1
f 12/2/1 8/2/1 11/2/1
f 17/2/1 14/2/1 13/2/1
f 18/2/1 14/2/1 17/2/1
f 20/2/1 16/2/1 15/2/1
f 21/2/1 19/2/1 18/2/1
f 22/2/1 19/2/1 21/2/1
f 25/2/1 16/2/1 20/2/1
f 26/2/1 16/2/1 25/2/1
f 27/2/1 24/2/1 23/2/1
f 27/2/1 25/2/1 24/2/1
f 27/2/1 23/2/1 22/2/1
f 28/2/1 25/2/1 27/2/1
f 29/1/1 28/1/1 27/1/1
f 30/1/1 28/1/1 29/1/1
f 33/2/1 32/2/1 31/2/1
f 34/2/1 32/2/1 33/2/1
f 36/1/1 34/1/1 33/1/1
f 37/1/1 34/1/1 36/1/1
f 39/1/1 37/1/1 36/1/1
f 39/1/1 38/1/1 37/1/1
f 39/1/1 36/1/1 35/1/1
f 40/1/1 38/1/1 39/1/1
f 45/2/1 42/2/1 41/2/1
f 46/1/1 43/1/1 42/1/1
f 46/2/1 42/2/1 45/2/1
f 47/2/1 44/2/1 43/2/1
f 47/1/1 43/1/1 46/1/1
f 48/2/1 44/2/1 47/2/1
f 51/2/1 50/2/1 49/2/1
f 52/2/1 50/2/1 51/2/1
f 53/2/1 50/2/1 52/2/1
f 54/2/1 50/2/1 53/2/1
f 55/2/2 56/2/2 57/2/2
f 57/2/2 56/2/2 58/2/2
f 58/2/2 56/2/2 59/2/2
f 59/2/2 56/2/2 60/2/2
f 61/2/2 62/2/2 65/2/2
f 62/1/2 63/1/2 66/1/2
f 65/2/2 62/2/2 66/2/2
f 63/2/2 64/2/2 67/2/2
f 66/1/2 63/1/2 67/1/2
f 67/2/2 64/2/2 68/2/2
f 69/2/2 70/2/2 71/2/2
f 71/2/2 70/2/2 72/2/2
f 71/1/2 72/1/2 74/1/2
f 74/1/2 72/1/2 75/1/2
f 74/1/2 75/1/2 77/1/2
f 75/1/2 76/1/2 77/1/2
f 73/1/2 74/1/2 77/1/2
f 77/1/2 76/1/2 78/1/2
f 79/2/2 80/2/2 83/2/2
f 83/2/2 80/2/2 84/2/2
f 81/2/2 82/2/2 86/2/2
f 84/2/2 85/2/2 87/2/2
f 87/2/2 85/2/2 88/2/2
f 86/2/2 82/2/2 91/2/2
f 91/2/2 82/2/2 92/2/2
f 89/2/2 90/2/2 93/2/2
f 90/2/2 91/2/2 93/2/2
f 88/2/2 89/2/2 93/2/2
f 93/2/2 91/2/2 94/2/2
f 93/1/2 94/1/2 95/1/2
f 95/1/2 94/1/2 96/1/2
f 97/2/2 98/2/2 101/2/2
f 98/1/2 99/1/2 102/1/2
f 101/2/2 98/2/2 102/2/2
f 99/2/2 100/2/2 103/2/2
f 102/1/2 99/1/2 103/1/2
f 103/2/2 100/2/2 104/2/2
f 105/2/2 106/2/2 107/2/2
f 107/2/2 106/2/2 108/2/2
f 111/2/3 110/2/3 109/2/3
f 112/2/3 110/2/3 111/2/3
f 115/2/3 114/2/3 113/2/3
f 116/2/3 114/2/3 115/2/3
f 117/1/3 116/1/3 115/1/3
f 118/1/3 116/1/3 117/1/3
f 119/2/3 118/2/3 117/2/3
f 120/2/3 118/2/3 119/2/3
f 123/2/3 122/2/3 121/2/3
f 124/2/3 122/2/3 123/2/3
f 126/2/3 125/2/3 124/2/3
f 127/2/3 125/2/3 126/2/3
f 130/2/3 128/2/3 127/2/3
f 131/1/3 129/1/3 128/1/3
f 132/1/3 129/1/3 131/1/3
f 133/2/3 128/2/3 130/2/3
f 134/1/3 131/1/3 128/1/3
f 137/2/3 128/2/3 133/2/3
f 138/1/3 135/1/3 134/1/3
f 138/1/3 134/1/3 128/1/3
f 138/2/3 128/2/3 137/2/3
f 139/1/3 135/1/3 138/1/3
f 141/2/3 137/2/3 136/2/3
f 142/2/3 137/2/3 141/2/3
f 143/2/3 141/2/3 140/2/3
f 144/2/3 141/2/3 143/2/3
f 148/2/3 146/2/3 145/2/3
f 149/1/3 147/1/3 146/1/3
f 149/2/3 146/2/3 148/2/3
f 150/1/3 147/1/3 149/1/3
f 154/2/3 152/2/3 151/2/3
f 154/2/3 153/2/3 152/2/3
f 155/2/3 153/2/3 154/2/3
f 156/2/3 154/2/3 151/2/3
f 156/1/3 155/1/3 154/1/3
f 157/1/3 155/1/3 156/1/3
f 158/2/3 156/2/3 151/2/3
f 158/2/3 157/2/3 156/2/3
f 159/2/3 157/2/3 158/2/3
f 160/2/3 157/2/3 159/2/3
f 161/2/4 162/2/4 163/2/4
f 161/2/4 163/2/4 164/2/4
f 161/2/4 164/2/4 165/2/4
f 165/2/4 164/2/4 166/2/4
f 167/2/4 168/2/4 169/2/4
f 169/2/4 168/2/4 170/2/4
f 169/1/4 170/1/4 171/1/4
f 171/1/4 170/1/4 172/1/4
f 171/2/4 172/2/4 173/2/4
f 173/2/4 172/2/4 174/2/4
f 175/2/4 176/2/4 178/2/4
f 176/1/4 177/1/4 179/1/4
f 178/2/4 176/2/4 179/2/4
f 179/1/4 177/1/4 180/1/4
f 181/2/4 182/2/4 183/2/4
f 183/2/4 182/2/4 184/2/4
f 184/2/4 185/2/4 186/2/4
f 186/2/4 185/2/4 187/2/4
f 187/2/4 188/2/4 190/2/4
f 188/1/4 189/1/4 191/1/4
f 191/1/4 189/1/4 192/1/4
f 190/2/4 188/2/4 193/2/4
f 188/1/4 191/1/4 194/1/4
f 193/2/4 188/2/4 197/2/4
f 194/1/4 195/1/4 198/1/4
f 188/1/4 194/1/4 198/1/4
f 197/2/4 188/2/4 198/2/4
f 198/1/4 195/1/4 199/1/4
f 196/2/4 197/2/4 201/2/4
f 201/2/4 197/2/4 202/2/4
f 200/2/4 201/2/4 203/2/4
f 203/2/4 201/2/4 204/2/4
f 205/2/4 206/2/4 207/2/4
f 207/2/4 206/2/4 208/2/4
f 205/2/4 207/2/4 209/2/4
f 207/1/4 208/1/4 209/1/4
f 209/1/4 208/1/4 210/1/4
f 205/2/4 209/2/4 211/2/4
f 209/2/4 210/2/4 211/2/4
f 211/2/4 210/2/4 212/2/4
f 215/2/5 214/2/5 213/2/5
f 216/2/5 214/2/5 215/2/5
f 221/2/5 218/2/5 217/2/5
f 222/2/5 218/2/5 221/2/5
f 225/2/5 220/2/5 219/2/5
f 226/2/5 220/2/5 225/2/5
f 227/2/5 224/2/5 223/2/5
f 228/2/5 224/2/5 227/2/5
f 234/2/5 230/2/5 229/2/5
f 235/1/5 231/1/5 230/1/5
f 235/2/5 230/2/5 234/2/5
f 236/2/5 232/2/5 231/2/5
f 236/1/5 231/1/5 235/1/5
f 237/2/5 232/2/5 236/2/5
f 239/2/5 234/2/5 233/2/5
f 240/2/5 234/2/5 239/2/5
f 241/2/5 238/2/5 237/2/5
f 242/2/5 238/2/5 241/2/5
f 243/1/5 240/1/5 239/1/5
f 244/1/5 240/1/5 243/1/5
f 245/1/5 242/1/5 241/1/5
f 246/1/5 242/1/5 245/1/5
f 247/2/5 244/2/5 243/2/5
f 248/2/5 244/2/5 247/2/5
f 249/2/5 246/2/5 245/2/5
f 250/2/5 246/2/5 249/2/5
f 255/2/5 252/2/5 251/2/5
f 255/2/5 254/2/5 253/2/5
f 255/2/5 253/2/5 252/2/5
f 256/2/5 254/2/5 255/2/5
f 257/2/5 254/2/5 256/2/5
f 258/2/5 254/2/5 257/2/5
f 259/2/5 256/2/5 255/2/5
f 260/2/5 256/2/5 259/2/5
f 261/2/5 258/2/5 257/2/5
f 262/2/5 258/2/5 261/2/5
f 263/2/5 260/2/5 259/2/5
f 263/2/5 261/2/5 260/2/5
f 263/2/5 262/2/5 261/2/5
f 264/2/5 262/2/5 263/2/5
f 265/2/5 262/2/5 264/2/5
f 266/2/5 262/2/5 265/2/5
f 267/2/6 268/2/6 269/2/6
f 269/2/6 268/2/6 270/2/6
f 270/2/6 268/2/6 271/2/6
f 271/2/6 268/2/6 272/2/6
f 273/2/6 274/2/6 277/2/6
f 275/2/6 276/2/6 278/2/6
f 273/2/6 277/2/6 279/2/6
f 278/2/6 276/2/6 280/2/6
f 273/2/6 279/2/6 281/2/6
f 281/2/6 279/2/6 282/2/6
f 280/2/6 276/2/6 283/2/6
f 283/2/6 276/2/6 284/2/6
f 285/2/6 286/2/6 290/2/6
f 286/1/6 287/1/6 291/1/6
f 290/2/6 286/2/6 291/2/6
f 287/2/6 288/2/6 292/2/6
f 291/1/6 287/1/6 292/1/6
f 292/2/6 288/2/6 293/2/6
f 289/2/6 290/2/6 295/2/6
f 295/2/6 290/2/6 296/2/6
f 293/2/6 294/2/6 297/2/6
f 297/2/6 294/2/6 298/2/6
f 295/1/6 296/1/6 299/1/6
f 299/1/6 296/1/6 300/1/6
f 297/1/6 298/1/6 301/1/6
f 301/1/6 298/1/6 302/1/6
f 299/2/6 300/2/6 303/2/6
f 303/2/6 300/2/6 304/2/6
f 301/2/6 302/2/6 307/2/6
f 307/2/6 302/2/6 308/2/6
f 304/2/6 305/2/6 309/2/6
f 305/1/6 306/1/6 310/1/6
f 309/2/6 305/2/6 310/2/6
f 306/2/6 307/2/6 311/2/6
f 310/1/6 306/1/6 311/1/6
f 311/2/6 307/2/6 312/2/6
f 313/1/6 314/1/6 315/1/6
f 315/1/6 314/1/6 316/1/6
f 317/1/6 318/1/6 319/1/6
f 319/1/6 318/1/6 320/1/6
f 321/1/6 322/1/6 325/1/6
f 325/1/6 322/1/6 326/1/6
f 323/1/6 324/1/6 327/1/6
f 327/1/6 324/1/6 328/1/6
