# MagicaVoxel @ Ephtracy

# group
o 

# material
mtllib cubeland1-8.mtl
usemtl palette

# normals
vn -1 0 0
vn 1 0 0
vn 0 0 1
vn 0 0 -1
vn 0 -1 0
vn 0 1 0

# texcoords
vt 0.0917969 0.5
vt 0.0996094 0.5
vt 0.107422 0.5

# verts
v -0.4 -0.1 0.1
v -0.4 -0.1 -0.2
v -0.4 0 0.1
v -0.4 0 -0.2
v -0.3 -0.1 0.2
v -0.3 -0.1 0.1
v -0.3 -0.1 -0.2
v -0.3 -0.1 -0.3
v -0.3 0 0.2
v -0.3 0 0.1
v -0.3 0 -0.2
v -0.3 0 -0.3
v -0.2 -0.1 -0.3
v -0.2 -0.1 -0.4
v -0.2 0 -0.3
v -0.2 0 -0.4
v 0.2 -0.1 -0.3
v 0.2 -0.1 -0.4
v 0.2 0 -0.3
v 0.2 0 -0.4
v 0.1 -0.1 0.2
v 0.1 -0.1 0.1
v 0.1 -0.1 -0.3
v 0.1 -0.1 -0.4
v 0.1 0 0.2
v 0.1 0 0.1
v 0.1 0 -0.3
v 0.1 0 -0.4
v 0.3 -0.1 0.1
v 0.3 -0.1 0
v 0.3 0 0.1
v 0.3 0 0
v 0.4 -0.1 0
v 0.4 -0.1 -0.1
v 0.4 -0.1 -0.3
v 0.4 -0.1 -0.4
v 0.4 0 0
v 0.4 0 -0.1
v 0.4 0 -0.3
v 0.4 0 -0.4
v 0.5 -0.1 -0.1
v 0.5 -0.1 -0.3
v 0.5 0 -0.1
v 0.5 0 -0.3
v -0.3 -0.1 0.2
v -0.3 0 0.2
v -0.2 -0.1 0.2
v -0.2 0 0.2
v 0 -0.1 0.2
v 0 0 0.2
v 0.1 -0.1 0.2
v 0.1 0 0.2
v -0.4 -0.1 0.1
v -0.4 0 0.1
v -0.3 -0.1 0.1
v -0.3 0 0.1
v 0.1 -0.1 0.1
v 0.1 0 0.1
v 0.2 -0.1 0.1
v 0.2 0 0.1
v 0.3 -0.1 0.1
v 0.3 0 0.1
v 0.3 -0.1 0
v 0.3 0 0
v 0.4 -0.1 0
v 0.4 0 0
v 0.4 -0.1 -0.1
v 0.4 0 -0.1
v 0.5 -0.1 -0.1
v 0.5 0 -0.1
v -0.4 -0.1 -0.2
v -0.4 0 -0.2
v -0.3 -0.1 -0.2
v -0.3 0 -0.2
v -0.3 -0.1 -0.3
v -0.3 0 -0.3
v -0.2 -0.1 -0.3
v -0.2 0 -0.3
v 0.1 -0.1 -0.3
v 0.1 0 -0.3
v 0.2 -0.1 -0.3
v 0.2 0 -0.3
v 0.4 -0.1 -0.3
v 0.4 0 -0.3
v 0.5 -0.1 -0.3
v 0.5 0 -0.3
v -0.2 -0.1 -0.4
v -0.2 0 -0.4
v 0.1 -0.1 -0.4
v 0.1 0 -0.4
v 0.2 -0.1 -0.4
v 0.2 0 -0.4
v 0.4 -0.1 -0.4
v 0.4 0 -0.4
v -0.3 -0.1 0.2
v -0.2 -0.1 0.2
v 0 -0.1 0.2
v 0.1 -0.1 0.2
v -0.4 -0.1 0.1
v -0.3 -0.1 0.1
v -0.2 -0.1 0.1
v -0.1 -0.1 0.1
v 0 -0.1 0.1
v 0.1 -0.1 0.1
v 0.2 -0.1 0.1
v 0.3 -0.1 0.1
v -0.2 -0.1 0
v -0.1 -0.1 0
v 0.1 -0.1 0
v 0.2 -0.1 0
v 0.3 -0.1 0
v 0.4 -0.1 0
v -0.1 -0.1 -0.1
v 0.1 -0.1 -0.1
v 0.2 -0.1 -0.1
v 0.3 -0.1 -0.1
v 0.4 -0.1 -0.1
v 0.5 -0.1 -0.1
v -0.4 -0.1 -0.2
v -0.3 -0.1 -0.2
v -0.2 -0.1 -0.2
v 0 -0.1 -0.2
v 0.1 -0.1 -0.2
v 0.2 -0.1 -0.2
v 0.4 -0.1 -0.2
v -0.3 -0.1 -0.3
v -0.2 -0.1 -0.3
v 0 -0.1 -0.3
v 0.1 -0.1 -0.3
v 0.2 -0.1 -0.3
v 0.4 -0.1 -0.3
v 0.5 -0.1 -0.3
v -0.2 -0.1 -0.4
v 0.1 -0.1 -0.4
v 0.2 -0.1 -0.4
v 0.4 -0.1 -0.4
v -0.3 0 0.2
v -0.2 0 0.2
v 0 0 0.2
v 0.1 0 0.2
v -0.4 0 0.1
v -0.3 0 0.1
v -0.2 0 0.1
v -0.1 0 0.1
v 0 0 0.1
v 0.1 0 0.1
v 0.2 0 0.1
v 0.3 0 0.1
v -0.2 0 0
v -0.1 0 0
v 0.1 0 0
v 0.2 0 0
v 0.3 0 0
v 0.4 0 0
v -0.1 0 -0.1
v 0.1 0 -0.1
v 0.2 0 -0.1
v 0.3 0 -0.1
v 0.4 0 -0.1
v 0.5 0 -0.1
v -0.4 0 -0.2
v -0.3 0 -0.2
v -0.2 0 -0.2
v 0 0 -0.2
v 0.1 0 -0.2
v 0.2 0 -0.2
v 0.4 0 -0.2
v -0.3 0 -0.3
v -0.2 0 -0.3
v 0 0 -0.3
v 0.1 0 -0.3
v 0.2 0 -0.3
v 0.4 0 -0.3
v 0.5 0 -0.3
v -0.2 0 -0.4
v 0.1 0 -0.4
v 0.2 0 -0.4
v 0.4 0 -0.4

# faces
f 3/2/1 2/2/1 1/2/1
f 4/2/1 2/2/1 3/2/1
f 9/2/1 6/2/1 5/2/1
f 10/2/1 6/2/1 9/2/1
f 11/2/1 8/2/1 7/2/1
f 12/2/1 8/2/1 11/2/1
f 15/2/1 14/2/1 13/2/1
f 16/2/1 14/2/1 15/2/1
f 19/2/1 18/2/1 17/2/1
f 20/2/1 18/2/1 19/2/1
f 21/3/2 22/3/2 25/3/2
f 25/3/2 22/3/2 26/3/2
f 23/2/2 24/2/2 27/2/2
f 27/2/2 24/2/2 28/2/2
f 29/2/2 30/2/2 31/2/2
f 31/2/2 30/2/2 32/2/2
f 33/2/2 34/2/2 37/2/2
f 37/2/2 34/2/2 38/2/2
f 35/2/2 36/2/2 39/2/2
f 39/2/2 36/2/2 40/2/2
f 41/2/2 42/2/2 43/2/2
f 43/2/2 42/2/2 44/2/2
f 47/2/3 46/2/3 45/2/3
f 48/2/3 46/2/3 47/2/3
f 49/1/3 48/1/3 47/1/3
f 50/1/3 48/1/3 49/1/3
f 51/3/3 50/3/3 49/3/3
f 52/3/3 50/3/3 51/3/3
f 55/2/3 54/2/3 53/2/3
f 56/2/3 54/2/3 55/2/3
f 59/3/3 58/3/3 57/3/3
f 60/3/3 58/3/3 59/3/3
f 61/2/3 60/2/3 59/2/3
f 62/2/3 60/2/3 61/2/3
f 65/2/3 64/2/3 63/2/3
f 66/2/3 64/2/3 65/2/3
f 69/2/3 68/2/3 67/2/3
f 70/2/3 68/2/3 69/2/3
f 71/2/4 72/2/4 73/2/4
f 73/2/4 72/2/4 74/2/4
f 75/2/4 76/2/4 77/2/4
f 77/2/4 76/2/4 78/2/4
f 79/2/4 80/2/4 81/2/4
f 81/2/4 80/2/4 82/2/4
f 83/2/4 84/2/4 85/2/4
f 85/2/4 84/2/4 86/2/4
f 87/2/4 88/2/4 89/2/4
f 89/2/4 88/2/4 90/2/4
f 91/2/4 92/2/4 93/2/4
f 93/2/4 92/2/4 94/2/4
f 100/2/5 96/2/5 95/2/5
f 101/1/5 97/1/5 96/1/5
f 101/2/5 96/2/5 100/2/5
f 102/1/5 97/1/5 101/1/5
f 103/3/5 98/3/5 97/3/5
f 103/1/5 97/1/5 102/1/5
f 104/3/5 98/3/5 103/3/5
f 107/1/5 102/1/5 101/1/5
f 107/1/5 101/1/5 100/1/5
f 108/3/5 105/3/5 104/3/5
f 108/1/5 102/1/5 107/1/5
f 108/3/5 103/3/5 102/3/5
f 108/3/5 104/3/5 103/3/5
f 109/3/5 105/3/5 108/3/5
f 110/2/5 106/2/5 105/2/5
f 110/3/5 105/3/5 109/3/5
f 111/2/5 106/2/5 110/2/5
f 113/1/5 109/1/5 108/1/5
f 113/3/5 108/3/5 107/3/5
f 114/3/5 111/3/5 110/3/5
f 114/1/5 109/1/5 113/1/5
f 114/3/5 110/3/5 109/3/5
f 115/3/5 111/3/5 114/3/5
f 116/2/5 112/2/5 111/2/5
f 116/3/5 111/3/5 115/3/5
f 117/2/5 112/2/5 116/2/5
f 119/2/5 100/2/5 99/2/5
f 120/1/5 107/1/5 100/1/5
f 120/2/5 100/2/5 119/2/5
f 121/3/5 113/3/5 107/3/5
f 121/1/5 107/1/5 120/1/5
f 121/3/5 114/3/5 113/3/5
f 122/3/5 114/3/5 121/3/5
f 123/1/5 115/1/5 114/1/5
f 123/3/5 114/3/5 122/3/5
f 124/3/5 117/3/5 116/3/5
f 124/1/5 115/1/5 123/1/5
f 124/3/5 116/3/5 115/3/5
f 125/2/5 118/2/5 117/2/5
f 125/3/5 117/3/5 124/3/5
f 126/2/5 121/2/5 120/2/5
f 127/3/5 122/3/5 121/3/5
f 127/2/5 121/2/5 126/2/5
f 128/1/5 123/1/5 122/1/5
f 128/3/5 122/3/5 127/3/5
f 129/2/5 124/2/5 123/2/5
f 129/1/5 123/1/5 128/1/5
f 130/1/5 125/1/5 124/1/5
f 130/2/5 124/2/5 129/2/5
f 131/2/5 118/2/5 125/2/5
f 131/1/5 125/1/5 130/1/5
f 132/2/5 118/2/5 131/2/5
f 133/2/5 128/2/5 127/2/5
f 133/2/5 129/2/5 128/2/5
f 134/2/5 129/2/5 133/2/5
f 135/2/5 131/2/5 130/2/5
f 136/2/5 131/2/5 135/2/5
f 137/2/6 138/2/6 142/2/6
f 138/1/6 139/1/6 143/1/6
f 142/2/6 138/2/6 143/2/6
f 143/1/6 139/1/6 144/1/6
f 139/3/6 140/3/6 145/3/6
f 144/1/6 139/1/6 145/1/6
f 145/3/6 140/3/6 146/3/6
f 143/1/6 144/1/6 149/1/6
f 142/1/6 143/1/6 149/1/6
f 146/3/6 147/3/6 150/3/6
f 149/1/6 144/1/6 150/1/6
f 144/3/6 145/3/6 150/3/6
f 145/3/6 146/3/6 150/3/6
f 150/3/6 147/3/6 151/3/6
f 147/2/6 148/2/6 152/2/6
f 151/3/6 147/3/6 152/3/6
f 152/2/6 148/2/6 153/2/6
f 150/1/6 151/1/6 155/1/6
f 149/3/6 150/3/6 155/3/6
f 152/3/6 153/3/6 156/3/6
f 155/1/6 151/1/6 156/1/6
f 151/3/6 152/3/6 156/3/6
f 156/3/6 153/3/6 157/3/6
f 153/2/6 154/2/6 158/2/6
f 157/3/6 153/3/6 158/3/6
f 158/2/6 154/2/6 159/2/6
f 141/2/6 142/2/6 161/2/6
f 142/1/6 149/1/6 162/1/6
f 161/2/6 142/2/6 162/2/6
f 149/3/6 155/3/6 163/3/6
f 162/1/6 149/1/6 163/1/6
f 155/3/6 156/3/6 163/3/6
f 163/3/6 156/3/6 164/3/6
f 156/1/6 157/1/6 165/1/6
f 164/3/6 156/3/6 165/3/6
f 158/3/6 159/3/6 166/3/6
f 165/1/6 157/1/6 166/1/6
f 157/3/6 158/3/6 166/3/6
f 159/2/6 160/2/6 167/2/6
f 166/3/6 159/3/6 167/3/6
f 162/2/6 163/2/6 168/2/6
f 163/3/6 164/3/6 169/3/6
f 168/2/6 163/2/6 169/2/6
f 164/1/6 165/1/6 170/1/6
f 169/3/6 164/3/6 170/3/6
f 165/2/6 166/2/6 171/2/6
f 170/1/6 165/1/6 171/1/6
f 166/1/6 167/1/6 172/1/6
f 171/2/6 166/2/6 172/2/6
f 167/2/6 160/2/6 173/2/6
f 172/1/6 167/1/6 173/1/6
f 173/2/6 160/2/6 174/2/6
f 169/2/6 170/2/6 175/2/6
f 170/2/6 171/2/6 175/2/6
f 175/2/6 171/2/6 176/2/6
f 172/2/6 173/2/6 177/2/6
f 177/2/6 173/2/6 178/2/6
