# MagicaVoxel @ Ephtracy

# group
o 

# material
mtllib cubeland1-9.mtl
usemtl palette

# normals
vn -1 0 0
vn 1 0 0
vn 0 0 1
vn 0 0 -1
vn 0 -1 0
vn 0 1 0

# texcoords
vt 0.0566406 0.5
vt 0.0917969 0.5
vt 0.103516 0.5

# verts
v -0.4 -0.1 0.1
v -0.4 -0.1 -0.2
v -0.4 0 0.1
v -0.4 0 -0.2
v -0.3 -0.1 0.2
v -0.3 -0.1 0.1
v -0.3 -0.1 -0.2
v -0.3 -0.1 -0.3
v -0.3 0 0.2
v -0.3 0 0.1
v -0.3 0 -0.2
v -0.3 0 -0.3
v -0.2 -0.1 -0.3
v -0.2 -0.1 -0.4
v -0.2 0 -0.3
v -0.2 0 -0.4
v 0.2 -0.1 -0.3
v 0.2 -0.1 -0.4
v 0.2 0 -0.3
v 0.2 0 -0.4
v 0.1 -0.1 0.2
v 0.1 -0.1 0.1
v 0.1 -0.1 -0.3
v 0.1 -0.1 -0.4
v 0.1 0 0.2
v 0.1 0 0.1
v 0.1 0 -0.3
v 0.1 0 -0.4
v 0.3 -0.1 0.1
v 0.3 -0.1 0
v 0.3 0 0.1
v 0.3 0 0
v 0.4 -0.1 0
v 0.4 -0.1 -0.1
v 0.4 -0.1 -0.3
v 0.4 -0.1 -0.4
v 0.4 0 0
v 0.4 0 -0.1
v 0.4 0 -0.3
v 0.4 0 -0.4
v 0.5 -0.1 -0.1
v 0.5 -0.1 -0.3
v 0.5 0 -0.1
v 0.5 0 -0.3
v -0.3 -0.1 0.2
v -0.3 0 0.2
v -0.2 -0.1 0.2
v -0.2 0 0.2
v 0 -0.1 0.2
v 0 0 0.2
v 0.1 -0.1 0.2
v 0.1 0 0.2
v -0.4 -0.1 0.1
v -0.4 0 0.1
v -0.3 -0.1 0.1
v -0.3 0 0.1
v 0.1 -0.1 0.1
v 0.1 0 0.1
v 0.2 -0.1 0.1
v 0.2 0 0.1
v 0.3 -0.1 0.1
v 0.3 0 0.1
v 0.3 -0.1 0
v 0.3 0 0
v 0.4 -0.1 0
v 0.4 0 0
v 0.4 -0.1 -0.1
v 0.4 0 -0.1
v 0.5 -0.1 -0.1
v 0.5 0 -0.1
v -0.4 -0.1 -0.2
v -0.4 0 -0.2
v -0.3 -0.1 -0.2
v -0.3 0 -0.2
v -0.3 -0.1 -0.3
v -0.3 0 -0.3
v -0.2 -0.1 -0.3
v -0.2 0 -0.3
v 0.1 -0.1 -0.3
v 0.1 0 -0.3
v 0.2 -0.1 -0.3
v 0.2 0 -0.3
v 0.4 -0.1 -0.3
v 0.4 0 -0.3
v 0.5 -0.1 -0.3
v 0.5 0 -0.3
v -0.2 -0.1 -0.4
v -0.2 0 -0.4
v 0.1 -0.1 -0.4
v 0.1 0 -0.4
v 0.2 -0.1 -0.4
v 0.2 0 -0.4
v 0.4 -0.1 -0.4
v 0.4 0 -0.4
v -0.3 -0.1 0.2
v -0.2 -0.1 0.2
v 0 -0.1 0.2
v 0.1 -0.1 0.2
v -0.4 -0.1 0.1
v -0.3 -0.1 0.1
v -0.2 -0.1 0.1
v -0.1 -0.1 0.1
v 0 -0.1 0.1
v 0.1 -0.1 0.1
v 0.2 -0.1 0.1
v 0.3 -0.1 0.1
v -0.2 -0.1 0
v -0.1 -0.1 0
v 0.1 -0.1 0
v 0.2 -0.1 0
v 0.3 -0.1 0
v 0.4 -0.1 0
v -0.1 -0.1 -0.1
v 0.1 -0.1 -0.1
v 0.2 -0.1 -0.1
v 0.3 -0.1 -0.1
v 0.4 -0.1 -0.1
v 0.5 -0.1 -0.1
v -0.4 -0.1 -0.2
v -0.3 -0.1 -0.2
v -0.2 -0.1 -0.2
v 0 -0.1 -0.2
v 0.1 -0.1 -0.2
v 0.2 -0.1 -0.2
v 0.4 -0.1 -0.2
v -0.3 -0.1 -0.3
v -0.2 -0.1 -0.3
v 0 -0.1 -0.3
v 0.1 -0.1 -0.3
v 0.2 -0.1 -0.3
v 0.4 -0.1 -0.3
v 0.5 -0.1 -0.3
v -0.2 -0.1 -0.4
v 0.1 -0.1 -0.4
v 0.2 -0.1 -0.4
v 0.4 -0.1 -0.4
v -0.3 0 0.2
v -0.2 0 0.2
v 0 0 0.2
v 0.1 0 0.2
v -0.4 0 0.1
v -0.3 0 0.1
v -0.2 0 0.1
v -0.1 0 0.1
v 0 0 0.1
v 0.1 0 0.1
v 0.2 0 0.1
v 0.3 0 0.1
v -0.2 0 0
v -0.1 0 0
v 0.1 0 0
v 0.2 0 0
v 0.3 0 0
v 0.4 0 0
v -0.1 0 -0.1
v 0.1 0 -0.1
v 0.2 0 -0.1
v 0.3 0 -0.1
v 0.4 0 -0.1
v 0.5 0 -0.1
v -0.4 0 -0.2
v -0.3 0 -0.2
v -0.2 0 -0.2
v 0 0 -0.2
v 0.1 0 -0.2
v 0.2 0 -0.2
v 0.4 0 -0.2
v -0.3 0 -0.3
v -0.2 0 -0.3
v 0 0 -0.3
v 0.1 0 -0.3
v 0.2 0 -0.3
v 0.4 0 -0.3
v 0.5 0 -0.3
v -0.2 0 -0.4
v 0.1 0 -0.4
v 0.2 0 -0.4
v 0.4 0 -0.4

# faces
f 3/3/1 2/3/1 1/3/1
f 4/3/1 2/3/1 3/3/1
f 9/3/1 6/3/1 5/3/1
f 10/3/1 6/3/1 9/3/1
f 11/3/1 8/3/1 7/3/1
f 12/3/1 8/3/1 11/3/1
f 15/3/1 14/3/1 13/3/1
f 16/3/1 14/3/1 15/3/1
f 19/3/1 18/3/1 17/3/1
f 20/3/1 18/3/1 19/3/1
f 21/1/2 22/1/2 25/1/2
f 25/1/2 22/1/2 26/1/2
f 23/3/2 24/3/2 27/3/2
f 27/3/2 24/3/2 28/3/2
f 29/3/2 30/3/2 31/3/2
f 31/3/2 30/3/2 32/3/2
f 33/3/2 34/3/2 37/3/2
f 37/3/2 34/3/2 38/3/2
f 35/3/2 36/3/2 39/3/2
f 39/3/2 36/3/2 40/3/2
f 41/3/2 42/3/2 43/3/2
f 43/3/2 42/3/2 44/3/2
f 47/3/3 46/3/3 45/3/3
f 48/3/3 46/3/3 47/3/3
f 49/2/3 48/2/3 47/2/3
f 50/2/3 48/2/3 49/2/3
f 51/1/3 50/1/3 49/1/3
f 52/1/3 50/1/3 51/1/3
f 55/3/3 54/3/3 53/3/3
f 56/3/3 54/3/3 55/3/3
f 59/1/3 58/1/3 57/1/3
f 60/1/3 58/1/3 59/1/3
f 61/3/3 60/3/3 59/3/3
f 62/3/3 60/3/3 61/3/3
f 65/3/3 64/3/3 63/3/3
f 66/3/3 64/3/3 65/3/3
f 69/3/3 68/3/3 67/3/3
f 70/3/3 68/3/3 69/3/3
f 71/3/4 72/3/4 73/3/4
f 73/3/4 72/3/4 74/3/4
f 75/3/4 76/3/4 77/3/4
f 77/3/4 76/3/4 78/3/4
f 79/3/4 80/3/4 81/3/4
f 81/3/4 80/3/4 82/3/4
f 83/3/4 84/3/4 85/3/4
f 85/3/4 84/3/4 86/3/4
f 87/3/4 88/3/4 89/3/4
f 89/3/4 88/3/4 90/3/4
f 91/3/4 92/3/4 93/3/4
f 93/3/4 92/3/4 94/3/4
f 100/3/5 96/3/5 95/3/5
f 101/2/5 97/2/5 96/2/5
f 101/3/5 96/3/5 100/3/5
f 102/2/5 97/2/5 101/2/5
f 103/1/5 98/1/5 97/1/5
f 103/2/5 97/2/5 102/2/5
f 104/1/5 98/1/5 103/1/5
f 107/2/5 102/2/5 101/2/5
f 107/2/5 101/2/5 100/2/5
f 108/1/5 105/1/5 104/1/5
f 108/2/5 102/2/5 107/2/5
f 108/1/5 103/1/5 102/1/5
f 108/1/5 104/1/5 103/1/5
f 109/1/5 105/1/5 108/1/5
f 110/3/5 106/3/5 105/3/5
f 110/1/5 105/1/5 109/1/5
f 111/3/5 106/3/5 110/3/5
f 113/2/5 109/2/5 108/2/5
f 113/1/5 108/1/5 107/1/5
f 114/1/5 111/1/5 110/1/5
f 114/2/5 109/2/5 113/2/5
f 114/1/5 110/1/5 109/1/5
f 115/1/5 111/1/5 114/1/5
f 116/3/5 112/3/5 111/3/5
f 116/1/5 111/1/5 115/1/5
f 117/3/5 112/3/5 116/3/5
f 119/3/5 100/3/5 99/3/5
f 120/2/5 107/2/5 100/2/5
f 120/3/5 100/3/5 119/3/5
f 121/1/5 113/1/5 107/1/5
f 121/2/5 107/2/5 120/2/5
f 121/1/5 114/1/5 113/1/5
f 122/1/5 114/1/5 121/1/5
f 123/2/5 115/2/5 114/2/5
f 123/1/5 114/1/5 122/1/5
f 124/1/5 117/1/5 116/1/5
f 124/2/5 115/2/5 123/2/5
f 124/1/5 116/1/5 115/1/5
f 125/3/5 118/3/5 117/3/5
f 125/1/5 117/1/5 124/1/5
f 126/3/5 121/3/5 120/3/5
f 127/1/5 122/1/5 121/1/5
f 127/3/5 121/3/5 126/3/5
f 128/2/5 123/2/5 122/2/5
f 128/1/5 122/1/5 127/1/5
f 129/3/5 124/3/5 123/3/5
f 129/2/5 123/2/5 128/2/5
f 130/2/5 125/2/5 124/2/5
f 130/3/5 124/3/5 129/3/5
f 131/3/5 118/3/5 125/3/5
f 131/2/5 125/2/5 130/2/5
f 132/3/5 118/3/5 131/3/5
f 133/3/5 128/3/5 127/3/5
f 133/3/5 129/3/5 128/3/5
f 134/3/5 129/3/5 133/3/5
f 135/3/5 131/3/5 130/3/5
f 136/3/5 131/3/5 135/3/5
f 137/3/6 138/3/6 142/3/6
f 138/2/6 139/2/6 143/2/6
f 142/3/6 138/3/6 143/3/6
f 143/2/6 139/2/6 144/2/6
f 139/1/6 140/1/6 145/1/6
f 144/2/6 139/2/6 145/2/6
f 145/1/6 140/1/6 146/1/6
f 143/2/6 144/2/6 149/2/6
f 142/2/6 143/2/6 149/2/6
f 146/1/6 147/1/6 150/1/6
f 149/2/6 144/2/6 150/2/6
f 144/1/6 145/1/6 150/1/6
f 145/1/6 146/1/6 150/1/6
f 150/1/6 147/1/6 151/1/6
f 147/3/6 148/3/6 152/3/6
f 151/1/6 147/1/6 152/1/6
f 152/3/6 148/3/6 153/3/6
f 150/2/6 151/2/6 155/2/6
f 149/1/6 150/1/6 155/1/6
f 152/1/6 153/1/6 156/1/6
f 155/2/6 151/2/6 156/2/6
f 151/1/6 152/1/6 156/1/6
f 156/1/6 153/1/6 157/1/6
f 153/3/6 154/3/6 158/3/6
f 157/1/6 153/1/6 158/1/6
f 158/3/6 154/3/6 159/3/6
f 141/3/6 142/3/6 161/3/6
f 142/2/6 149/2/6 162/2/6
f 161/3/6 142/3/6 162/3/6
f 149/1/6 155/1/6 163/1/6
f 162/2/6 149/2/6 163/2/6
f 155/1/6 156/1/6 163/1/6
f 163/1/6 156/1/6 164/1/6
f 156/2/6 157/2/6 165/2/6
f 164/1/6 156/1/6 165/1/6
f 158/1/6 159/1/6 166/1/6
f 165/2/6 157/2/6 166/2/6
f 157/1/6 158/1/6 166/1/6
f 159/3/6 160/3/6 167/3/6
f 166/1/6 159/1/6 167/1/6
f 162/3/6 163/3/6 168/3/6
f 163/1/6 164/1/6 169/1/6
f 168/3/6 163/3/6 169/3/6
f 164/2/6 165/2/6 170/2/6
f 169/1/6 164/1/6 170/1/6
f 165/3/6 166/3/6 171/3/6
f 170/2/6 165/2/6 171/2/6
f 166/2/6 167/2/6 172/2/6
f 171/3/6 166/3/6 172/3/6
f 167/3/6 160/3/6 173/3/6
f 172/2/6 167/2/6 173/2/6
f 173/3/6 160/3/6 174/3/6
f 169/3/6 170/3/6 175/3/6
f 170/3/6 171/3/6 175/3/6
f 175/3/6 171/3/6 176/3/6
f 172/3/6 173/3/6 177/3/6
f 177/3/6 173/3/6 178/3/6
