# MagicaVoxel @ Ephtracy

# group
o 

# material
mtllib cubeland1-26.mtl
usemtl palette

# normals
vn -1 0 0
vn 1 0 0
vn 0 0 1
vn 0 0 -1
vn 0 -1 0
vn 0 1 0

# texcoords
vt 0.00585938 0.5
vt 0.0332031 0.5
vt 0.0917969 0.5

# verts
v -0.2 0.5 0
v -0.2 0.5 -0.1
v -0.2 0.6 0
v -0.2 0.6 -0.1
v -0.1 0.4 0
v -0.1 0.4 -0.1
v -0.1 0.5 0
v -0.1 0.5 -0.1
v -0.1 0.6 0
v -0.1 0.6 -0.1
v -0.1 0.7 0
v -0.1 0.7 -0.1
v 0 -0.8 0
v 0 -0.8 -0.1
v 0 -0.1 0
v 0 -0.1 -0.1
v 0 0.2 0
v 0 0.2 -0.1
v 0 0.3 0
v 0 0.3 -0.1
v 0 0.4 0
v 0 0.4 -0.1
v 0 0.7 0
v 0 0.7 -0.1
v 0 0.9 0
v 0 0.9 -0.1
v 0.1 -0.8 0
v 0.1 -0.8 -0.1
v 0.1 -0.1 0
v 0.1 -0.1 -0.1
v 0.1 0.2 0
v 0.1 0.2 -0.1
v 0.1 0.3 0
v 0.1 0.3 -0.1
v 0.1 0.4 0
v 0.1 0.4 -0.1
v 0.1 0.7 0
v 0.1 0.7 -0.1
v 0.1 0.9 0
v 0.1 0.9 -0.1
v 0.2 0.4 0
v 0.2 0.4 -0.1
v 0.2 0.5 0
v 0.2 0.5 -0.1
v 0.2 0.6 0
v 0.2 0.6 -0.1
v 0.2 0.7 0
v 0.2 0.7 -0.1
v 0.3 0.5 0
v 0.3 0.5 -0.1
v 0.3 0.6 0
v 0.3 0.6 -0.1
v -0.2 0.5 0
v -0.2 0.6 0
v -0.1 0.4 0
v -0.1 0.5 0
v -0.1 0.6 0
v -0.1 0.7 0
v 0 -0.8 0
v 0 -0.1 0
v 0 0.2 0
v 0 0.3 0
v 0 0.4 0
v 0 0.5 0
v 0 0.6 0
v 0 0.7 0
v 0 0.9 0
v 0.1 -0.8 0
v 0.1 -0.1 0
v 0.1 0.2 0
v 0.1 0.3 0
v 0.1 0.4 0
v 0.1 0.5 0
v 0.1 0.6 0
v 0.1 0.7 0
v 0.1 0.9 0
v 0.2 0.4 0
v 0.2 0.5 0
v 0.2 0.6 0
v 0.2 0.7 0
v 0.3 0.5 0
v 0.3 0.6 0
v -0.2 0.5 -0.1
v -0.2 0.6 -0.1
v -0.1 0.4 -0.1
v -0.1 0.5 -0.1
v -0.1 0.6 -0.1
v -0.1 0.7 -0.1
v 0 -0.8 -0.1
v 0 -0.1 -0.1
v 0 0.2 -0.1
v 0 0.3 -0.1
v 0 0.4 -0.1
v 0 0.5 -0.1
v 0 0.6 -0.1
v 0 0.7 -0.1
v 0 0.9 -0.1
v 0.1 -0.8 -0.1
v 0.1 -0.1 -0.1
v 0.1 0.2 -0.1
v 0.1 0.3 -0.1
v 0.1 0.4 -0.1
v 0.1 0.5 -0.1
v 0.1 0.6 -0.1
v 0.1 0.7 -0.1
v 0.1 0.9 -0.1
v 0.2 0.4 -0.1
v 0.2 0.5 -0.1
v 0.2 0.6 -0.1
v 0.2 0.7 -0.1
v 0.3 0.5 -0.1
v 0.3 0.6 -0.1
v 0 -0.8 0
v 0.1 -0.8 0
v 0 -0.8 -0.1
v 0.1 -0.8 -0.1
v -0.1 0.4 0
v 0 0.4 0
v 0.1 0.4 0
v 0.2 0.4 0
v -0.1 0.4 -0.1
v 0 0.4 -0.1
v 0.1 0.4 -0.1
v 0.2 0.4 -0.1
v -0.2 0.5 0
v -0.1 0.5 0
v 0.2 0.5 0
v 0.3 0.5 0
v -0.2 0.5 -0.1
v -0.1 0.5 -0.1
v 0.2 0.5 -0.1
v 0.3 0.5 -0.1
v -0.2 0.6 0
v -0.1 0.6 0
v 0.2 0.6 0
v 0.3 0.6 0
v -0.2 0.6 -0.1
v -0.1 0.6 -0.1
v 0.2 0.6 -0.1
v 0.3 0.6 -0.1
v -0.1 0.7 0
v 0 0.7 0
v 0.1 0.7 0
v 0.2 0.7 0
v -0.1 0.7 -0.1
v 0 0.7 -0.1
v 0.1 0.7 -0.1
v 0.2 0.7 -0.1
v 0 0.9 0
v 0.1 0.9 0
v 0 0.9 -0.1
v 0.1 0.9 -0.1

# faces
f 3/3/1 2/3/1 1/3/1
f 4/3/1 2/3/1 3/3/1
f 7/1/1 6/1/1 5/1/1
f 8/1/1 6/1/1 7/1/1
f 11/3/1 10/3/1 9/3/1
f 12/3/1 10/3/1 11/3/1
f 15/2/1 14/2/1 13/2/1
f 16/2/1 14/2/1 15/2/1
f 17/1/1 16/1/1 15/1/1
f 18/1/1 16/1/1 17/1/1
f 19/2/1 18/2/1 17/2/1
f 20/2/1 18/2/1 19/2/1
f 21/1/1 20/1/1 19/1/1
f 22/1/1 20/1/1 21/1/1
f 25/3/1 24/3/1 23/3/1
f 26/3/1 24/3/1 25/3/1
f 27/2/2 28/2/2 29/2/2
f 29/2/2 28/2/2 30/2/2
f 29/1/2 30/1/2 31/1/2
f 31/1/2 30/1/2 32/1/2
f 31/2/2 32/2/2 33/2/2
f 33/2/2 32/2/2 34/2/2
f 33/1/2 34/1/2 35/1/2
f 35/1/2 34/1/2 36/1/2
f 37/3/2 38/3/2 39/3/2
f 39/3/2 38/3/2 40/3/2
f 41/1/2 42/1/2 43/1/2
f 43/1/2 42/1/2 44/1/2
f 45/3/2 46/3/2 47/3/2
f 47/3/2 46/3/2 48/3/2
f 49/3/2 50/3/2 51/3/2
f 51/3/2 50/3/2 52/3/2
f 56/3/3 54/3/3 53/3/3
f 57/3/3 54/3/3 56/3/3
f 63/1/3 56/1/3 55/1/3
f 64/3/3 57/3/3 56/3/3
f 64/3/3 58/3/3 57/3/3
f 64/1/3 56/1/3 63/1/3
f 65/3/3 58/3/3 64/3/3
f 66/3/3 58/3/3 65/3/3
f 68/2/3 60/2/3 59/2/3
f 69/1/3 61/1/3 60/1/3
f 69/2/3 60/2/3 68/2/3
f 70/2/3 62/2/3 61/2/3
f 70/1/3 61/1/3 69/1/3
f 71/1/3 63/1/3 62/1/3
f 71/2/3 62/2/3 70/2/3
f 71/1/3 64/1/3 63/1/3
f 71/1/3 65/1/3 64/1/3
f 72/1/3 65/1/3 71/1/3
f 73/1/3 65/1/3 72/1/3
f 74/3/3 67/3/3 66/3/3
f 74/1/3 65/1/3 73/1/3
f 74/3/3 66/3/3 65/3/3
f 75/3/3 67/3/3 74/3/3
f 76/3/3 67/3/3 75/3/3
f 77/1/3 73/1/3 72/1/3
f 78/3/3 75/3/3 74/3/3
f 78/1/3 73/1/3 77/1/3
f 78/3/3 74/3/3 73/3/3
f 79/3/3 75/3/3 78/3/3
f 80/3/3 75/3/3 79/3/3
f 81/3/3 79/3/3 78/3/3
f 82/3/3 79/3/3 81/3/3
f 83/3/4 84/3/4 86/3/4
f 86/3/4 84/3/4 87/3/4
f 85/1/4 86/1/4 93/1/4
f 86/3/4 87/3/4 94/3/4
f 87/3/4 88/3/4 94/3/4
f 93/1/4 86/1/4 94/1/4
f 94/3/4 88/3/4 95/3/4
f 95/3/4 88/3/4 96/3/4
f 89/2/4 90/2/4 98/2/4
f 90/1/4 91/1/4 99/1/4
f 98/2/4 90/2/4 99/2/4
f 91/2/4 92/2/4 100/2/4
f 99/1/4 91/1/4 100/1/4
f 92/1/4 93/1/4 101/1/4
f 100/2/4 92/2/4 101/2/4
f 93/1/4 94/1/4 101/1/4
f 94/1/4 95/1/4 101/1/4
f 101/1/4 95/1/4 102/1/4
f 102/1/4 95/1/4 103/1/4
f 96/3/4 97/3/4 104/3/4
f 103/1/4 95/1/4 104/1/4
f 95/3/4 96/3/4 104/3/4
f 104/3/4 97/3/4 105/3/4
f 105/3/4 97/3/4 106/3/4
f 102/1/4 103/1/4 107/1/4
f 104/3/4 105/3/4 108/3/4
f 107/1/4 103/1/4 108/1/4
f 103/3/4 104/3/4 108/3/4
f 108/3/4 105/3/4 109/3/4
f 109/3/4 105/3/4 110/3/4
f 108/3/4 109/3/4 111/3/4
f 111/3/4 109/3/4 112/3/4
f 115/2/5 114/2/5 113/2/5
f 116/2/5 114/2/5 115/2/5
f 121/1/5 118/1/5 117/1/5
f 122/1/5 118/1/5 121/1/5
f 123/1/5 120/1/5 119/1/5
f 124/1/5 120/1/5 123/1/5
f 129/3/5 126/3/5 125/3/5
f 130/3/5 126/3/5 129/3/5
f 131/3/5 128/3/5 127/3/5
f 132/3/5 128/3/5 131/3/5
f 133/3/6 134/3/6 137/3/6
f 137/3/6 134/3/6 138/3/6
f 135/3/6 136/3/6 139/3/6
f 139/3/6 136/3/6 140/3/6
f 141/3/6 142/3/6 145/3/6
f 145/3/6 142/3/6 146/3/6
f 143/3/6 144/3/6 147/3/6
f 147/3/6 144/3/6 148/3/6
f 149/3/6 150/3/6 151/3/6
f 151/3/6 150/3/6 152/3/6
