# MagicaVoxel @ Ephtracy

# group
o 

# material
mtllib cubeland1-1.mtl
usemtl palette

# normals
vn -1 0 0
vn 1 0 0
vn 0 0 1
vn 0 0 -1
vn 0 -1 0
vn 0 1 0

# texcoords
vt 0.0214844 0.5
vt 0.0410156 0.5
vt 0.0917969 0.5

# verts
v -0.4 -0.2 0.1
v -0.4 -0.2 -0.2
v -0.4 -0.1 0.1
v -0.4 -0.1 -0.2
v -0.3 -0.1 0.1
v -0.3 -0.1 0
v -0.3 -0.1 -0.1
v -0.3 -0.1 -0.2
v -0.3 0 0.1
v -0.3 0 0
v -0.3 0 -0.1
v -0.3 0 -0.2
v -0.3 0.1 0.1
v -0.3 0.1 0
v -0.3 0.1 -0.1
v -0.3 0.1 -0.2
v -0.3 0.2 0.1
v -0.3 0.2 0
v -0.3 0.2 -0.1
v -0.3 0.2 -0.2
v -0.3 0.3 0
v -0.3 0.3 -0.1
v -0.2 -0.2 0.3
v -0.2 -0.2 0.2
v -0.2 -0.2 -0.2
v -0.2 -0.2 -0.3
v -0.2 -0.1 0.3
v -0.2 -0.1 0.2
v -0.2 -0.1 0.1
v -0.2 -0.1 -0.2
v -0.2 0 0.2
v -0.2 0 0.1
v -0.2 0 0
v -0.2 0 -0.1
v -0.2 0 -0.2
v -0.2 0 -0.3
v -0.2 0.1 0.1
v -0.2 0.1 0
v -0.2 0.1 -0.1
v -0.1 0 -0.1
v -0.1 0 -0.2
v -0.1 0.1 -0.1
v -0.1 0.1 -0.2
v 0.1 0 0
v 0.1 0 -0.1
v 0.1 0.1 0
v 0.1 0.1 -0.1
v 0.1 0.2 0
v 0.1 0.2 -0.1
v 0.1 0.3 0
v 0.1 0.3 -0.1
v 0.2 -0.1 0.1
v 0.2 -0.1 0
v 0.2 -0.1 -0.1
v 0.2 0 0.1
v 0.2 0 0
v 0.2 0 -0.1
v 0.3 -0.2 0.1
v 0.3 -0.2 -0.2
v 0.3 -0.1 0.1
v 0.3 -0.1 0
v 0.3 -0.1 -0.1
v 0.3 -0.1 -0.2
v -0.3 -0.2 0.1
v -0.3 -0.2 -0.2
v -0.3 -0.1 0.1
v -0.3 -0.1 0
v -0.3 -0.1 -0.1
v -0.3 -0.1 -0.2
v -0.2 -0.1 0.1
v -0.2 -0.1 0
v -0.2 -0.1 -0.1
v -0.2 0 0.1
v -0.2 0 0
v -0.2 0 -0.1
v -0.1 0 0
v -0.1 0 -0.1
v -0.1 0.1 0
v -0.1 0.1 -0.1
v -0.1 0.2 0
v -0.1 0.2 -0.1
v -0.1 0.3 0
v -0.1 0.3 -0.1
v 0.1 0 -0.1
v 0.1 0 -0.2
v 0.1 0.1 -0.1
v 0.1 0.1 -0.2
v 0.2 -0.2 0.3
v 0.2 -0.2 0.2
v 0.2 -0.2 -0.2
v 0.2 -0.2 -0.3
v 0.2 -0.1 0.3
v 0.2 -0.1 0.2
v 0.2 -0.1 0.1
v 0.2 -0.1 -0.2
v 0.2 0 0.2
v 0.2 0 0.1
v 0.2 0 0
v 0.2 0 -0.1
v 0.2 0 -0.2
v 0.2 0 -0.3
v 0.2 0.1 0.1
v 0.2 0.1 0
v 0.2 0.1 -0.1
v 0.3 -0.1 0.1
v 0.3 -0.1 0
v 0.3 -0.1 -0.1
v 0.3 -0.1 -0.2
v 0.3 0 0.1
v 0.3 0 0
v 0.3 0 -0.1
v 0.3 0 -0.2
v 0.3 0.1 0.1
v 0.3 0.1 0
v 0.3 0.1 -0.1
v 0.3 0.1 -0.2
v 0.3 0.2 0.1
v 0.3 0.2 0
v 0.3 0.2 -0.1
v 0.3 0.2 -0.2
v 0.3 0.3 0
v 0.3 0.3 -0.1
v 0.4 -0.2 0.1
v 0.4 -0.2 -0.2
v 0.4 -0.1 0.1
v 0.4 -0.1 -0.2
v -0.2 -0.2 0.3
v -0.2 -0.1 0.3
v 0.2 -0.2 0.3
v 0.2 -0.1 0.3
v -0.2 -0.1 0.2
v -0.2 0 0.2
v -0.1 -0.1 0.2
v -0.1 0 0.2
v 0.1 -0.1 0.2
v 0.1 0 0.2
v 0.2 -0.1 0.2
v 0.2 0 0.2
v -0.4 -0.2 0.1
v -0.4 -0.1 0.1
v -0.3 -0.2 0.1
v -0.3 -0.1 0.1
v -0.3 0 0.1
v -0.3 0.1 0.1
v -0.3 0.2 0.1
v -0.2 -0.1 0.1
v -0.2 0 0.1
v -0.2 0.1 0.1
v -0.2 0.2 0.1
v -0.1 0 0.1
v 0.1 0 0.1
v 0.2 -0.1 0.1
v 0.2 0 0.1
v 0.2 0.1 0.1
v 0.2 0.2 0.1
v 0.3 -0.2 0.1
v 0.3 -0.1 0.1
v 0.3 0 0.1
v 0.3 0.1 0.1
v 0.3 0.2 0.1
v 0.4 -0.2 0.1
v 0.4 -0.1 0.1
v -0.3 0.2 0
v -0.3 0.3 0
v -0.2 0.2 0
v -0.2 0.3 0
v -0.1 0.2 0
v -0.1 0.3 0
v 0.1 0.2 0
v 0.1 0.3 0
v 0.2 0.2 0
v 0.2 0.3 0
v 0.3 0.2 0
v 0.3 0.3 0
v -0.2 -0.1 -0.1
v -0.2 0 -0.1
v -0.1 0 -0.1
v -0.1 0.1 -0.1
v -0.1 0.2 -0.1
v 0.1 0 -0.1
v 0.1 0.1 -0.1
v 0.1 0.2 -0.1
v 0.2 -0.1 -0.1
v 0.2 0 -0.1
v -0.2 -0.2 -0.2
v -0.2 -0.1 -0.2
v 0.2 -0.2 -0.2
v 0.2 -0.1 -0.2
v -0.2 -0.2 0.2
v -0.2 -0.1 0.2
v -0.1 -0.1 0.2
v 0.1 -0.1 0.2
v 0.2 -0.2 0.2
v 0.2 -0.1 0.2
v -0.2 -0.1 0.1
v -0.2 0 0.1
v -0.1 -0.1 0.1
v -0.1 0 0.1
v 0.1 -0.1 0.1
v 0.1 0 0.1
v 0.2 -0.1 0.1
v 0.2 0 0.1
v -0.1 0 0
v -0.1 0.1 0
v -0.1 0.2 0
v 0.1 0 0
v 0.1 0.1 0
v 0.1 0.2 0
v -0.3 0.2 -0.1
v -0.3 0.3 -0.1
v -0.2 0 -0.1
v -0.2 0.1 -0.1
v -0.2 0.2 -0.1
v -0.2 0.3 -0.1
v -0.1 0 -0.1
v -0.1 0.1 -0.1
v -0.1 0.2 -0.1
v -0.1 0.3 -0.1
v 0.1 0 -0.1
v 0.1 0.1 -0.1
v 0.1 0.2 -0.1
v 0.1 0.3 -0.1
v 0.2 0 -0.1
v 0.2 0.1 -0.1
v 0.2 0.2 -0.1
v 0.2 0.3 -0.1
v 0.3 0.2 -0.1
v 0.3 0.3 -0.1
v -0.4 -0.2 -0.2
v -0.4 -0.1 -0.2
v -0.3 -0.2 -0.2
v -0.3 -0.1 -0.2
v -0.3 0 -0.2
v -0.3 0.1 -0.2
v -0.3 0.2 -0.2
v -0.2 -0.1 -0.2
v -0.2 0 -0.2
v -0.2 0.1 -0.2
v -0.2 0.2 -0.2
v -0.1 0 -0.2
v -0.1 0.1 -0.2
v 0.1 0 -0.2
v 0.1 0.1 -0.2
v 0.2 -0.1 -0.2
v 0.2 0 -0.2
v 0.2 0.1 -0.2
v 0.2 0.2 -0.2
v 0.3 -0.2 -0.2
v 0.3 -0.1 -0.2
v 0.3 0 -0.2
v 0.3 0.1 -0.2
v 0.3 0.2 -0.2
v 0.4 -0.2 -0.2
v 0.4 -0.1 -0.2
v -0.2 -0.2 -0.3
v -0.2 0 -0.3
v -0.1 -0.1 -0.3
v -0.1 0 -0.3
v 0.1 -0.1 -0.3
v 0.1 0 -0.3
v 0.2 -0.2 -0.3
v 0.2 0 -0.3
v -0.2 -0.2 0.3
v 0.2 -0.2 0.3
v -0.2 -0.2 0.2
v 0.2 -0.2 0.2
v -0.4 -0.2 0.1
v -0.3 -0.2 0.1
v 0.3 -0.2 0.1
v 0.4 -0.2 0.1
v -0.4 -0.2 -0.2
v -0.3 -0.2 -0.2
v -0.2 -0.2 -0.2
v 0.2 -0.2 -0.2
v 0.3 -0.2 -0.2
v 0.4 -0.2 -0.2
v -0.2 -0.2 -0.3
v 0.2 -0.2 -0.3
v -0.2 -0.1 0.2
v -0.1 -0.1 0.2
v 0.1 -0.1 0.2
v 0.2 -0.1 0.2
v -0.3 -0.1 0.1
v -0.2 -0.1 0.1
v -0.1 -0.1 0.1
v 0.1 -0.1 0.1
v 0.2 -0.1 0.1
v 0.3 -0.1 0.1
v -0.3 -0.1 0
v -0.2 -0.1 0
v 0.2 -0.1 0
v 0.3 -0.1 0
v -0.3 -0.1 -0.1
v -0.2 -0.1 -0.1
v 0.2 -0.1 -0.1
v 0.3 -0.1 -0.1
v -0.3 -0.1 -0.2
v -0.2 -0.1 -0.2
v 0.2 -0.1 -0.2
v 0.3 -0.1 -0.2
v -0.2 0 0.1
v -0.1 0 0.1
v 0.1 0 0.1
v 0.2 0 0.1
v -0.2 0 0
v -0.1 0 0
v 0.1 0 0
v 0.2 0 0
v -0.2 0 -0.1
v -0.1 0 -0.1
v 0.1 0 -0.1
v 0.2 0 -0.1
v -0.3 0.1 0.1
v -0.2 0.1 0.1
v 0.2 0.1 0.1
v 0.3 0.1 0.1
v -0.3 0.1 0
v -0.2 0.1 0
v 0.2 0.1 0
v 0.3 0.1 0
v -0.3 0.1 -0.1
v -0.2 0.1 -0.1
v -0.1 0.1 -0.1
v 0.1 0.1 -0.1
v 0.2 0.1 -0.1
v 0.3 0.1 -0.1
v -0.3 0.1 -0.2
v -0.2 0.1 -0.2
v -0.1 0.1 -0.2
v 0.1 0.1 -0.2
v 0.2 0.1 -0.2
v 0.3 0.1 -0.2
v -0.2 -0.1 0.3
v 0.2 -0.1 0.3
v -0.2 -0.1 0.2
v -0.1 -0.1 0.2
v 0.1 -0.1 0.2
v 0.2 -0.1 0.2
v -0.4 -0.1 0.1
v -0.3 -0.1 0.1
v 0.3 -0.1 0.1
v 0.4 -0.1 0.1
v -0.3 -0.1 0
v 0.3 -0.1 0
v -0.3 -0.1 -0.1
v 0.3 -0.1 -0.1
v -0.4 -0.1 -0.2
v -0.3 -0.1 -0.2
v 0.3 -0.1 -0.2
v 0.4 -0.1 -0.2
v -0.2 0 0.2
v -0.1 0 0.2
v 0.1 0 0.2
v 0.2 0 0.2
v -0.3 0 0.1
v -0.2 0 0.1
v -0.1 0 0.1
v 0.1 0 0.1
v 0.2 0 0.1
v 0.3 0 0.1
v -0.3 0 0
v -0.2 0 0
v 0.2 0 0
v 0.3 0 0
v -0.3 0 -0.1
v -0.2 0 -0.1
v -0.1 0 -0.1
v 0.1 0 -0.1
v 0.2 0 -0.1
v 0.3 0 -0.1
v -0.3 0 -0.2
v -0.2 0 -0.2
v -0.1 0 -0.2
v 0.1 0 -0.2
v 0.2 0 -0.2
v 0.3 0 -0.2
v -0.2 0 -0.3
v -0.1 0 -0.3
v 0.1 0 -0.3
v 0.2 0 -0.3
v -0.3 0.2 0.1
v -0.2 0.2 0.1
v 0.2 0.2 0.1
v 0.3 0.2 0.1
v -0.3 0.2 0
v -0.2 0.2 0
v -0.1 0.2 0
v 0.1 0.2 0
v 0.2 0.2 0
v 0.3 0.2 0
v -0.3 0.2 -0.1
v -0.2 0.2 -0.1
v -0.1 0.2 -0.1
v 0.1 0.2 -0.1
v 0.2 0.2 -0.1
v 0.3 0.2 -0.1
v -0.3 0.2 -0.2
v -0.2 0.2 -0.2
v 0.2 0.2 -0.2
v 0.3 0.2 -0.2
v -0.3 0.3 0
v -0.2 0.3 0
v -0.1 0.3 0
v 0.1 0.3 0
v 0.2 0.3 0
v 0.3 0.3 0
v -0.3 0.3 -0.1
v -0.2 0.3 -0.1
v -0.1 0.3 -0.1
v 0.1 0.3 -0.1
v 0.2 0.3 -0.1
v 0.3 0.3 -0.1

# faces
f 3/1/1 2/1/1 1/1/1
f 4/1/1 2/1/1 3/1/1
f 9/1/1 6/1/1 5/1/1
f 10/3/1 7/3/1 6/3/1
f 10/1/1 6/1/1 9/1/1
f 11/1/1 8/1/1 7/1/1
f 11/3/1 7/3/1 10/3/1
f 12/1/1 8/1/1 11/1/1
f 17/1/1 14/1/1 13/1/1
f 18/2/1 15/2/1 14/2/1
f 18/1/1 14/1/1 17/1/1
f 19/1/1 16/1/1 15/1/1
f 19/2/1 15/2/1 18/2/1
f 20/1/1 16/1/1 19/1/1
f 21/1/1 19/1/1 18/1/1
f 22/1/1 19/1/1 21/1/1
f 27/1/1 24/1/1 23/1/1
f 28/1/1 24/1/1 27/1/1
f 30/1/1 26/1/1 25/1/1
f 31/1/1 29/1/1 28/1/1
f 32/1/1 29/1/1 31/1/1
f 35/1/1 26/1/1 30/1/1
f 36/1/1 26/1/1 35/1/1
f 37/1/1 34/1/1 33/1/1
f 37/1/1 33/1/1 32/1/1
f 38/1/1 34/1/1 37/1/1
f 39/1/1 34/1/1 38/1/1
f 42/3/1 41/3/1 40/3/1
f 43/3/1 41/3/1 42/3/1
f 46/1/1 45/1/1 44/1/1
f 47/1/1 45/1/1 46/1/1
f 48/3/1 47/3/1 46/3/1
f 49/3/1 47/3/1 48/3/1
f 50/3/1 49/3/1 48/3/1
f 51/3/1 49/3/1 50/3/1
f 55/1/1 53/1/1 52/1/1
f 56/3/1 54/3/1 53/3/1
f 56/1/1 53/1/1 55/1/1
f 57/3/1 54/3/1 56/3/1
f 60/1/1 59/1/1 58/1/1
f 61/1/1 59/1/1 60/1/1
f 62/1/1 59/1/1 61/1/1
f 63/1/1 59/1/1 62/1/1
f 64/1/2 65/1/2 66/1/2
f 66/1/2 65/1/2 67/1/2
f 67/1/2 65/1/2 68/1/2
f 68/1/2 65/1/2 69/1/2
f 70/1/2 71/1/2 73/1/2
f 71/3/2 72/3/2 74/3/2
f 73/1/2 71/1/2 74/1/2
f 74/3/2 72/3/2 75/3/2
f 76/1/2 77/1/2 78/1/2
f 78/1/2 77/1/2 79/1/2
f 78/3/2 79/3/2 80/3/2
f 80/3/2 79/3/2 81/3/2
f 80/3/2 81/3/2 82/3/2
f 82/3/2 81/3/2 83/3/2
f 84/3/2 85/3/2 86/3/2
f 86/3/2 85/3/2 87/3/2
f 88/1/2 89/1/2 92/1/2
f 92/1/2 89/1/2 93/1/2
f 90/1/2 91/1/2 95/1/2
f 93/1/2 94/1/2 96/1/2
f 96/1/2 94/1/2 97/1/2
f 95/1/2 91/1/2 100/1/2
f 100/1/2 91/1/2 101/1/2
f 98/1/2 99/1/2 102/1/2
f 97/1/2 98/1/2 102/1/2
f 102/1/2 99/1/2 103/1/2
f 103/1/2 99/1/2 104/1/2
f 105/1/2 106/1/2 109/1/2
f 106/3/2 107/3/2 110/3/2
f 109/1/2 106/1/2 110/1/2
f 107/1/2 108/1/2 111/1/2
f 110/3/2 107/3/2 111/3/2
f 111/1/2 108/1/2 112/1/2
f 113/1/2 114/1/2 117/1/2
f 114/2/2 115/2/2 118/2/2
f 117/1/2 114/1/2 118/1/2
f 115/1/2 116/1/2 119/1/2
f 118/2/2 115/2/2 119/2/2
f 119/1/2 116/1/2 120/1/2
f 118/1/2 119/1/2 121/1/2
f 121/1/2 119/1/2 122/1/2
f 123/1/2 124/1/2 125/1/2
f 125/1/2 124/1/2 126/1/2
f 129/1/3 128/1/3 127/1/3
f 130/1/3 128/1/3 129/1/3
f 133/1/3 132/1/3 131/1/3
f 134/1/3 132/1/3 133/1/3
f 135/3/3 134/3/3 133/3/3
f 136/3/3 134/3/3 135/3/3
f 137/1/3 136/1/3 135/1/3
f 138/1/3 136/1/3 137/1/3
f 141/1/3 140/1/3 139/1/3
f 142/1/3 140/1/3 141/1/3
f 146/1/3 143/1/3 142/1/3
f 147/1/3 143/1/3 146/1/3
f 148/1/3 145/1/3 144/1/3
f 149/1/3 145/1/3 148/1/3
f 150/1/3 148/1/3 147/1/3
f 151/1/3 148/1/3 150/1/3
f 153/1/3 148/1/3 151/1/3
f 154/3/3 149/3/3 148/3/3
f 154/1/3 148/1/3 153/1/3
f 155/3/3 149/3/3 154/3/3
f 157/1/3 153/1/3 152/1/3
f 158/1/3 153/1/3 157/1/3
f 159/1/3 155/1/3 154/1/3
f 160/1/3 155/1/3 159/1/3
f 161/1/3 157/1/3 156/1/3
f 162/1/3 157/1/3 161/1/3
f 165/1/3 164/1/3 163/1/3
f 166/1/3 164/1/3 165/1/3
f 167/3/3 166/3/3 165/3/3
f 168/3/3 166/3/3 167/3/3
f 171/3/3 170/3/3 169/3/3
f 172/3/3 170/3/3 171/3/3
f 173/1/3 172/1/3 171/1/3
f 174/1/3 172/1/3 173/1/3
f 177/1/3 176/1/3 175/1/3
f 180/1/3 177/1/3 175/1/3
f 180/3/3 179/3/3 178/3/3
f 180/3/3 178/3/3 177/3/3
f 181/3/3 179/3/3 180/3/3
f 182/3/3 179/3/3 181/3/3
f 183/1/3 180/1/3 175/1/3
f 184/1/3 180/1/3 183/1/3
f 187/1/3 186/1/3 185/1/3
f 188/1/3 186/1/3 187/1/3
f 189/1/4 190/1/4 191/1/4
f 189/1/4 191/1/4 192/1/4
f 189/1/4 192/1/4 193/1/4
f 193/1/4 192/1/4 194/1/4
f 195/1/4 196/1/4 197/1/4
f 197/1/4 196/1/4 198/1/4
f 197/3/4 198/3/4 199/3/4
f 199/3/4 198/3/4 200/3/4
f 199/1/4 200/1/4 201/1/4
f 201/1/4 200/1/4 202/1/4
f 203/1/4 204/1/4 206/1/4
f 204/3/4 205/3/4 207/3/4
f 206/1/4 204/1/4 207/1/4
f 207/3/4 205/3/4 208/3/4
f 209/1/4 210/1/4 213/1/4
f 213/1/4 210/1/4 214/1/4
f 211/1/4 212/1/4 215/1/4
f 215/1/4 212/1/4 216/1/4
f 213/3/4 214/3/4 217/3/4
f 217/3/4 214/3/4 218/3/4
f 219/1/4 220/1/4 223/1/4
f 223/1/4 220/1/4 224/1/4
f 221/3/4 222/3/4 225/3/4
f 225/3/4 222/3/4 226/3/4
f 225/1/4 226/1/4 227/1/4
f 227/1/4 226/1/4 228/1/4
f 229/1/4 230/1/4 231/1/4
f 231/1/4 230/1/4 232/1/4
f 232/1/4 233/1/4 236/1/4
f 236/1/4 233/1/4 237/1/4
f 234/1/4 235/1/4 238/1/4
f 238/1/4 235/1/4 239/1/4
f 238/3/4 239/3/4 241/3/4
f 240/3/4 241/3/4 242/3/4
f 241/3/4 239/3/4 243/3/4
f 242/3/4 241/3/4 243/3/4
f 243/3/4 239/3/4 246/3/4
f 246/3/4 239/3/4 247/3/4
f 244/1/4 245/1/4 249/1/4
f 249/1/4 245/1/4 250/1/4
f 246/1/4 247/1/4 251/1/4
f 251/1/4 247/1/4 252/1/4
f 248/1/4 249/1/4 253/1/4
f 253/1/4 249/1/4 254/1/4
f 255/1/4 256/1/4 257/1/4
f 257/1/4 256/1/4 258/1/4
f 255/1/4 257/1/4 259/1/4
f 257/3/4 258/3/4 259/3/4
f 259/3/4 258/3/4 260/3/4
f 255/1/4 259/1/4 261/1/4
f 259/1/4 260/1/4 261/1/4
f 261/1/4 260/1/4 262/1/4
f 265/1/5 264/1/5 263/1/5
f 266/1/5 264/1/5 265/1/5
f 271/1/5 268/1/5 267/1/5
f 272/1/5 268/1/5 271/1/5
f 275/1/5 270/1/5 269/1/5
f 276/1/5 270/1/5 275/1/5
f 277/1/5 274/1/5 273/1/5
f 278/1/5 274/1/5 277/1/5
f 284/1/5 280/1/5 279/1/5
f 285/3/5 281/3/5 280/3/5
f 285/1/5 280/1/5 284/1/5
f 286/1/5 282/1/5 281/1/5
f 286/3/5 281/3/5 285/3/5
f 287/1/5 282/1/5 286/1/5
f 289/1/5 284/1/5 283/1/5
f 290/1/5 284/1/5 289/1/5
f 291/1/5 288/1/5 287/1/5
f 292/1/5 288/1/5 291/1/5
f 293/3/5 290/3/5 289/3/5
f 294/3/5 290/3/5 293/3/5
f 295/3/5 292/3/5 291/3/5
f 296/3/5 292/3/5 295/3/5
f 297/1/5 294/1/5 293/1/5
f 297/1/5 295/1/5 294/1/5
f 297/1/5 296/1/5 295/1/5
f 298/1/5 296/1/5 297/1/5
f 299/1/5 296/1/5 298/1/5
f 300/1/5 296/1/5 299/1/5
f 305/1/5 302/1/5 301/1/5
f 305/1/5 304/1/5 303/1/5
f 305/1/5 303/1/5 302/1/5
f 306/1/5 304/1/5 305/1/5
f 307/1/5 304/1/5 306/1/5
f 308/1/5 304/1/5 307/1/5
f 309/1/5 306/1/5 305/1/5
f 310/1/5 306/1/5 309/1/5
f 311/1/5 308/1/5 307/1/5
f 312/1/5 308/1/5 311/1/5
f 317/1/5 314/1/5 313/1/5
f 318/1/5 314/1/5 317/1/5
f 319/1/5 316/1/5 315/1/5
f 320/1/5 316/1/5 319/1/5
f 321/2/5 318/2/5 317/2/5
f 322/2/5 318/2/5 321/2/5
f 325/2/5 320/2/5 319/2/5
f 326/2/5 320/2/5 325/2/5
f 327/1/5 322/1/5 321/1/5
f 328/3/5 323/3/5 322/3/5
f 328/1/5 322/1/5 327/1/5
f 329/3/5 323/3/5 328/3/5
f 330/3/5 325/3/5 324/3/5
f 331/1/5 326/1/5 325/1/5
f 331/3/5 325/3/5 330/3/5
f 332/1/5 326/1/5 331/1/5
f 333/1/6 334/1/6 335/1/6
f 335/1/6 334/1/6 336/1/6
f 336/1/6 334/1/6 337/1/6
f 337/1/6 334/1/6 338/1/6
f 339/1/6 340/1/6 343/1/6
f 341/1/6 342/1/6 344/1/6
f 339/1/6 343/1/6 345/1/6
f 344/1/6 342/1/6 346/1/6
f 339/1/6 345/1/6 347/1/6
f 347/1/6 345/1/6 348/1/6
f 346/1/6 342/1/6 349/1/6
f 349/1/6 342/1/6 350/1/6
f 351/1/6 352/1/6 356/1/6
f 352/3/6 353/3/6 357/3/6
f 356/1/6 352/1/6 357/1/6
f 353/1/6 354/1/6 358/1/6
f 357/3/6 353/3/6 358/3/6
f 358/1/6 354/1/6 359/1/6
f 355/1/6 356/1/6 361/1/6
f 361/1/6 356/1/6 362/1/6
f 359/1/6 360/1/6 363/1/6
f 363/1/6 360/1/6 364/1/6
f 361/3/6 362/3/6 365/3/6
f 365/3/6 362/3/6 366/3/6
f 363/3/6 364/3/6 369/3/6
f 369/3/6 364/3/6 370/3/6
f 366/1/6 367/1/6 371/1/6
f 365/1/6 366/1/6 371/1/6
f 371/1/6 367/1/6 372/1/6
f 372/1/6 367/1/6 373/1/6
f 369/1/6 370/1/6 374/1/6
f 368/1/6 369/1/6 374/1/6
f 374/1/6 370/1/6 375/1/6
f 375/1/6 370/1/6 376/1/6
f 372/1/6 373/1/6 377/1/6
f 373/3/6 374/3/6 378/3/6
f 377/1/6 373/1/6 378/1/6
f 374/1/6 375/1/6 379/1/6
f 378/3/6 374/3/6 379/3/6
f 379/1/6 375/1/6 380/1/6
f 381/1/6 382/1/6 385/1/6
f 382/3/6 383/3/6 386/3/6
f 385/1/6 382/1/6 386/1/6
f 386/3/6 383/3/6 387/3/6
f 387/3/6 383/3/6 388/3/6
f 383/1/6 384/1/6 389/1/6
f 388/3/6 383/3/6 389/3/6
f 389/1/6 384/1/6 390/1/6
f 391/1/6 392/1/6 397/1/6
f 392/3/6 393/3/6 398/3/6
f 397/1/6 392/1/6 398/1/6
f 393/3/6 394/3/6 398/3/6
f 394/3/6 395/3/6 398/3/6
f 395/1/6 396/1/6 399/1/6
f 398/3/6 395/3/6 399/3/6
f 399/1/6 396/1/6 400/1/6
f 401/1/6 402/1/6 407/1/6
f 402/3/6 403/3/6 408/3/6
f 407/1/6 402/1/6 408/1/6
f 408/3/6 403/3/6 409/3/6
f 404/3/6 405/3/6 410/3/6
f 405/1/6 406/1/6 411/1/6
f 410/3/6 405/3/6 411/3/6
f 411/1/6 406/1/6 412/1/6
