# MagicaVoxel @ Ephtracy

# group
o 

# material
mtllib cubeland1-22.mtl
usemtl palette

# normals
vn -1 0 0
vn 1 0 0
vn 0 0 1
vn 0 0 -1
vn 0 -1 0
vn 0 1 0

# texcoords
vt 0.00195312 0.5
vt 0.0292969 0.5
vt 0.0410156 0.5
vt 0.0527344 0.5

# verts
v -0.5 -0.3 0.2
v -0.5 -0.3 -0.2
v -0.5 -0.2 0.2
v -0.5 -0.2 -0.2
v -0.4 -0.3 0.3
v -0.4 -0.3 0.2
v -0.4 -0.3 -0.2
v -0.4 -0.3 -0.3
v -0.4 -0.2 0.3
v -0.4 -0.2 0.2
v -0.4 -0.2 0.1
v -0.4 -0.2 -0.2
v -0.4 -0.2 -0.3
v -0.4 -0.1 0.2
v -0.4 -0.1 0.1
v -0.4 -0.1 -0.2
v -0.4 0.1 0.1
v -0.4 0.1 0
v -0.4 0.2 0.1
v -0.4 0.2 0
v -0.3 -0.3 0.4
v -0.3 -0.3 0.3
v -0.3 -0.3 -0.3
v -0.3 -0.3 -0.4
v -0.3 -0.2 0.4
v -0.3 -0.2 0.3
v -0.3 -0.2 0.2
v -0.3 -0.2 -0.2
v -0.3 -0.2 -0.3
v -0.3 -0.2 -0.4
v -0.3 -0.1 0.3
v -0.3 -0.1 0.2
v -0.3 -0.1 0.1
v -0.3 -0.1 0
v -0.3 -0.1 -0.1
v -0.3 -0.1 -0.2
v -0.3 -0.1 -0.3
v -0.3 -0.1 -0.4
v -0.3 0 0.2
v -0.3 0 0.1
v -0.3 0 0
v -0.3 0 -0.1
v -0.3 0 -0.2
v -0.3 0.1 0.1
v -0.3 0.1 0
v -0.2 -0.1 0.3
v -0.2 -0.1 0.2
v -0.2 -0.1 -0.2
v -0.2 -0.1 -0.3
v -0.2 0 0.3
v -0.2 0 0.2
v -0.2 0 0
v -0.2 0 -0.1
v -0.2 0 -0.2
v -0.2 0 -0.3
v -0.2 0.1 0
v -0.2 0.1 -0.1
v -0.1 0 0.2
v -0.1 0 0.1
v -0.1 0 -0.1
v -0.1 0 -0.2
v -0.1 0.1 0.2
v -0.1 0.1 0.1
v -0.1 0.1 -0.1
v -0.1 0.1 -0.2
v 0.3 0 0
v 0.3 0 -0.1
v 0.3 0.1 0
v 0.3 0.1 -0.1
v -0.3 0.1 0.1
v -0.3 0.1 0
v -0.3 0.2 0.1
v -0.3 0.2 0
v -0.2 -0.2 -0.3
v -0.2 -0.2 -0.4
v -0.2 -0.1 -0.3
v -0.2 -0.1 -0.4
v 0.1 0 0.2
v 0.1 0 0.1
v 0.1 0 -0.1
v 0.1 0 -0.2
v 0.1 0.1 0.2
v 0.1 0.1 0.1
v 0.1 0.1 -0.1
v 0.1 0.1 -0.2
v 0.2 -0.1 0.3
v 0.2 -0.1 0.2
v 0.2 -0.1 -0.2
v 0.2 -0.1 -0.3
v 0.2 0 0.3
v 0.2 0 0.2
v 0.2 0 0.1
v 0.2 0 0
v 0.2 0 -0.1
v 0.2 0 -0.2
v 0.2 0 -0.3
v 0.2 0.1 0.1
v 0.2 0.1 0
v 0.2 0.1 -0.1
v 0.3 -0.3 0.4
v 0.3 -0.3 0.3
v 0.3 -0.3 -0.3
v 0.3 -0.3 -0.4
v 0.3 -0.2 0.4
v 0.3 -0.2 0.3
v 0.3 -0.2 0.2
v 0.3 -0.2 -0.2
v 0.3 -0.2 -0.3
v 0.3 -0.2 -0.4
v 0.3 -0.1 0.3
v 0.3 -0.1 0.2
v 0.3 -0.1 0
v 0.3 -0.1 -0.1
v 0.3 -0.1 -0.2
v 0.3 -0.1 -0.3
v 0.3 0 0.2
v 0.3 0 0
v 0.3 0 -0.1
v 0.3 0 -0.2
v 0.4 -0.3 0.3
v 0.4 -0.3 0.2
v 0.4 -0.3 -0.2
v 0.4 -0.3 -0.3
v 0.4 -0.2 0.3
v 0.4 -0.2 0.2
v 0.4 -0.2 -0.2
v 0.4 -0.2 -0.3
v 0.4 -0.1 0.2
v 0.4 -0.1 0
v 0.4 -0.1 -0.1
v 0.4 -0.1 -0.2
v 0.4 0.1 0
v 0.4 0.1 -0.1
v 0.5 -0.3 0.2
v 0.5 -0.3 -0.2
v 0.5 -0.2 0.2
v 0.5 -0.2 -0.2
v -0.3 -0.3 0.4
v -0.3 -0.2 0.4
v 0.3 -0.3 0.4
v 0.3 -0.2 0.4
v -0.4 -0.3 0.3
v -0.4 -0.2 0.3
v -0.3 -0.3 0.3
v -0.3 -0.2 0.3
v -0.3 -0.1 0.3
v -0.2 -0.1 0.3
v -0.2 0 0.3
v -0.1 -0.1 0.3
v -0.1 0 0.3
v 0.2 -0.2 0.3
v 0.2 -0.1 0.3
v 0.2 0 0.3
v 0.3 -0.3 0.3
v 0.3 -0.2 0.3
v 0.3 -0.1 0.3
v 0.4 -0.3 0.3
v 0.4 -0.2 0.3
v -0.5 -0.3 0.2
v -0.5 -0.2 0.2
v -0.4 -0.3 0.2
v -0.4 -0.2 0.2
v -0.4 -0.1 0.2
v -0.3 -0.2 0.2
v -0.3 -0.1 0.2
v -0.3 0 0.2
v -0.2 -0.1 0.2
v -0.2 0 0.2
v -0.1 0 0.2
v -0.1 0.1 0.2
v 0.1 0 0.2
v 0.1 0.1 0.2
v 0.2 -0.1 0.2
v 0.2 0 0.2
v 0.3 -0.2 0.2
v 0.3 -0.1 0.2
v 0.3 0 0.2
v 0.4 -0.3 0.2
v 0.4 -0.2 0.2
v 0.4 -0.1 0.2
v 0.5 -0.3 0.2
v 0.5 -0.2 0.2
v -0.4 0.1 0.1
v -0.4 0.2 0.1
v -0.3 0 0.1
v -0.3 0.1 0.1
v -0.3 0.2 0.1
v -0.2 0 0.1
v -0.2 0.1 0.1
v -0.1 0 0.1
v -0.1 0.1 0.1
v 0.1 0 0.1
v 0.1 0.1 0.1
v 0.2 0 0.1
v 0.2 0.1 0.1
v 0.3 -0.1 0
v 0.3 0 0
v 0.3 0.1 0
v 0.4 -0.1 0
v 0.4 0.1 0
v -0.4 0.1 0
v -0.4 0.2 0
v -0.3 0 0
v -0.3 0.1 0
v -0.3 0.2 0
v -0.2 0 0
v -0.2 0.1 0
v -0.2 0 -0.1
v -0.2 0.1 -0.1
v -0.1 0 -0.1
v -0.1 0.1 -0.1
v 0.1 0 -0.1
v 0.1 0.1 -0.1
v 0.2 0 -0.1
v 0.2 0.1 -0.1
v 0.3 -0.1 -0.1
v 0.3 0 -0.1
v 0.3 0.1 -0.1
v 0.4 -0.1 -0.1
v 0.4 0.1 -0.1
v -0.5 -0.3 -0.2
v -0.5 -0.2 -0.2
v -0.4 -0.3 -0.2
v -0.4 -0.2 -0.2
v -0.4 -0.1 -0.2
v -0.3 -0.2 -0.2
v -0.3 -0.1 -0.2
v -0.3 0 -0.2
v -0.2 -0.1 -0.2
v -0.2 0 -0.2
v -0.1 0 -0.2
v -0.1 0.1 -0.2
v 0.1 0 -0.2
v 0.1 0.1 -0.2
v 0.2 -0.1 -0.2
v 0.2 0 -0.2
v 0.3 -0.2 -0.2
v 0.3 -0.1 -0.2
v 0.3 0 -0.2
v 0.4 -0.3 -0.2
v 0.4 -0.2 -0.2
v 0.4 -0.1 -0.2
v 0.5 -0.3 -0.2
v 0.5 -0.2 -0.2
v -0.4 -0.3 -0.3
v -0.4 -0.2 -0.3
v -0.3 -0.3 -0.3
v -0.3 -0.2 -0.3
v -0.2 -0.2 -0.3
v -0.2 -0.1 -0.3
v -0.2 0 -0.3
v -0.1 -0.1 -0.3
v -0.1 0 -0.3
v 0.2 -0.1 -0.3
v 0.2 0 -0.3
v 0.3 -0.3 -0.3
v 0.3 -0.2 -0.3
v 0.3 -0.1 -0.3
v 0.4 -0.3 -0.3
v 0.4 -0.2 -0.3
v -0.3 -0.3 -0.4
v -0.3 -0.2 -0.4
v -0.3 -0.1 -0.4
v -0.2 -0.2 -0.4
v -0.2 -0.1 -0.4
v 0.3 -0.3 -0.4
v 0.3 -0.2 -0.4
v -0.3 -0.3 0.4
v 0.3 -0.3 0.4
v -0.4 -0.3 0.3
v -0.3 -0.3 0.3
v 0.3 -0.3 0.3
v 0.4 -0.3 0.3
v -0.5 -0.3 0.2
v -0.4 -0.3 0.2
v 0.4 -0.3 0.2
v 0.5 -0.3 0.2
v -0.5 -0.3 -0.2
v -0.4 -0.3 -0.2
v 0.4 -0.3 -0.2
v 0.5 -0.3 -0.2
v -0.4 -0.3 -0.3
v -0.3 -0.3 -0.3
v 0.3 -0.3 -0.3
v 0.4 -0.3 -0.3
v -0.3 -0.3 -0.4
v 0.3 -0.3 -0.4
v -0.4 0.1 0.1
v -0.3 0.1 0.1
v -0.4 0.1 0
v -0.3 0.1 0
v -0.3 -0.2 0.4
v 0.3 -0.2 0.4
v -0.4 -0.2 0.3
v -0.3 -0.2 0.3
v 0.2 -0.2 0.3
v 0.3 -0.2 0.3
v 0.4 -0.2 0.3
v -0.5 -0.2 0.2
v -0.4 -0.2 0.2
v -0.3 -0.2 0.2
v 0.3 -0.2 0.2
v 0.4 -0.2 0.2
v 0.5 -0.2 0.2
v -0.4 -0.2 0.1
v -0.5 -0.2 -0.2
v -0.4 -0.2 -0.2
v -0.3 -0.2 -0.2
v 0.3 -0.2 -0.2
v 0.4 -0.2 -0.2
v 0.5 -0.2 -0.2
v -0.4 -0.2 -0.3
v -0.3 -0.2 -0.3
v -0.2 -0.2 -0.3
v 0.3 -0.2 -0.3
v 0.4 -0.2 -0.3
v -0.2 -0.2 -0.4
v 0.3 -0.2 -0.4
v -0.3 -0.1 0.3
v -0.2 -0.1 0.3
v 0.2 -0.1 0.3
v 0.3 -0.1 0.3
v -0.4 -0.1 0.2
v -0.3 -0.1 0.2
v -0.2 -0.1 0.2
v 0.2 -0.1 0.2
v 0.3 -0.1 0.2
v 0.4 -0.1 0.2
v -0.4 -0.1 0.1
v -0.3 -0.1 0.1
v -0.3 -0.1 0
v 0.3 -0.1 0
v 0.4 -0.1 0
v -0.3 -0.1 -0.1
v 0.3 -0.1 -0.1
v 0.4 -0.1 -0.1
v -0.4 -0.1 -0.2
v -0.3 -0.1 -0.2
v -0.2 -0.1 -0.2
v 0.2 -0.1 -0.2
v 0.3 -0.1 -0.2
v 0.4 -0.1 -0.2
v -0.3 -0.1 -0.3
v -0.2 -0.1 -0.3
v 0.2 -0.1 -0.3
v 0.3 -0.1 -0.3
v -0.3 -0.1 -0.4
v -0.2 -0.1 -0.4
v -0.2 0 0.3
v -0.1 0 0.3
v 0.2 0 0.3
v -0.3 0 0.2
v -0.2 0 0.2
v -0.1 0 0.2
v 0.1 0 0.2
v 0.2 0 0.2
v 0.3 0 0.2
v -0.3 0 0.1
v -0.2 0 0.1
v -0.1 0 0.1
v 0.1 0 0.1
v 0.2 0 0.1
v -0.3 0 0
v -0.2 0 0
v 0.2 0 0
v 0.3 0 0
v -0.3 0 -0.1
v -0.2 0 -0.1
v -0.1 0 -0.1
v 0.1 0 -0.1
v 0.2 0 -0.1
v 0.3 0 -0.1
v -0.3 0 -0.2
v -0.2 0 -0.2
v -0.1 0 -0.2
v 0.1 0 -0.2
v 0.2 0 -0.2
v 0.3 0 -0.2
v -0.2 0 -0.3
v -0.1 0 -0.3
v 0.2 0 -0.3
v -0.1 0.1 0.2
v 0.1 0.1 0.2
v -0.3 0.1 0.1
v -0.2 0.1 0.1
v -0.1 0.1 0.1
v 0.1 0.1 0.1
v 0.2 0.1 0.1
v -0.3 0.1 0
v -0.2 0.1 0
v -0.1 0.1 0
v 0.1 0.1 0
v 0.2 0.1 0
v 0.3 0.1 0
v 0.4 0.1 0
v -0.2 0.1 -0.1
v -0.1 0.1 -0.1
v 0.1 0.1 -0.1
v 0.2 0.1 -0.1
v 0.3 0.1 -0.1
v 0.4 0.1 -0.1
v -0.1 0.1 -0.2
v 0.1 0.1 -0.2
v -0.4 0.2 0.1
v -0.3 0.2 0.1
v -0.4 0.2 0
v -0.3 0.2 0

# faces
f 3/3/1 2/3/1 1/3/1
f 4/3/1 2/3/1 3/3/1
f 9/3/1 6/3/1 5/3/1
f 10/3/1 6/3/1 9/3/1
f 12/3/1 8/3/1 7/3/1
f 13/3/1 8/3/1 12/3/1
f 14/2/1 11/2/1 10/2/1
f 15/1/1 12/1/1 11/1/1
f 15/2/1 11/2/1 14/2/1
f 16/1/1 12/1/1 15/1/1
f 19/4/1 18/4/1 17/4/1
f 20/4/1 18/4/1 19/4/1
f 25/3/1 22/3/1 21/3/1
f 26/3/1 22/3/1 25/3/1
f 29/3/1 24/3/1 23/3/1
f 30/3/1 24/3/1 29/3/1
f 31/1/1 27/1/1 26/1/1
f 32/1/1 27/1/1 31/1/1
f 36/1/1 29/1/1 28/1/1
f 37/4/1 30/4/1 29/4/1
f 37/1/1 29/1/1 36/1/1
f 38/4/1 30/4/1 37/4/1
f 39/2/1 33/2/1 32/2/1
f 40/4/1 34/4/1 33/4/1
f 40/2/1 33/2/1 39/2/1
f 41/1/1 35/1/1 34/1/1
f 41/4/1 34/4/1 40/4/1
f 42/2/1 36/2/1 35/2/1
f 42/1/1 35/1/1 41/1/1
f 43/2/1 36/2/1 42/2/1
f 44/4/1 41/4/1 40/4/1
f 45/4/1 41/4/1 44/4/1
f 50/2/1 47/2/1 46/2/1
f 51/2/1 47/2/1 50/2/1
f 54/1/1 49/1/1 48/1/1
f 55/1/1 49/1/1 54/1/1
f 56/1/1 53/1/1 52/1/1
f 57/1/1 53/1/1 56/1/1
f 62/2/1 59/2/1 58/2/1
f 63/2/1 59/2/1 62/2/1
f 64/1/1 61/1/1 60/1/1
f 65/1/1 61/1/1 64/1/1
f 68/4/1 67/4/1 66/4/1
f 69/4/1 67/4/1 68/4/1
f 70/4/2 71/4/2 72/4/2
f 72/4/2 71/4/2 73/4/2
f 74/4/2 75/4/2 76/4/2
f 76/4/2 75/4/2 77/4/2
f 78/2/2 79/2/2 82/2/2
f 82/2/2 79/2/2 83/2/2
f 80/1/2 81/1/2 84/1/2
f 84/1/2 81/1/2 85/1/2
f 86/1/2 87/1/2 90/1/2
f 90/1/2 87/1/2 91/1/2
f 88/2/2 89/2/2 95/2/2
f 95/2/2 89/2/2 96/2/2
f 92/1/2 93/1/2 97/1/2
f 93/2/2 94/2/2 98/2/2
f 97/1/2 93/1/2 98/1/2
f 98/2/2 94/2/2 99/2/2
f 100/3/2 101/3/2 104/3/2
f 104/3/2 101/3/2 105/3/2
f 102/3/2 103/3/2 108/3/2
f 108/3/2 103/3/2 109/3/2
f 105/4/2 106/4/2 110/4/2
f 110/4/2 106/4/2 111/4/2
f 107/1/2 108/1/2 114/1/2
f 114/1/2 108/1/2 115/1/2
f 111/2/2 112/2/2 116/2/2
f 116/2/2 112/2/2 117/2/2
f 113/2/2 114/2/2 118/2/2
f 118/2/2 114/2/2 119/2/2
f 120/3/2 121/3/2 124/3/2
f 124/3/2 121/3/2 125/3/2
f 122/3/2 123/3/2 126/3/2
f 126/3/2 123/3/2 127/3/2
f 125/1/2 126/1/2 128/1/2
f 128/1/2 126/1/2 129/1/2
f 129/1/2 126/1/2 130/1/2
f 130/1/2 126/1/2 131/1/2
f 129/4/2 130/4/2 132/4/2
f 132/4/2 130/4/2 133/4/2
f 134/3/2 135/3/2 136/3/2
f 136/3/2 135/3/2 137/3/2
f 140/3/3 139/3/3 138/3/3
f 141/3/3 139/3/3 140/3/3
f 144/3/3 143/3/3 142/3/3
f 145/3/3 143/3/3 144/3/3
f 147/1/3 146/1/3 145/1/3
f 149/1/3 147/1/3 145/1/3
f 149/2/3 148/2/3 147/2/3
f 150/2/3 148/2/3 149/2/3
f 151/1/3 149/1/3 145/1/3
f 151/1/3 150/1/3 149/1/3
f 152/1/3 150/1/3 151/1/3
f 153/1/3 150/1/3 152/1/3
f 155/4/3 152/4/3 151/4/3
f 156/4/3 152/4/3 155/4/3
f 157/3/3 155/3/3 154/3/3
f 158/3/3 155/3/3 157/3/3
f 161/3/3 160/3/3 159/3/3
f 162/3/3 160/3/3 161/3/3
f 164/2/3 163/2/3 162/2/3
f 165/2/3 163/2/3 164/2/3
f 167/2/3 166/2/3 165/2/3
f 168/2/3 166/2/3 167/2/3
f 171/2/3 170/2/3 169/2/3
f 172/2/3 170/2/3 171/2/3
f 176/2/3 174/2/3 173/2/3
f 177/2/3 174/2/3 176/2/3
f 179/1/3 176/1/3 175/1/3
f 180/1/3 176/1/3 179/1/3
f 181/3/3 179/3/3 178/3/3
f 182/3/3 179/3/3 181/3/3
f 186/4/3 184/4/3 183/4/3
f 187/4/3 184/4/3 186/4/3
f 188/4/3 186/4/3 185/4/3
f 189/4/3 186/4/3 188/4/3
f 190/2/3 189/2/3 188/2/3
f 191/2/3 189/2/3 190/2/3
f 194/1/3 193/1/3 192/1/3
f 195/1/3 193/1/3 194/1/3
f 199/4/3 197/4/3 196/4/3
f 199/4/3 198/4/3 197/4/3
f 200/4/3 198/4/3 199/4/3
f 201/4/4 202/4/4 204/4/4
f 204/4/4 202/4/4 205/4/4
f 203/4/4 204/4/4 206/4/4
f 206/4/4 204/4/4 207/4/4
f 208/1/4 209/1/4 210/1/4
f 210/1/4 209/1/4 211/1/4
f 212/2/4 213/2/4 214/2/4
f 214/2/4 213/2/4 215/2/4
f 216/4/4 217/4/4 219/4/4
f 217/4/4 218/4/4 219/4/4
f 219/4/4 218/4/4 220/4/4
f 221/3/4 222/3/4 223/3/4
f 223/3/4 222/3/4 224/3/4
f 224/1/4 225/1/4 226/1/4
f 226/1/4 225/1/4 227/1/4
f 227/2/4 228/2/4 229/2/4
f 229/2/4 228/2/4 230/2/4
f 231/1/4 232/1/4 233/1/4
f 233/1/4 232/1/4 234/1/4
f 235/2/4 236/2/4 238/2/4
f 238/2/4 236/2/4 239/2/4
f 237/1/4 238/1/4 241/1/4
f 241/1/4 238/1/4 242/1/4
f 240/3/4 241/3/4 243/3/4
f 243/3/4 241/3/4 244/3/4
f 245/3/4 246/3/4 247/3/4
f 247/3/4 246/3/4 248/3/4
f 249/1/4 250/1/4 252/1/4
f 250/1/4 251/1/4 252/1/4
f 252/1/4 251/1/4 253/1/4
f 249/1/4 252/1/4 254/1/4
f 252/2/4 253/2/4 254/2/4
f 254/2/4 253/2/4 255/2/4
f 249/1/4 254/1/4 257/1/4
f 257/1/4 254/1/4 258/1/4
f 256/3/4 257/3/4 259/3/4
f 259/3/4 257/3/4 260/3/4
f 261/3/4 262/3/4 264/3/4
f 262/4/4 263/4/4 264/4/4
f 264/4/4 263/4/4 265/4/4
f 261/3/4 264/3/4 266/3/4
f 266/3/4 264/3/4 267/3/4
f 271/3/5 269/3/5 268/3/5
f 272/3/5 269/3/5 271/3/5
f 275/3/5 271/3/5 270/3/5
f 275/3/5 273/3/5 272/3/5
f 275/3/5 272/3/5 271/3/5
f 276/3/5 273/3/5 275/3/5
f 278/3/5 275/3/5 274/3/5
f 278/3/5 277/3/5 276/3/5
f 278/3/5 276/3/5 275/3/5
f 279/3/5 277/3/5 278/3/5
f 280/3/5 277/3/5 279/3/5
f 281/3/5 277/3/5 280/3/5
f 282/3/5 280/3/5 279/3/5
f 283/3/5 280/3/5 282/3/5
f 284/3/5 280/3/5 283/3/5
f 285/3/5 280/3/5 284/3/5
f 286/3/5 284/3/5 283/3/5
f 287/3/5 284/3/5 286/3/5
f 290/4/5 289/4/5 288/4/5
f 291/4/5 289/4/5 290/4/5
f 292/3/6 293/3/6 295/3/6
f 295/3/6 293/3/6 296/3/6
f 296/3/6 293/3/6 297/3/6
f 294/3/6 295/3/6 300/3/6
f 300/3/6 295/3/6 301/3/6
f 297/3/6 298/3/6 302/3/6
f 302/3/6 298/3/6 303/3/6
f 299/3/6 300/3/6 305/3/6
f 299/3/6 305/3/6 306/3/6
f 306/3/6 305/3/6 307/3/6
f 303/3/6 304/3/6 310/3/6
f 310/3/6 304/3/6 311/3/6
f 307/3/6 308/3/6 312/3/6
f 312/3/6 308/3/6 313/3/6
f 309/3/6 310/3/6 315/3/6
f 315/3/6 310/3/6 316/3/6
f 314/3/6 315/3/6 317/3/6
f 317/3/6 315/3/6 318/3/6
f 319/1/6 320/1/6 324/1/6
f 324/1/6 320/1/6 325/1/6
f 321/4/6 322/4/6 326/4/6
f 326/4/6 322/4/6 327/4/6
f 323/2/6 324/2/6 329/2/6
f 329/2/6 324/2/6 330/2/6
f 329/1/6 330/1/6 331/1/6
f 327/1/6 328/1/6 332/1/6
f 332/1/6 328/1/6 333/1/6
f 329/1/6 331/1/6 334/1/6
f 329/1/6 334/1/6 337/1/6
f 337/1/6 334/1/6 338/1/6
f 335/1/6 336/1/6 341/1/6
f 341/1/6 336/1/6 342/1/6
f 338/1/6 339/1/6 343/1/6
f 343/1/6 339/1/6 344/1/6
f 340/1/6 341/1/6 345/1/6
f 345/1/6 341/1/6 346/1/6
f 343/4/6 344/4/6 347/4/6
f 347/4/6 344/4/6 348/4/6
f 349/2/6 350/2/6 353/2/6
f 350/1/6 351/1/6 354/1/6
f 353/2/6 350/2/6 354/2/6
f 354/1/6 351/1/6 355/1/6
f 355/1/6 351/1/6 356/1/6
f 352/2/6 353/2/6 358/2/6
f 353/1/6 354/1/6 359/1/6
f 358/2/6 353/2/6 359/2/6
f 359/1/6 354/1/6 360/1/6
f 355/1/6 356/1/6 361/1/6
f 356/2/6 357/2/6 362/2/6
f 361/1/6 356/1/6 362/1/6
f 362/2/6 357/2/6 365/2/6
f 365/2/6 357/2/6 366/2/6
f 363/1/6 364/1/6 367/1/6
f 367/1/6 364/1/6 368/1/6
f 365/4/6 366/4/6 371/4/6
f 371/4/6 366/4/6 372/4/6
f 367/2/6 368/2/6 373/2/6
f 368/1/6 369/1/6 374/1/6
f 373/2/6 368/2/6 374/2/6
f 374/1/6 369/1/6 375/1/6
f 370/1/6 371/1/6 376/1/6
f 371/2/6 372/2/6 377/2/6
f 376/1/6 371/1/6 377/1/6
f 377/2/6 372/2/6 378/2/6
f 374/1/6 375/1/6 379/1/6
f 375/2/6 376/2/6 380/2/6
f 379/1/6 375/1/6 380/1/6
f 376/2/6 377/2/6 380/2/6
f 380/2/6 377/2/6 381/2/6
f 382/2/6 383/2/6 386/2/6
f 386/2/6 383/2/6 387/2/6
f 384/4/6 385/4/6 389/4/6
f 385/2/6 386/2/6 390/2/6
f 389/4/6 385/4/6 390/4/6
f 387/1/6 388/1/6 391/1/6
f 390/2/6 386/2/6 391/2/6
f 386/1/6 387/1/6 391/1/6
f 391/1/6 388/1/6 392/1/6
f 392/1/6 388/1/6 393/1/6
f 390/1/6 391/1/6 396/1/6
f 391/1/6 392/1/6 396/1/6
f 396/1/6 392/1/6 397/1/6
f 392/2/6 393/2/6 398/2/6
f 397/1/6 392/1/6 398/1/6
f 398/2/6 393/2/6 399/2/6
f 394/4/6 395/4/6 400/4/6
f 400/4/6 395/4/6 401/4/6
f 397/1/6 398/1/6 402/1/6
f 402/1/6 398/1/6 403/1/6
f 404/4/6 405/4/6 406/4/6
f 406/4/6 405/4/6 407/4/6
