# MagicaVoxel @ Ephtracy

# group
o 

# material
mtllib cubeland1-41.mtl
usemtl palette

# normals
vn -1 0 0
vn 1 0 0
vn 0 0 1
vn 0 0 -1
vn 0 -1 0
vn 0 1 0

# texcoords
vt 0.0136719 0.5
vt 0.0175781 0.5
vt 0.0214844 0.5
vt 0.0253906 0.5
vt 0.0292969 0.5

# verts
v -0.2 -0.7 0
v -0.2 -0.7 -0.1
v -0.2 -0.4 0
v -0.2 -0.4 -0.1
v -0.2 0.1 0
v -0.2 0.1 -0.1
v -0.2 0.2 0
v -0.2 0.2 -0.1
v -0.2 0.3 0
v -0.2 0.3 -0.1
v -0.2 0.5 0
v -0.2 0.5 -0.1
v -0.1 0.5 0
v -0.1 0.5 -0.1
v -0.1 0.6 0
v -0.1 0.6 -0.1
v 0 -0.4 0
v 0 -0.4 -0.1
v 0 -0.3 0
v 0 -0.3 -0.1
v 0 0.1 0
v 0 0.1 -0.1
v 0 0.6 0
v 0 0.6 -0.1
v 0 0.7 0
v 0 0.7 -0.1
v 0.2 -0.6 0
v 0.2 -0.6 -0.1
v 0.2 -0.5 0
v 0.2 -0.5 -0.1
v -0.1 -0.6 0
v -0.1 -0.6 -0.1
v -0.1 -0.5 0
v -0.1 -0.5 -0.1
v 0.1 -0.4 0
v 0.1 -0.4 -0.1
v 0.1 -0.3 0
v 0.1 -0.3 -0.1
v 0.1 0.1 0
v 0.1 0.1 -0.1
v 0.1 0.6 0
v 0.1 0.6 -0.1
v 0.1 0.7 0
v 0.1 0.7 -0.1
v 0.2 0.5 0
v 0.2 0.5 -0.1
v 0.2 0.6 0
v 0.2 0.6 -0.1
v 0.3 -0.7 0
v 0.3 -0.7 -0.1
v 0.3 -0.4 0
v 0.3 -0.4 -0.1
v 0.3 0.1 0
v 0.3 0.1 -0.1
v 0.3 0.2 0
v 0.3 0.2 -0.1
v 0.3 0.3 0
v 0.3 0.3 -0.1
v 0.3 0.5 0
v 0.3 0.5 -0.1
v -0.2 -0.7 0
v -0.2 -0.4 0
v -0.2 0.1 0
v -0.2 0.2 0
v -0.2 0.3 0
v -0.2 0.5 0
v -0.1 -0.7 0
v -0.1 -0.6 0
v -0.1 -0.5 0
v -0.1 0.3 0
v -0.1 0.5 0
v -0.1 0.6 0
v 0 -0.4 0
v 0 -0.3 0
v 0 0.1 0
v 0 0.2 0
v 0 0.3 0
v 0 0.5 0
v 0 0.6 0
v 0 0.7 0
v 0.1 -0.4 0
v 0.1 -0.3 0
v 0.1 0.1 0
v 0.1 0.2 0
v 0.1 0.3 0
v 0.1 0.5 0
v 0.1 0.6 0
v 0.1 0.7 0
v 0.2 -0.7 0
v 0.2 -0.6 0
v 0.2 -0.5 0
v 0.2 0.3 0
v 0.2 0.5 0
v 0.2 0.6 0
v 0.3 -0.7 0
v 0.3 -0.4 0
v 0.3 0.1 0
v 0.3 0.2 0
v 0.3 0.3 0
v 0.3 0.5 0
v -0.2 -0.7 -0.1
v -0.2 -0.4 -0.1
v -0.2 0.1 -0.1
v -0.2 0.2 -0.1
v -0.2 0.3 -0.1
v -0.2 0.5 -0.1
v -0.1 -0.7 -0.1
v -0.1 -0.6 -0.1
v -0.1 -0.5 -0.1
v -0.1 0.3 -0.1
v -0.1 0.5 -0.1
v -0.1 0.6 -0.1
v 0 -0.4 -0.1
v 0 -0.3 -0.1
v 0 0.1 -0.1
v 0 0.2 -0.1
v 0 0.3 -0.1
v 0 0.5 -0.1
v 0 0.6 -0.1
v 0 0.7 -0.1
v 0.1 -0.4 -0.1
v 0.1 -0.3 -0.1
v 0.1 0.1 -0.1
v 0.1 0.2 -0.1
v 0.1 0.3 -0.1
v 0.1 0.5 -0.1
v 0.1 0.6 -0.1
v 0.1 0.7 -0.1
v 0.2 -0.7 -0.1
v 0.2 -0.6 -0.1
v 0.2 -0.5 -0.1
v 0.2 0.3 -0.1
v 0.2 0.5 -0.1
v 0.2 0.6 -0.1
v 0.3 -0.7 -0.1
v 0.3 -0.4 -0.1
v 0.3 0.1 -0.1
v 0.3 0.2 -0.1
v 0.3 0.3 -0.1
v 0.3 0.5 -0.1
v -0.2 -0.7 0
v -0.1 -0.7 0
v 0.2 -0.7 0
v 0.3 -0.7 0
v -0.2 -0.7 -0.1
v -0.1 -0.7 -0.1
v 0.2 -0.7 -0.1
v 0.3 -0.7 -0.1
v -0.1 -0.5 0
v 0.2 -0.5 0
v -0.1 -0.5 -0.1
v 0.2 -0.5 -0.1
v -0.2 0.1 0
v 0 0.1 0
v 0.1 0.1 0
v 0.3 0.1 0
v -0.2 0.1 -0.1
v 0 0.1 -0.1
v 0.1 0.1 -0.1
v 0.3 0.1 -0.1
v -0.1 -0.6 0
v 0.2 -0.6 0
v -0.1 -0.6 -0.1
v 0.2 -0.6 -0.1
v -0.2 -0.4 0
v 0 -0.4 0
v 0.1 -0.4 0
v 0.3 -0.4 0
v -0.2 -0.4 -0.1
v 0 -0.4 -0.1
v 0.1 -0.4 -0.1
v 0.3 -0.4 -0.1
v -0.2 0.5 0
v -0.1 0.5 0
v 0.2 0.5 0
v 0.3 0.5 0
v -0.2 0.5 -0.1
v -0.1 0.5 -0.1
v 0.2 0.5 -0.1
v 0.3 0.5 -0.1
v -0.1 0.6 0
v 0 0.6 0
v 0.1 0.6 0
v 0.2 0.6 0
v -0.1 0.6 -0.1
v 0 0.6 -0.1
v 0.1 0.6 -0.1
v 0.2 0.6 -0.1
v 0 0.7 0
v 0.1 0.7 0
v 0 0.7 -0.1
v 0.1 0.7 -0.1

# faces
f 3/5/1 2/5/1 1/5/1
f 4/5/1 2/5/1 3/5/1
f 7/4/1 6/4/1 5/4/1
f 8/4/1 6/4/1 7/4/1
f 9/3/1 8/3/1 7/3/1
f 10/3/1 8/3/1 9/3/1
f 11/2/1 10/2/1 9/2/1
f 12/2/1 10/2/1 11/2/1
f 15/2/1 14/2/1 13/2/1
f 16/2/1 14/2/1 15/2/1
f 19/4/1 18/4/1 17/4/1
f 20/4/1 18/4/1 19/4/1
f 21/5/1 20/5/1 19/5/1
f 22/5/1 20/5/1 21/5/1
f 25/2/1 24/2/1 23/2/1
f 26/2/1 24/2/1 25/2/1
f 29/5/1 28/5/1 27/5/1
f 30/5/1 28/5/1 29/5/1
f 31/5/2 32/5/2 33/5/2
f 33/5/2 32/5/2 34/5/2
f 35/4/2 36/4/2 37/4/2
f 37/4/2 36/4/2 38/4/2
f 37/5/2 38/5/2 39/5/2
f 39/5/2 38/5/2 40/5/2
f 41/2/2 42/2/2 43/2/2
f 43/2/2 42/2/2 44/2/2
f 45/2/2 46/2/2 47/2/2
f 47/2/2 46/2/2 48/2/2
f 49/5/2 50/5/2 51/5/2
f 51/5/2 50/5/2 52/5/2
f 53/4/2 54/4/2 55/4/2
f 55/4/2 54/4/2 56/4/2
f 55/3/2 56/3/2 57/3/2
f 57/3/2 56/3/2 58/3/2
f 57/2/2 58/2/2 59/2/2
f 59/2/2 58/2/2 60/2/2
f 67/5/3 62/5/3 61/5/3
f 68/5/3 62/5/3 67/5/3
f 69/5/3 62/5/3 68/5/3
f 70/2/3 66/2/3 65/2/3
f 70/3/3 65/3/3 64/3/3
f 71/2/3 66/2/3 70/2/3
f 73/5/3 62/5/3 69/5/3
f 75/4/3 64/4/3 63/4/3
f 76/3/3 71/3/3 70/3/3
f 76/3/3 70/3/3 64/3/3
f 76/4/3 64/4/3 75/4/3
f 77/3/3 71/3/3 76/3/3
f 78/2/3 72/2/3 71/2/3
f 78/3/3 71/3/3 77/3/3
f 79/2/3 72/2/3 78/2/3
f 81/4/3 74/4/3 73/4/3
f 81/5/3 73/5/3 69/5/3
f 82/5/3 77/5/3 76/5/3
f 82/4/3 74/4/3 81/4/3
f 82/5/3 75/5/3 74/5/3
f 82/5/3 76/5/3 75/5/3
f 83/5/3 77/5/3 82/5/3
f 84/5/3 77/5/3 83/5/3
f 85/3/3 78/3/3 77/3/3
f 85/5/3 77/5/3 84/5/3
f 85/3/3 79/3/3 78/3/3
f 86/3/3 79/3/3 85/3/3
f 87/2/3 80/2/3 79/2/3
f 87/3/3 79/3/3 86/3/3
f 88/2/3 80/2/3 87/2/3
f 89/1/3 68/1/3 67/1/3
f 90/1/3 68/1/3 89/1/3
f 91/5/3 81/5/3 69/5/3
f 92/3/3 86/3/3 85/3/3
f 92/3/3 85/3/3 84/3/3
f 93/2/3 87/2/3 86/2/3
f 93/3/3 86/3/3 92/3/3
f 94/2/3 87/2/3 93/2/3
f 95/5/3 90/5/3 89/5/3
f 95/5/3 91/5/3 90/5/3
f 96/5/3 81/5/3 91/5/3
f 96/5/3 91/5/3 95/5/3
f 97/4/3 84/4/3 83/4/3
f 98/3/3 92/3/3 84/3/3
f 98/4/3 84/4/3 97/4/3
f 99/2/3 93/2/3 92/2/3
f 99/3/3 92/3/3 98/3/3
f 100/2/3 93/2/3 99/2/3
f 101/5/4 102/5/4 107/5/4
f 107/5/4 102/5/4 108/5/4
f 108/5/4 102/5/4 109/5/4
f 105/2/4 106/2/4 110/2/4
f 104/3/4 105/3/4 110/3/4
f 110/2/4 106/2/4 111/2/4
f 109/5/4 102/5/4 113/5/4
f 103/4/4 104/4/4 115/4/4
f 110/3/4 111/3/4 116/3/4
f 104/3/4 110/3/4 116/3/4
f 115/4/4 104/4/4 116/4/4
f 116/3/4 111/3/4 117/3/4
f 111/2/4 112/2/4 118/2/4
f 117/3/4 111/3/4 118/3/4
f 118/2/4 112/2/4 119/2/4
f 113/4/4 114/4/4 121/4/4
f 109/5/4 113/5/4 121/5/4
f 116/5/4 117/5/4 122/5/4
f 121/4/4 114/4/4 122/4/4
f 114/5/4 115/5/4 122/5/4
f 115/5/4 116/5/4 122/5/4
f 122/5/4 117/5/4 123/5/4
f 123/5/4 117/5/4 124/5/4
f 117/3/4 118/3/4 125/3/4
f 124/5/4 117/5/4 125/5/4
f 118/3/4 119/3/4 125/3/4
f 125/3/4 119/3/4 126/3/4
f 119/2/4 120/2/4 127/2/4
f 126/3/4 119/3/4 127/3/4
f 127/2/4 120/2/4 128/2/4
f 107/1/4 108/1/4 129/1/4
f 129/1/4 108/1/4 130/1/4
f 109/5/4 121/5/4 131/5/4
f 125/3/4 126/3/4 132/3/4
f 124/3/4 125/3/4 132/3/4
f 126/2/4 127/2/4 133/2/4
f 132/3/4 126/3/4 133/3/4
f 133/2/4 127/2/4 134/2/4
f 129/5/4 130/5/4 135/5/4
f 130/5/4 131/5/4 135/5/4
f 131/5/4 121/5/4 136/5/4
f 135/5/4 131/5/4 136/5/4
f 123/4/4 124/4/4 137/4/4
f 124/3/4 132/3/4 138/3/4
f 137/4/4 124/4/4 138/4/4
f 132/2/4 133/2/4 139/2/4
f 138/3/4 132/3/4 139/3/4
f 139/2/4 133/2/4 140/2/4
f 145/5/5 142/5/5 141/5/5
f 146/1/5 143/1/5 142/1/5
f 146/5/5 142/5/5 145/5/5
f 147/5/5 144/5/5 143/5/5
f 147/1/5 143/1/5 146/1/5
f 148/5/5 144/5/5 147/5/5
f 151/5/5 150/5/5 149/5/5
f 152/5/5 150/5/5 151/5/5
f 157/4/5 154/4/5 153/4/5
f 158/4/5 154/4/5 157/4/5
f 159/4/5 156/4/5 155/4/5
f 160/4/5 156/4/5 159/4/5
f 161/1/6 162/1/6 163/1/6
f 163/1/6 162/1/6 164/1/6
f 165/5/6 166/5/6 169/5/6
f 169/5/6 166/5/6 170/5/6
f 167/5/6 168/5/6 171/5/6
f 171/5/6 168/5/6 172/5/6
f 173/2/6 174/2/6 177/2/6
f 177/2/6 174/2/6 178/2/6
f 175/2/6 176/2/6 179/2/6
f 179/2/6 176/2/6 180/2/6
f 181/2/6 182/2/6 185/2/6
f 185/2/6 182/2/6 186/2/6
f 183/2/6 184/2/6 187/2/6
f 187/2/6 184/2/6 188/2/6
f 189/2/6 190/2/6 191/2/6
f 191/2/6 190/2/6 192/2/6
