# MagicaVoxel @ Ephtracy

# group
o 

# material
mtllib cubeland1-33.mtl
usemtl palette

# normals
vn -1 0 0
vn 1 0 0
vn 0 0 1
vn 0 0 -1
vn 0 -1 0
vn 0 1 0

# texcoords
vt 0.00976562 0.5
vt 0.0175781 0.5
vt 0.0371094 0.5

# verts
v -0.6 0 0
v -0.6 0 -0.1
v -0.6 0.1 0
v -0.6 0.1 -0.1
v -0.5 -0.1 0
v -0.5 -0.1 -0.1
v -0.5 0 0.1
v -0.5 0 0
v -0.5 0 -0.1
v -0.5 0 -0.2
v -0.5 0.1 0.1
v -0.5 0.1 0
v -0.5 0.1 -0.1
v -0.5 0.1 -0.2
v -0.5 0.2 0
v -0.5 0.2 -0.1
v -0.4 -0.2 0
v -0.4 -0.2 -0.1
v -0.4 -0.1 0.1
v -0.4 -0.1 0
v -0.4 -0.1 -0.1
v -0.4 -0.1 -0.2
v -0.4 0 0.2
v -0.4 0 0.1
v -0.4 0 0
v -0.4 0 -0.1
v -0.4 0 -0.2
v -0.4 0 -0.3
v -0.4 0.1 0.2
v -0.4 0.1 0.1
v -0.4 0.1 0
v -0.4 0.1 -0.1
v -0.4 0.1 -0.2
v -0.4 0.1 -0.3
v -0.4 0.2 0.1
v -0.4 0.2 0
v -0.4 0.2 -0.1
v -0.4 0.2 -0.2
v -0.4 0.3 0
v -0.4 0.3 -0.1
v -0.2 -0.1 0.2
v -0.2 -0.1 0.1
v -0.2 -0.1 -0.2
v -0.2 -0.1 -0.3
v -0.2 0 0.2
v -0.2 0 0.1
v -0.2 0 -0.2
v -0.2 0 -0.3
v 0.2 -0.1 0
v 0.2 -0.1 -0.1
v 0.2 0 0
v 0.2 0 -0.1
v 0.2 0.1 0
v 0.2 0.1 -0.1
v 0.2 0.2 0
v 0.2 0.2 -0.1
v 0.3 -0.2 0
v 0.3 -0.2 -0.1
v 0.3 -0.1 0
v 0.3 -0.1 -0.1
v 0.3 0.2 0
v 0.3 0.2 -0.1
v 0.3 0.3 0
v 0.3 0.3 -0.1
v 0.5 -0.3 0
v 0.5 -0.3 -0.1
v 0.5 -0.2 0
v 0.5 -0.2 -0.1
v 0.5 0.3 0
v 0.5 0.3 -0.1
v 0.5 0.4 0
v 0.5 0.4 -0.1
v -0.1 -0.1 0.2
v -0.1 -0.1 0.1
v -0.1 -0.1 -0.2
v -0.1 -0.1 -0.3
v -0.1 0 0.2
v -0.1 0 0.1
v -0.1 0 -0.2
v -0.1 0 -0.3
v -5.96046e-08 -0.2 0
v -5.96046e-08 -0.2 -0.1
v -5.96046e-08 -0.1 0.1
v -5.96046e-08 -0.1 0
v -5.96046e-08 -0.1 -0.1
v -5.96046e-08 -0.1 -0.2
v -5.96046e-08 0 0.2
v -5.96046e-08 0 0.1
v -5.96046e-08 0 0
v -5.96046e-08 0 -0.1
v -5.96046e-08 0 -0.2
v -5.96046e-08 0 -0.3
v -5.96046e-08 0.1 0.2
v -5.96046e-08 0.1 0.1
v -5.96046e-08 0.1 0
v -5.96046e-08 0.1 -0.1
v -5.96046e-08 0.1 -0.2
v -5.96046e-08 0.1 -0.3
v -5.96046e-08 0.2 0.1
v -5.96046e-08 0.2 0
v -5.96046e-08 0.2 -0.1
v -5.96046e-08 0.2 -0.2
v -5.96046e-08 0.3 0
v -5.96046e-08 0.3 -0.1
v 0.1 -0.1 0
v 0.1 -0.1 -0.1
v 0.1 0 0.1
v 0.1 0 0
v 0.1 0 -0.1
v 0.1 0 -0.2
v 0.1 0.1 0.1
v 0.1 0.1 0
v 0.1 0.1 -0.1
v 0.1 0.1 -0.2
v 0.1 0.2 0
v 0.1 0.2 -0.1
v 0.4 0 0
v 0.4 0 -0.1
v 0.4 0.1 0
v 0.4 0.1 -0.1
v 0.5 -0.2 0
v 0.5 -0.2 -0.1
v 0.5 -0.1 0
v 0.5 -0.1 -0.1
v 0.5 0 0
v 0.5 0 -0.1
v 0.5 0.1 0
v 0.5 0.1 -0.1
v 0.5 0.2 0
v 0.5 0.2 -0.1
v 0.5 0.3 0
v 0.5 0.3 -0.1
v 0.6 -0.3 0
v 0.6 -0.3 -0.1
v 0.6 -0.2 0
v 0.6 -0.2 -0.1
v 0.6 0.3 0
v 0.6 0.3 -0.1
v 0.6 0.4 0
v 0.6 0.4 -0.1
v -0.4 0 0.2
v -0.4 0.1 0.2
v -0.3 0 0.2
v -0.3 0.1 0.2
v -0.2 -0.1 0.2
v -0.2 0 0.2
v -0.1 -0.1 0.2
v -0.1 0 0.2
v -5.96046e-08 0 0.2
v -5.96046e-08 0.1 0.2
v -0.5 0 0.1
v -0.5 0.1 0.1
v -0.4 -0.1 0.1
v -0.4 0 0.1
v -0.4 0.1 0.1
v -0.4 0.2 0.1
v -0.3 0 0.1
v -0.3 0.1 0.1
v -0.2 -0.1 0.1
v -0.2 0 0.1
v -0.1 -0.1 0.1
v -0.1 0 0.1
v -5.96046e-08 -0.1 0.1
v -5.96046e-08 0 0.1
v -5.96046e-08 0.1 0.1
v -5.96046e-08 0.2 0.1
v 0.1 0 0.1
v 0.1 0.1 0.1
v -0.6 0 0
v -0.6 0.1 0
v -0.5 -0.1 0
v -0.5 0 0
v -0.5 0.1 0
v -0.5 0.2 0
v -0.4 -0.2 0
v -0.4 -0.1 0
v -0.4 0 0
v -0.4 0.1 0
v -0.4 0.2 0
v -0.4 0.3 0
v -0.2 -0.1 0
v -0.1 -0.1 0
v -5.96046e-08 -0.2 0
v -5.96046e-08 -0.1 0
v -5.96046e-08 0 0
v -5.96046e-08 0.1 0
v -5.96046e-08 0.2 0
v -5.96046e-08 0.3 0
v 0.1 -0.1 0
v 0.1 0 0
v 0.1 0.1 0
v 0.1 0.2 0
v 0.2 -0.1 0
v 0.2 0 0
v 0.2 0.1 0
v 0.2 0.2 0
v 0.3 -0.2 0
v 0.3 -0.1 0
v 0.3 0 0
v 0.3 0.1 0
v 0.3 0.2 0
v 0.3 0.3 0
v 0.4 -0.1 0
v 0.4 0 0
v 0.4 0.1 0
v 0.4 0.2 0
v 0.5 -0.3 0
v 0.5 -0.2 0
v 0.5 -0.1 0
v 0.5 0 0
v 0.5 0.1 0
v 0.5 0.2 0
v 0.5 0.3 0
v 0.5 0.4 0
v 0.6 -0.3 0
v 0.6 -0.2 0
v 0.6 0.3 0
v 0.6 0.4 0
v -0.6 0 -0.1
v -0.6 0.1 -0.1
v -0.5 -0.1 -0.1
v -0.5 0 -0.1
v -0.5 0.1 -0.1
v -0.5 0.2 -0.1
v -0.4 -0.2 -0.1
v -0.4 -0.1 -0.1
v -0.4 0 -0.1
v -0.4 0.1 -0.1
v -0.4 0.2 -0.1
v -0.4 0.3 -0.1
v -0.2 -0.1 -0.1
v -0.1 -0.1 -0.1
v -5.96046e-08 -0.2 -0.1
v -5.96046e-08 -0.1 -0.1
v -5.96046e-08 0 -0.1
v -5.96046e-08 0.1 -0.1
v -5.96046e-08 0.2 -0.1
v -5.96046e-08 0.3 -0.1
v 0.1 -0.1 -0.1
v 0.1 0 -0.1
v 0.1 0.1 -0.1
v 0.1 0.2 -0.1
v 0.2 -0.1 -0.1
v 0.2 0 -0.1
v 0.2 0.1 -0.1
v 0.2 0.2 -0.1
v 0.3 -0.2 -0.1
v 0.3 -0.1 -0.1
v 0.3 0 -0.1
v 0.3 0.1 -0.1
v 0.3 0.2 -0.1
v 0.3 0.3 -0.1
v 0.4 -0.1 -0.1
v 0.4 0 -0.1
v 0.4 0.1 -0.1
v 0.4 0.2 -0.1
v 0.5 -0.3 -0.1
v 0.5 -0.2 -0.1
v 0.5 -0.1 -0.1
v 0.5 0 -0.1
v 0.5 0.1 -0.1
v 0.5 0.2 -0.1
v 0.5 0.3 -0.1
v 0.5 0.4 -0.1
v 0.6 -0.3 -0.1
v 0.6 -0.2 -0.1
v 0.6 0.3 -0.1
v 0.6 0.4 -0.1
v -0.5 0 -0.2
v -0.5 0.1 -0.2
v -0.4 -0.1 -0.2
v -0.4 0 -0.2
v -0.4 0.1 -0.2
v -0.4 0.2 -0.2
v -0.2 -0.1 -0.2
v -0.2 0 -0.2
v -0.1 -0.1 -0.2
v -0.1 0 -0.2
v -5.96046e-08 -0.1 -0.2
v -5.96046e-08 0 -0.2
v -5.96046e-08 0.1 -0.2
v -5.96046e-08 0.2 -0.2
v 0.1 0 -0.2
v 0.1 0.1 -0.2
v -0.4 0 -0.3
v -0.4 0.1 -0.3
v -0.2 -0.1 -0.3
v -0.2 0 -0.3
v -0.1 -0.1 -0.3
v -0.1 0 -0.3
v -5.96046e-08 0 -0.3
v -5.96046e-08 0.1 -0.3
v 0.5 -0.3 0
v 0.6 -0.3 0
v 0.5 -0.3 -0.1
v 0.6 -0.3 -0.1
v -0.4 -0.2 0
v -5.96046e-08 -0.2 0
v 0.3 -0.2 0
v 0.5 -0.2 0
v -0.4 -0.2 -0.1
v -5.96046e-08 -0.2 -0.1
v 0.3 -0.2 -0.1
v 0.5 -0.2 -0.1
v -0.2 -0.1 0.2
v -0.1 -0.1 0.2
v -0.4 -0.1 0.1
v -0.2 -0.1 0.1
v -0.1 -0.1 0.1
v -5.96046e-08 -0.1 0.1
v -0.5 -0.1 0
v -0.4 -0.1 0
v -0.2 -0.1 0
v -0.1 -0.1 0
v -5.96046e-08 -0.1 0
v 0.1 -0.1 0
v 0.2 -0.1 0
v 0.3 -0.1 0
v -0.5 -0.1 -0.1
v -0.4 -0.1 -0.1
v -0.2 -0.1 -0.1
v -0.1 -0.1 -0.1
v -5.96046e-08 -0.1 -0.1
v 0.1 -0.1 -0.1
v 0.2 -0.1 -0.1
v 0.3 -0.1 -0.1
v -0.4 -0.1 -0.2
v -0.2 -0.1 -0.2
v -0.1 -0.1 -0.2
v -5.96046e-08 -0.1 -0.2
v -0.2 -0.1 -0.3
v -0.1 -0.1 -0.3
v -0.4 0 0.2
v -0.3 0 0.2
v -0.2 0 0.2
v -0.1 0 0.2
v -5.96046e-08 0 0.2
v -0.5 0 0.1
v -0.4 0 0.1
v -0.3 0 0.1
v -0.2 0 0.1
v -0.1 0 0.1
v -5.96046e-08 0 0.1
v 0.1 0 0.1
v -0.6 0 0
v -0.5 0 0
v -0.4 0 0
v -5.96046e-08 0 0
v 0.1 0 0
v 0.2 0 0
v -0.6 0 -0.1
v -0.5 0 -0.1
v -0.4 0 -0.1
v -5.96046e-08 0 -0.1
v 0.1 0 -0.1
v 0.2 0 -0.1
v -0.5 0 -0.2
v -0.4 0 -0.2
v -0.2 0 -0.2
v -0.1 0 -0.2
v -5.96046e-08 0 -0.2
v 0.1 0 -0.2
v -0.4 0 -0.3
v -0.2 0 -0.3
v -0.1 0 -0.3
v -5.96046e-08 0 -0.3
v 0.4 0.1 0
v 0.5 0.1 0
v 0.4 0.1 -0.1
v 0.5 0.1 -0.1
v 0.5 0.3 0
v 0.6 0.3 0
v 0.5 0.3 -0.1
v 0.6 0.3 -0.1
v 0.5 -0.2 0
v 0.6 -0.2 0
v 0.5 -0.2 -0.1
v 0.6 -0.2 -0.1
v 0.4 0 0
v 0.5 0 0
v 0.4 0 -0.1
v 0.5 0 -0.1
v -0.4 0.1 0.2
v -0.3 0.1 0.2
v -5.96046e-08 0.1 0.2
v -0.5 0.1 0.1
v -0.4 0.1 0.1
v -0.3 0.1 0.1
v -5.96046e-08 0.1 0.1
v 0.1 0.1 0.1
v -0.6 0.1 0
v -0.5 0.1 0
v -0.4 0.1 0
v -5.96046e-08 0.1 0
v 0.1 0.1 0
v 0.2 0.1 0
v -0.6 0.1 -0.1
v -0.5 0.1 -0.1
v -0.4 0.1 -0.1
v -5.96046e-08 0.1 -0.1
v 0.1 0.1 -0.1
v 0.2 0.1 -0.1
v -0.5 0.1 -0.2
v -0.4 0.1 -0.2
v -5.96046e-08 0.1 -0.2
v 0.1 0.1 -0.2
v -0.4 0.1 -0.3
v -5.96046e-08 0.1 -0.3
v -0.4 0.2 0.1
v -5.96046e-08 0.2 0.1
v -0.5 0.2 0
v -0.4 0.2 0
v -5.96046e-08 0.2 0
v 0.1 0.2 0
v 0.2 0.2 0
v 0.3 0.2 0
v -0.5 0.2 -0.1
v -0.4 0.2 -0.1
v -5.96046e-08 0.2 -0.1
v 0.1 0.2 -0.1
v 0.2 0.2 -0.1
v 0.3 0.2 -0.1
v -0.4 0.2 -0.2
v -5.96046e-08 0.2 -0.2
v -0.4 0.3 0
v -5.96046e-08 0.3 0
v 0.3 0.3 0
v 0.5 0.3 0
v -0.4 0.3 -0.1
v -5.96046e-08 0.3 -0.1
v 0.3 0.3 -0.1
v 0.5 0.3 -0.1
v 0.5 0.4 0
v 0.6 0.4 0
v 0.5 0.4 -0.1
v 0.6 0.4 -0.1

# faces
f 3/2/1 2/2/1 1/2/1
f 4/2/1 2/2/1 3/2/1
f 8/2/1 6/2/1 5/2/1
f 9/2/1 6/2/1 8/2/1
f 11/2/1 8/2/1 7/2/1
f 12/2/1 8/2/1 11/2/1
f 13/2/1 10/2/1 9/2/1
f 14/2/1 10/2/1 13/2/1
f 15/3/1 13/3/1 12/3/1
f 16/3/1 13/3/1 15/3/1
f 20/2/1 18/2/1 17/2/1
f 21/2/1 18/2/1 20/2/1
f 24/2/1 20/2/1 19/2/1
f 25/2/1 20/2/1 24/2/1
f 26/2/1 22/2/1 21/2/1
f 27/2/1 22/2/1 26/2/1
f 29/1/1 24/1/1 23/1/1
f 30/1/1 24/1/1 29/1/1
f 33/3/1 28/3/1 27/3/1
f 34/3/1 28/3/1 33/3/1
f 35/3/1 31/3/1 30/3/1
f 36/3/1 31/3/1 35/3/1
f 37/3/1 33/3/1 32/3/1
f 38/3/1 33/3/1 37/3/1
f 39/3/1 37/3/1 36/3/1
f 40/3/1 37/3/1 39/3/1
f 45/3/1 42/3/1 41/3/1
f 46/3/1 42/3/1 45/3/1
f 47/3/1 44/3/1 43/3/1
f 48/3/1 44/3/1 47/3/1
f 51/3/1 50/3/1 49/3/1
f 52/3/1 50/3/1 51/3/1
f 55/3/1 54/3/1 53/3/1
f 56/3/1 54/3/1 55/3/1
f 59/3/1 58/3/1 57/3/1
f 60/3/1 58/3/1 59/3/1
f 63/3/1 62/3/1 61/3/1
f 64/3/1 62/3/1 63/3/1
f 67/3/1 66/3/1 65/3/1
f 68/3/1 66/3/1 67/3/1
f 71/3/1 70/3/1 69/3/1
f 72/3/1 70/3/1 71/3/1
f 73/3/2 74/3/2 77/3/2
f 77/3/2 74/3/2 78/3/2
f 75/3/2 76/3/2 79/3/2
f 79/3/2 76/3/2 80/3/2
f 81/2/2 82/2/2 84/2/2
f 84/2/2 82/2/2 85/2/2
f 83/2/2 84/2/2 88/2/2
f 88/2/2 84/2/2 89/2/2
f 85/2/2 86/2/2 90/2/2
f 90/2/2 86/2/2 91/2/2
f 87/3/2 88/3/2 93/3/2
f 93/3/2 88/3/2 94/3/2
f 91/3/2 92/3/2 97/3/2
f 97/3/2 92/3/2 98/3/2
f 94/3/2 95/3/2 99/3/2
f 99/3/2 95/3/2 100/3/2
f 96/3/2 97/3/2 101/3/2
f 101/3/2 97/3/2 102/3/2
f 100/3/2 101/3/2 103/3/2
f 103/3/2 101/3/2 104/3/2
f 105/2/2 106/2/2 108/2/2
f 108/2/2 106/2/2 109/2/2
f 107/3/2 108/3/2 111/3/2
f 111/3/2 108/3/2 112/3/2
f 109/3/2 110/3/2 113/3/2
f 113/3/2 110/3/2 114/3/2
f 112/3/2 113/3/2 115/3/2
f 115/3/2 113/3/2 116/3/2
f 117/2/2 118/2/2 119/2/2
f 119/2/2 118/2/2 120/2/2
f 121/3/2 122/3/2 123/3/2
f 123/3/2 122/3/2 124/3/2
f 123/2/2 124/2/2 125/2/2
f 125/2/2 124/2/2 126/2/2
f 127/2/2 128/2/2 129/2/2
f 129/2/2 128/2/2 130/2/2
f 129/3/2 130/3/2 131/3/2
f 131/3/2 130/3/2 132/3/2
f 133/3/2 134/3/2 135/3/2
f 135/3/2 134/3/2 136/3/2
f 137/3/2 138/3/2 139/3/2
f 139/3/2 138/3/2 140/3/2
f 143/1/3 142/1/3 141/1/3
f 144/1/3 142/1/3 143/1/3
f 146/3/3 144/3/3 143/3/3
f 147/3/3 146/3/3 145/3/3
f 148/3/3 144/3/3 146/3/3
f 148/3/3 146/3/3 147/3/3
f 149/3/3 144/3/3 148/3/3
f 150/3/3 144/3/3 149/3/3
f 154/2/3 152/2/3 151/2/3
f 155/2/3 152/2/3 154/2/3
f 157/2/3 154/2/3 153/2/3
f 158/3/3 156/3/3 155/3/3
f 159/2/3 157/2/3 153/2/3
f 160/2/3 157/2/3 159/2/3
f 163/2/3 162/2/3 161/2/3
f 164/2/3 162/2/3 163/2/3
f 165/3/3 156/3/3 158/3/3
f 166/3/3 156/3/3 165/3/3
f 167/3/3 165/3/3 164/3/3
f 168/3/3 165/3/3 167/3/3
f 172/2/3 170/2/3 169/2/3
f 173/2/3 170/2/3 172/2/3
f 176/2/3 172/2/3 171/2/3
f 177/2/3 172/2/3 176/2/3
f 178/3/3 174/3/3 173/3/3
f 179/3/3 174/3/3 178/3/3
f 181/2/3 176/2/3 175/2/3
f 182/2/3 181/2/3 175/2/3
f 183/2/3 182/2/3 175/2/3
f 184/2/3 182/2/3 183/2/3
f 187/3/3 180/3/3 179/3/3
f 188/3/3 180/3/3 187/3/3
f 189/2/3 185/2/3 184/2/3
f 190/2/3 185/2/3 189/2/3
f 191/3/3 187/3/3 186/3/3
f 192/3/3 187/3/3 191/3/3
f 194/2/3 191/2/3 190/2/3
f 195/2/3 191/2/3 194/2/3
f 198/3/3 194/3/3 193/3/3
f 198/3/3 196/3/3 195/3/3
f 198/3/3 195/3/3 194/3/3
f 199/3/3 196/3/3 198/3/3
f 200/3/3 196/3/3 199/3/3
f 201/3/3 196/3/3 200/3/3
f 203/3/3 198/3/3 197/3/3
f 203/3/3 199/3/3 198/3/3
f 204/2/3 200/2/3 199/2/3
f 204/3/3 199/3/3 203/3/3
f 205/3/3 201/3/3 200/3/3
f 205/2/3 200/2/3 204/2/3
f 205/3/3 202/3/3 201/3/3
f 206/3/3 202/3/3 205/3/3
f 208/3/3 203/3/3 197/3/3
f 209/2/3 204/2/3 203/2/3
f 209/3/3 203/3/3 208/3/3
f 210/2/3 204/2/3 209/2/3
f 211/2/3 206/2/3 205/2/3
f 212/3/3 202/3/3 206/3/3
f 212/2/3 206/2/3 211/2/3
f 213/3/3 202/3/3 212/3/3
f 215/3/3 208/3/3 207/3/3
f 216/3/3 208/3/3 215/3/3
f 217/3/3 214/3/3 213/3/3
f 218/3/3 214/3/3 217/3/3
f 219/2/4 220/2/4 222/2/4
f 222/2/4 220/2/4 223/2/4
f 221/2/4 222/2/4 226/2/4
f 226/2/4 222/2/4 227/2/4
f 223/3/4 224/3/4 228/3/4
f 228/3/4 224/3/4 229/3/4
f 225/2/4 226/2/4 231/2/4
f 225/2/4 231/2/4 232/2/4
f 225/2/4 232/2/4 233/2/4
f 233/2/4 232/2/4 234/2/4
f 229/3/4 230/3/4 237/3/4
f 237/3/4 230/3/4 238/3/4
f 234/2/4 235/2/4 239/2/4
f 239/2/4 235/2/4 240/2/4
f 236/3/4 237/3/4 241/3/4
f 241/3/4 237/3/4 242/3/4
f 240/2/4 241/2/4 244/2/4
f 244/2/4 241/2/4 245/2/4
f 243/3/4 244/3/4 248/3/4
f 245/3/4 246/3/4 248/3/4
f 244/3/4 245/3/4 248/3/4
f 248/3/4 246/3/4 249/3/4
f 249/3/4 246/3/4 250/3/4
f 250/3/4 246/3/4 251/3/4
f 247/3/4 248/3/4 253/3/4
f 248/3/4 249/3/4 253/3/4
f 249/2/4 250/2/4 254/2/4
f 253/3/4 249/3/4 254/3/4
f 250/3/4 251/3/4 255/3/4
f 254/2/4 250/2/4 255/2/4
f 251/3/4 252/3/4 255/3/4
f 255/3/4 252/3/4 256/3/4
f 247/3/4 253/3/4 258/3/4
f 253/2/4 254/2/4 259/2/4
f 258/3/4 253/3/4 259/3/4
f 259/2/4 254/2/4 260/2/4
f 255/2/4 256/2/4 261/2/4
f 256/3/4 252/3/4 262/3/4
f 261/2/4 256/2/4 262/2/4
f 262/3/4 252/3/4 263/3/4
f 257/3/4 258/3/4 265/3/4
f 265/3/4 258/3/4 266/3/4
f 263/3/4 264/3/4 267/3/4
f 267/3/4 264/3/4 268/3/4
f 269/2/4 270/2/4 272/2/4
f 272/2/4 270/2/4 273/2/4
f 271/2/4 272/2/4 275/2/4
f 275/2/4 272/2/4 276/2/4
f 277/2/4 278/2/4 279/2/4
f 279/2/4 278/2/4 280/2/4
f 273/3/4 274/3/4 281/3/4
f 281/3/4 274/3/4 282/3/4
f 280/3/4 281/3/4 283/3/4
f 283/3/4 281/3/4 284/3/4
f 285/3/4 286/3/4 288/3/4
f 287/3/4 288/3/4 289/3/4
f 288/3/4 286/3/4 290/3/4
f 289/3/4 288/3/4 290/3/4
f 290/3/4 286/3/4 291/3/4
f 291/3/4 286/3/4 292/3/4
f 295/3/5 294/3/5 293/3/5
f 296/3/5 294/3/5 295/3/5
f 301/2/5 298/2/5 297/2/5
f 302/2/5 298/2/5 301/2/5
f 303/3/5 300/3/5 299/3/5
f 304/3/5 300/3/5 303/3/5
f 308/3/5 306/3/5 305/3/5
f 309/3/5 306/3/5 308/3/5
f 312/2/5 308/2/5 307/2/5
f 313/3/5 309/3/5 308/3/5
f 313/2/5 308/2/5 312/2/5
f 314/2/5 310/2/5 309/2/5
f 314/3/5 309/3/5 313/3/5
f 315/2/5 310/2/5 314/2/5
f 319/2/5 312/2/5 311/2/5
f 320/2/5 312/2/5 319/2/5
f 323/2/5 316/2/5 315/2/5
f 324/2/5 316/2/5 323/2/5
f 325/3/5 318/3/5 317/3/5
f 326/3/5 318/3/5 325/3/5
f 327/2/5 321/2/5 320/2/5
f 328/3/5 322/3/5 321/3/5
f 328/2/5 321/2/5 327/2/5
f 329/2/5 323/2/5 322/2/5
f 329/3/5 322/3/5 328/3/5
f 330/2/5 323/2/5 329/2/5
f 331/3/5 329/3/5 328/3/5
f 332/3/5 329/3/5 331/3/5
f 339/1/5 334/1/5 333/1/5
f 340/3/5 335/3/5 334/3/5
f 340/1/5 334/1/5 339/1/5
f 341/3/5 335/3/5 340/3/5
f 342/3/5 337/3/5 336/3/5
f 343/3/5 337/3/5 342/3/5
f 346/2/5 339/2/5 338/2/5
f 347/2/5 339/2/5 346/2/5
f 348/3/5 344/3/5 343/3/5
f 349/3/5 344/3/5 348/3/5
f 351/2/5 346/2/5 345/2/5
f 352/2/5 346/2/5 351/2/5
f 355/2/5 350/2/5 349/2/5
f 356/2/5 350/2/5 355/2/5
f 357/2/5 353/2/5 352/2/5
f 358/2/5 353/2/5 357/2/5
f 361/3/5 355/3/5 354/3/5
f 362/3/5 355/3/5 361/3/5
f 363/3/5 359/3/5 358/3/5
f 364/3/5 359/3/5 363/3/5
f 365/3/5 361/3/5 360/3/5
f 366/3/5 361/3/5 365/3/5
f 369/2/5 368/2/5 367/2/5
f 370/2/5 368/2/5 369/2/5
f 373/3/5 372/3/5 371/3/5
f 374/3/5 372/3/5 373/3/5
f 375/3/6 376/3/6 377/3/6
f 377/3/6 376/3/6 378/3/6
f 379/2/6 380/2/6 381/2/6
f 381/2/6 380/2/6 382/2/6
f 383/1/6 384/1/6 387/1/6
f 384/3/6 385/3/6 388/3/6
f 387/1/6 384/1/6 388/1/6
f 388/3/6 385/3/6 389/3/6
f 386/2/6 387/2/6 392/2/6
f 392/2/6 387/2/6 393/2/6
f 389/3/6 390/3/6 394/3/6
f 394/3/6 390/3/6 395/3/6
f 391/2/6 392/2/6 397/2/6
f 397/2/6 392/2/6 398/2/6
f 395/2/6 396/2/6 401/2/6
f 401/2/6 396/2/6 402/2/6
f 398/2/6 399/2/6 403/2/6
f 403/2/6 399/2/6 404/2/6
f 400/3/6 401/3/6 405/3/6
f 405/3/6 401/3/6 406/3/6
f 404/3/6 405/3/6 407/3/6
f 407/3/6 405/3/6 408/3/6
f 409/3/6 410/3/6 412/3/6
f 412/3/6 410/3/6 413/3/6
f 411/3/6 412/3/6 417/3/6
f 417/3/6 412/3/6 418/3/6
f 413/3/6 414/3/6 419/3/6
f 419/3/6 414/3/6 420/3/6
f 415/3/6 416/3/6 421/3/6
f 421/3/6 416/3/6 422/3/6
f 418/3/6 419/3/6 423/3/6
f 423/3/6 419/3/6 424/3/6
f 425/3/6 426/3/6 429/3/6
f 429/3/6 426/3/6 430/3/6
f 427/3/6 428/3/6 431/3/6
f 431/3/6 428/3/6 432/3/6
f 433/3/6 434/3/6 435/3/6
f 435/3/6 434/3/6 436/3/6
