# MagicaVoxel @ Ephtracy

# group
o 

# material
mtllib cubeland1-32.mtl
usemtl palette

# normals
vn -1 0 0
vn 1 0 0
vn 0 0 1
vn 0 0 -1
vn 0 -1 0
vn 0 1 0

# texcoords
vt 0.0292969 0.5
vt 0.0527344 0.5

# verts
v -0.3 -0.2 0
v -0.3 -0.2 -0.2
v -0.3 0 0
v -0.3 0 -0.1
v -0.3 0 -0.2
v -0.3 0.1 -0.1
v -0.3 0.1 -0.2
v -0.1 -0.2 0.2
v -0.1 -0.2 0
v -0.1 -0.1 0
v -0.1 0 0.2
v -0.1 0 0
v -0.1 0 -0.1
v -0.1 0 -0.2
v -0.1 0.1 -0.1
v -0.1 0.1 -0.2
v 0.1 0 0.1
v 0.1 0 0
v 0.1 0.1 0.1
v 0.1 0.1 0
v 0.1 0.2 0
v 0.1 0.2 -0.2
v 0.1 0.3 0
v 0.1 0.3 -0.2
v 0.2 0.1 0
v 0.2 0.1 -0.2
v 0.2 0.2 0
v 0.2 0.2 -0.2
v -0.2 -0.1 0
v -0.2 -0.1 -0.1
v -0.2 0 0
v -0.2 0 -0.1
v -0.2 0 -0.2
v -0.2 0.1 -0.1
v -0.2 0.1 -0.2
v -0.1 -0.2 0
v -0.1 -0.2 -0.2
v -0.1 -0.1 0
v -0.1 -0.1 -0.1
v -0.1 -0.1 -0.2
v -0.1 0 -0.1
v -0.1 0 -0.2
v 0 -0.1 0.2
v 0 -0.1 0.1
v 0 0 0.2
v 0 0 0.1
v 0 0 -0.1
v 0 0 -0.2
v 0 0.1 -0.1
v 0 0.1 -0.2
v 0.1 -0.2 0.2
v 0.1 -0.2 0
v 0.1 -0.1 0.2
v 0.1 -0.1 0.1
v 0.1 -0.1 0
v 0.1 0 0.1
v 0.1 0 0
v 0.2 0 0.1
v 0.2 0 0
v 0.2 0.1 0.1
v 0.2 0.1 0
v 0.3 0.1 0
v 0.3 0.1 -0.2
v 0.3 0.3 0
v 0.3 0.3 -0.2
v -0.1 -0.2 0.2
v -0.1 0 0.2
v 0 -0.1 0.2
v 0 0 0.2
v 0.1 -0.2 0.2
v 0.1 -0.1 0.2
v 0 -0.1 0.1
v 0 0 0.1
v 0.1 -0.1 0.1
v 0.1 0 0.1
v 0.1 0.1 0.1
v 0.2 0 0.1
v 0.2 0.1 0.1
v -0.3 -0.2 0
v -0.3 0 0
v -0.2 -0.1 0
v -0.2 0 0
v -0.1 -0.2 0
v -0.1 -0.1 0
v 0.1 0.2 0
v 0.1 0.3 0
v 0.2 0.1 0
v 0.2 0.2 0
v 0.3 0.1 0
v 0.3 0.3 0
v -0.3 0 -0.1
v -0.3 0.1 -0.1
v -0.2 -0.1 -0.1
v -0.2 0 -0.1
v -0.2 0.1 -0.1
v -0.1 -0.1 -0.1
v -0.1 0 -0.1
v -0.1 0.1 -0.1
v 0 0 -0.1
v 0 0.1 -0.1
v -0.1 -0.2 0
v -0.1 -0.1 0
v -0.1 0 0
v 0 -0.1 0
v 0 0 0
v 0.1 -0.2 0
v 0.1 -0.1 0
v 0.1 0 0
v 0.1 0.1 0
v 0.2 0 0
v 0.2 0.1 0
v -0.3 -0.2 -0.2
v -0.3 0 -0.2
v -0.3 0.1 -0.2
v -0.2 -0.1 -0.2
v -0.2 0 -0.2
v -0.2 0.1 -0.2
v -0.1 -0.2 -0.2
v -0.1 -0.1 -0.2
v -0.1 0 -0.2
v -0.1 0.1 -0.2
v 0 0 -0.2
v 0 0.1 -0.2
v 0.1 0.2 -0.2
v 0.1 0.3 -0.2
v 0.2 0.1 -0.2
v 0.2 0.2 -0.2
v 0.3 0.1 -0.2
v 0.3 0.3 -0.2
v -0.1 -0.2 0.2
v 0.1 -0.2 0.2
v -0.3 -0.2 0
v -0.1 -0.2 0
v 0.1 -0.2 0
v -0.3 -0.2 -0.2
v -0.1 -0.2 -0.2
v 0.1 0 0.1
v 0.2 0 0.1
v 0.1 0 0
v 0.2 0 0
v -0.1 0 -0.1
v 0 0 -0.1
v -0.1 0 -0.2
v 0 0 -0.2
v 0.2 0.1 0
v 0.3 0.1 0
v 0.2 0.1 -0.2
v 0.3 0.1 -0.2
v 0.1 0.2 0
v 0.2 0.2 0
v 0.1 0.2 -0.2
v 0.2 0.2 -0.2
v 0 -0.1 0.2
v 0.1 -0.1 0.2
v 0 -0.1 0.1
v 0.1 -0.1 0.1
v -0.2 -0.1 0
v -0.1 -0.1 0
v -0.2 -0.1 -0.1
v -0.1 -0.1 -0.1
v -0.1 0 0.2
v 0 0 0.2
v 0 0 0.1
v 0.1 0 0.1
v -0.3 0 0
v -0.2 0 0
v -0.1 0 0
v 0 0 0
v 0.1 0 0
v -0.3 0 -0.1
v -0.2 0 -0.1
v -0.1 0 -0.1
v -0.2 0 -0.2
v -0.1 0 -0.2
v 0.1 0.1 0.1
v 0.2 0.1 0.1
v 0.1 0.1 0
v 0.2 0.1 0
v -0.3 0.1 -0.1
v -0.2 0.1 -0.1
v -0.1 0.1 -0.1
v 0 0.1 -0.1
v -0.3 0.1 -0.2
v -0.2 0.1 -0.2
v -0.1 0.1 -0.2
v 0 0.1 -0.2
v 0.1 0.3 0
v 0.3 0.3 0
v 0.1 0.3 -0.2
v 0.3 0.3 -0.2

# faces
f 3/1/1 2/1/1 1/1/1
f 4/1/1 2/1/1 3/1/1
f 5/1/1 2/1/1 4/1/1
f 6/2/1 5/2/1 4/2/1
f 7/2/1 5/2/1 6/2/1
f 10/1/1 9/1/1 8/1/1
f 11/1/1 10/1/1 8/1/1
f 12/1/1 10/1/1 11/1/1
f 15/2/1 14/2/1 13/2/1
f 16/2/1 14/2/1 15/2/1
f 19/2/1 18/2/1 17/2/1
f 20/2/1 18/2/1 19/2/1
f 23/1/1 22/1/1 21/1/1
f 24/1/1 22/1/1 23/1/1
f 27/1/1 26/1/1 25/1/1
f 28/1/1 26/1/1 27/1/1
f 29/1/2 30/1/2 31/1/2
f 31/1/2 30/1/2 32/1/2
f 32/2/2 33/2/2 34/2/2
f 34/2/2 33/2/2 35/2/2
f 36/1/2 37/1/2 38/1/2
f 38/1/2 37/1/2 39/1/2
f 39/1/2 37/1/2 40/1/2
f 39/2/2 40/2/2 41/2/2
f 41/2/2 40/2/2 42/2/2
f 43/1/2 44/1/2 45/1/2
f 45/1/2 44/1/2 46/1/2
f 47/2/2 48/2/2 49/2/2
f 49/2/2 48/2/2 50/2/2
f 51/1/2 52/1/2 53/1/2
f 53/1/2 52/1/2 54/1/2
f 54/1/2 52/1/2 55/1/2
f 54/2/2 55/2/2 56/2/2
f 56/2/2 55/2/2 57/2/2
f 58/2/2 59/2/2 60/2/2
f 60/2/2 59/2/2 61/2/2
f 62/1/2 63/1/2 64/1/2
f 64/1/2 63/1/2 65/1/2
f 68/1/3 67/1/3 66/1/3
f 69/1/3 67/1/3 68/1/3
f 70/1/3 68/1/3 66/1/3
f 71/1/3 68/1/3 70/1/3
f 74/2/3 73/2/3 72/2/3
f 75/2/3 73/2/3 74/2/3
f 77/2/3 76/2/3 75/2/3
f 78/2/3 76/2/3 77/2/3
f 81/1/3 80/1/3 79/1/3
f 82/1/3 80/1/3 81/1/3
f 83/1/3 81/1/3 79/1/3
f 84/1/3 81/1/3 83/1/3
f 88/1/3 86/1/3 85/1/3
f 89/1/3 88/1/3 87/1/3
f 90/1/3 86/1/3 88/1/3
f 90/1/3 88/1/3 89/1/3
f 94/2/3 92/2/3 91/2/3
f 95/2/3 92/2/3 94/2/3
f 96/2/3 94/2/3 93/2/3
f 97/2/3 94/2/3 96/2/3
f 99/2/3 98/2/3 97/2/3
f 100/2/3 98/2/3 99/2/3
f 101/1/4 102/1/4 104/1/4
f 102/1/4 103/1/4 104/1/4
f 104/1/4 103/1/4 105/1/4
f 101/1/4 104/1/4 106/1/4
f 104/2/4 105/2/4 107/2/4
f 106/1/4 104/1/4 107/1/4
f 107/2/4 105/2/4 108/2/4
f 108/2/4 109/2/4 110/2/4
f 110/2/4 109/2/4 111/2/4
f 112/1/4 113/1/4 115/1/4
f 113/2/4 114/2/4 116/2/4
f 115/1/4 113/1/4 116/1/4
f 116/2/4 114/2/4 117/2/4
f 112/1/4 115/1/4 118/1/4
f 115/2/4 116/2/4 119/2/4
f 118/1/4 115/1/4 119/1/4
f 119/2/4 116/2/4 120/2/4
f 120/2/4 121/2/4 122/2/4
f 122/2/4 121/2/4 123/2/4
f 124/1/4 125/1/4 127/1/4
f 126/1/4 127/1/4 128/1/4
f 127/1/4 125/1/4 129/1/4
f 128/1/4 127/1/4 129/1/4
f 133/1/5 131/1/5 130/1/5
f 134/1/5 131/1/5 133/1/5
f 135/1/5 133/1/5 132/1/5
f 136/1/5 133/1/5 135/1/5
f 139/2/5 138/2/5 137/2/5
f 140/2/5 138/2/5 139/2/5
f 143/2/5 142/2/5 141/2/5
f 144/2/5 142/2/5 143/2/5
f 147/1/5 146/1/5 145/1/5
f 148/1/5 146/1/5 147/1/5
f 151/1/5 150/1/5 149/1/5
f 152/1/5 150/1/5 151/1/5
f 153/1/6 154/1/6 155/1/6
f 155/1/6 154/1/6 156/1/6
f 157/1/6 158/1/6 159/1/6
f 159/1/6 158/1/6 160/1/6
f 161/1/6 162/1/6 163/1/6
f 161/1/6 163/1/6 167/1/6
f 163/2/6 164/2/6 168/2/6
f 167/1/6 163/1/6 168/1/6
f 168/2/6 164/2/6 169/2/6
f 165/1/6 166/1/6 170/1/6
f 170/1/6 166/1/6 171/1/6
f 171/2/6 172/2/6 173/2/6
f 173/2/6 172/2/6 174/2/6
f 175/2/6 176/2/6 177/2/6
f 177/2/6 176/2/6 178/2/6
f 179/2/6 180/2/6 183/2/6
f 183/2/6 180/2/6 184/2/6
f 181/2/6 182/2/6 185/2/6
f 185/2/6 182/2/6 186/2/6
f 187/1/6 188/1/6 189/1/6
f 189/1/6 188/1/6 190/1/6
