# MagicaVoxel @ Ephtracy

# group
o 

# material
mtllib cubeland1-24.mtl
usemtl palette

# normals
vn -1 0 0
vn 1 0 0
vn 0 0 1
vn 0 0 -1
vn 0 -1 0
vn 0 1 0

# texcoords
vt 0.00585938 0.5
vt 0.0332031 0.5
vt 0.0917969 0.5

# verts
v -0.4 -0.2 0
v -0.4 -0.2 -0.1
v -0.4 -0.1 0
v -0.4 -0.1 -0.1
v -0.4 -0.1 -0.2
v -0.4 0 -0.1
v -0.4 0 -0.2
v -0.3 -0.2 0.2
v -0.3 -0.2 0
v -0.3 -0.2 -0.1
v -0.3 -0.2 -0.2
v -0.3 -0.2 -0.3
v -0.3 -0.1 0.2
v -0.3 -0.1 0.1
v -0.3 -0.1 0
v -0.3 -0.1 -0.1
v -0.3 -0.1 -0.2
v -0.3 -0.1 -0.3
v -0.3 0 0.1
v -0.3 0 0
v -0.3 0 -0.1
v -0.3 0 -0.2
v -0.3 0.1 0
v -0.3 0.1 -0.1
v -0.3 0.1 -0.2
v -0.3 0.2 0
v -0.3 0.2 -0.1
v -0.2 -0.1 0.2
v -0.2 -0.1 0.1
v -0.2 -0.1 -0.2
v -0.2 -0.1 -0.3
v -0.2 0 0.2
v -0.2 0 0.1
v -0.2 0 0
v -0.2 0 -0.2
v -0.2 0 -0.3
v -0.2 0.1 0.1
v -0.2 0.1 0
v -0.1 0.1 -0.1
v -0.1 0.1 -0.2
v -0.1 0.2 -0.1
v -0.1 0.2 -0.2
v 0 -0.2 0.2
v 0 -0.2 0.1
v 0 -0.1 0.2
v 0 -0.1 0.1
v 0 -0.1 -0.2
v 0 -0.1 -0.3
v 0 0 -0.2
v 0 0 -0.3
v 0 0.1 0.1
v 0 0.1 0
v 0 0.2 0.1
v 0 0.2 0
v 0 0.2 -0.1
v 0 0.3 0
v 0 0.3 -0.1
v 0.1 -0.2 0.3
v 0.1 -0.2 0.2
v 0.1 -0.1 0.3
v 0.1 -0.1 0.2
v 0.1 -0.1 0.1
v 0.1 0 0.3
v 0.1 0 0.2
v 0.1 0 0.1
v 0.1 0 -0.2
v 0.1 0 -0.3
v 0.1 0.1 0.2
v 0.1 0.1 0.1
v 0.1 0.1 -0.2
v 0.1 0.1 -0.3
v 0.1 0.2 0.2
v 0.1 0.2 0.1
v 0.1 0.2 0
v 0.1 0.2 -0.1
v 0.1 0.2 -0.2
v 0.1 0.3 0.1
v 0.1 0.3 0
v 0.1 0.3 -0.1
v 0.1 0.3 -0.2
v 0.2 -0.2 -0.2
v 0.2 -0.2 -0.3
v 0.2 -0.1 -0.2
v 0.2 -0.1 -0.3
v -0.1 -0.2 0.2
v -0.1 -0.2 0.1
v -0.1 -0.1 0.2
v -0.1 -0.1 0.1
v -0.1 -0.1 -0.2
v -0.1 -0.1 -0.3
v -0.1 0 -0.2
v -0.1 0 -0.3
v 0 -0.2 -0.2
v 0 -0.2 -0.3
v 0 -0.1 0.2
v 0 -0.1 0.1
v 0 -0.1 -0.2
v 0 -0.1 -0.3
v 0 0 0.2
v 0 0 0.1
v 0.2 -0.1 0.3
v 0.2 -0.1 0.2
v 0.2 -0.1 -0.2
v 0.2 -0.1 -0.3
v 0.2 0 0.3
v 0.2 0 0.2
v 0.2 0 -0.2
v 0.2 0 -0.3
v 0.2 0.1 0.2
v 0.2 0.1 0.1
v 0.2 0.1 -0.2
v 0.2 0.1 -0.3
v 0.2 0.2 0.2
v 0.2 0.2 0.1
v 0.2 0.2 0
v 0.2 0.2 -0.1
v 0.2 0.2 -0.2
v 0.2 0.3 0.1
v 0.2 0.3 0
v 0.2 0.3 -0.1
v 0.2 0.3 -0.2
v 0.3 -0.2 -0.2
v 0.3 -0.2 -0.3
v 0.3 -0.1 -0.1
v 0.3 -0.1 -0.2
v 0.3 -0.1 -0.3
v 0.3 0 0.2
v 0.3 0 0.1
v 0.3 0 -0.1
v 0.3 0 -0.2
v 0.3 0.1 0.2
v 0.3 0.1 0.1
v 0.3 0.1 0
v 0.3 0.1 -0.1
v 0.3 0.1 -0.2
v 0.3 0.2 0.1
v 0.3 0.2 0
v 0.3 0.2 -0.1
v 0.3 0.2 -0.2
v 0.3 0.3 0
v 0.3 0.3 -0.1
v 0.4 -0.2 0.3
v 0.4 -0.2 0.2
v 0.4 -0.2 -0.2
v 0.4 -0.1 0.3
v 0.4 -0.1 0.2
v 0.4 -0.1 0.1
v 0.4 -0.1 0
v 0.4 -0.1 -0.1
v 0.4 -0.1 -0.2
v 0.4 0 0.2
v 0.4 0 0.1
v 0.4 0 0
v 0.4 0 -0.1
v 0.4 0 -0.2
v 0.4 0.1 0.1
v 0.4 0.1 0
v 0.4 0.1 -0.1
v 0.4 0.1 -0.2
v 0.4 0.2 0
v 0.4 0.2 -0.1
v 0.5 -0.1 0.1
v 0.5 -0.1 0
v 0.5 0 0.1
v 0.5 0 0
v 0.5 0 -0.1
v 0.5 0.1 0
v 0.5 0.1 -0.1
v 0.1 -0.2 0.3
v 0.1 -0.1 0.3
v 0.1 0 0.3
v 0.2 -0.1 0.3
v 0.2 0 0.3
v 0.3 -0.2 0.3
v 0.3 -0.1 0.3
v 0.4 -0.2 0.3
v 0.4 -0.1 0.3
v -0.3 -0.2 0.2
v -0.3 -0.1 0.2
v -0.2 -0.1 0.2
v -0.2 0 0.2
v -0.1 -0.2 0.2
v -0.1 -0.1 0.2
v -0.1 0 0.2
v 0 -0.2 0.2
v 0 -0.1 0.2
v 0 0 0.2
v 0.1 -0.2 0.2
v 0.1 -0.1 0.2
v 0.1 0 0.2
v 0.1 0.1 0.2
v 0.1 0.2 0.2
v 0.2 -0.1 0.2
v 0.2 0 0.2
v 0.2 0.1 0.2
v 0.2 0.2 0.2
v 0.3 -0.1 0.2
v 0.3 0 0.2
v 0.3 0.1 0.2
v 0.4 -0.1 0.2
v 0.4 0 0.2
v -0.3 -0.1 0.1
v -0.3 0 0.1
v -0.2 -0.1 0.1
v -0.2 0 0.1
v -0.2 0.1 0.1
v -0.1 -0.2 0.1
v -0.1 -0.1 0.1
v -0.1 0 0.1
v 0 -0.2 0.1
v 0 -0.1 0.1
v 0 0 0.1
v 0 0.1 0.1
v 0 0.2 0.1
v 0.1 -0.1 0.1
v 0.1 0 0.1
v 0.1 0.1 0.1
v 0.1 0.2 0.1
v 0.1 0.3 0.1
v 0.2 0.1 0.1
v 0.2 0.2 0.1
v 0.2 0.3 0.1
v 0.3 0 0.1
v 0.3 0.1 0.1
v 0.3 0.2 0.1
v 0.4 -0.1 0.1
v 0.4 0 0.1
v 0.4 0.1 0.1
v 0.5 -0.1 0.1
v 0.5 0 0.1
v -0.4 -0.2 0
v -0.4 -0.1 0
v -0.3 -0.2 0
v -0.3 -0.1 0
v -0.3 0 0
v -0.3 0.1 0
v -0.3 0.2 0
v -0.2 0 0
v -0.2 0.1 0
v -0.2 0.2 0
v -0.1 0.1 0
v -0.1 0.2 0
v 0 0.1 0
v 0 0.2 0
v 0 0.3 0
v 0.1 0.2 0
v 0.1 0.3 0
v 0.2 0.2 0
v 0.2 0.3 0
v 0.3 0.1 0
v 0.3 0.2 0
v 0.3 0.3 0
v 0.4 0 0
v 0.4 0.1 0
v 0.4 0.2 0
v 0.5 0 0
v 0.5 0.1 0
v -0.4 -0.1 -0.1
v -0.4 0 -0.1
v -0.3 -0.1 -0.1
v -0.3 0 -0.1
v 0.4 -0.1 0
v 0.4 0 0
v 0.5 -0.1 0
v 0.5 0 0
v -0.4 -0.2 -0.1
v -0.4 -0.1 -0.1
v -0.3 -0.2 -0.1
v -0.3 -0.1 -0.1
v -0.3 0.1 -0.1
v -0.3 0.2 -0.1
v -0.2 0.1 -0.1
v -0.2 0.2 -0.1
v -0.1 0.1 -0.1
v -0.1 0.2 -0.1
v 0 0.2 -0.1
v 0 0.3 -0.1
v 0.1 0.2 -0.1
v 0.1 0.3 -0.1
v 0.2 0.2 -0.1
v 0.2 0.3 -0.1
v 0.3 -0.1 -0.1
v 0.3 0 -0.1
v 0.3 0.1 -0.1
v 0.3 0.2 -0.1
v 0.3 0.3 -0.1
v 0.4 -0.1 -0.1
v 0.4 0 -0.1
v 0.4 0.1 -0.1
v 0.4 0.2 -0.1
v 0.5 0 -0.1
v 0.5 0.1 -0.1
v -0.4 -0.1 -0.2
v -0.4 0 -0.2
v -0.3 -0.1 -0.2
v -0.3 0 -0.2
v -0.3 0.1 -0.2
v -0.2 -0.1 -0.2
v -0.2 0 -0.2
v -0.1 -0.1 -0.2
v -0.1 0 -0.2
v -0.1 0.1 -0.2
v -0.1 0.2 -0.2
v 0 -0.2 -0.2
v 0 -0.1 -0.2
v 0 0 -0.2
v 0.1 0 -0.2
v 0.1 0.1 -0.2
v 0.1 0.2 -0.2
v 0.1 0.3 -0.2
v 0.2 -0.2 -0.2
v 0.2 -0.1 -0.2
v 0.2 0 -0.2
v 0.2 0.1 -0.2
v 0.2 0.2 -0.2
v 0.2 0.3 -0.2
v 0.3 -0.2 -0.2
v 0.3 -0.1 -0.2
v 0.3 0 -0.2
v 0.3 0.1 -0.2
v 0.3 0.2 -0.2
v 0.4 -0.2 -0.2
v 0.4 -0.1 -0.2
v 0.4 0 -0.2
v 0.4 0.1 -0.2
v -0.3 -0.2 -0.3
v -0.3 -0.1 -0.3
v -0.2 -0.2 -0.3
v -0.2 -0.1 -0.3
v -0.2 0 -0.3
v -0.1 -0.1 -0.3
v -0.1 0 -0.3
v 0 -0.2 -0.3
v 0 -0.1 -0.3
v 0 0 -0.3
v 0.1 0 -0.3
v 0.1 0.1 -0.3
v 0.2 -0.2 -0.3
v 0.2 -0.1 -0.3
v 0.2 0 -0.3
v 0.2 0.1 -0.3
v 0.3 -0.2 -0.3
v 0.3 -0.1 -0.3
v 0.1 -0.2 0.3
v 0.3 -0.2 0.3
v 0.4 -0.2 0.3
v -0.3 -0.2 0.2
v -0.1 -0.2 0.2
v 0 -0.2 0.2
v 0.1 -0.2 0.2
v 0.3 -0.2 0.2
v 0.4 -0.2 0.2
v -0.1 -0.2 0.1
v 0 -0.2 0.1
v -0.4 -0.2 0
v -0.3 -0.2 0
v -0.4 -0.2 -0.1
v -0.3 -0.2 -0.1
v -0.3 -0.2 -0.2
v -0.2 -0.2 -0.2
v 0 -0.2 -0.2
v 0.2 -0.2 -0.2
v 0.3 -0.2 -0.2
v 0.4 -0.2 -0.2
v -0.3 -0.2 -0.3
v -0.2 -0.2 -0.3
v 0 -0.2 -0.3
v 0.2 -0.2 -0.3
v 0.3 -0.2 -0.3
v -0.1 -0.1 0.2
v 0 -0.1 0.2
v -0.1 -0.1 0.1
v 0 -0.1 0.1
v 0.4 -0.1 0.1
v 0.5 -0.1 0.1
v 0.4 -0.1 0
v 0.5 -0.1 0
v -0.4 -0.1 -0.1
v -0.3 -0.1 -0.1
v -0.4 -0.1 -0.2
v -0.3 -0.1 -0.2
v 0 -0.1 -0.2
v 0.2 -0.1 -0.2
v 0 -0.1 -0.3
v 0.2 -0.1 -0.3
v 0.4 0 0
v 0.5 0 0
v 0.3 0 -0.1
v 0.4 0 -0.1
v 0.5 0 -0.1
v 0.3 0 -0.2
v 0.4 0 -0.2
v 0.2 -0.1 0.3
v 0.3 -0.1 0.3
v 0.4 -0.1 0.3
v -0.3 -0.1 0.2
v -0.2 -0.1 0.2
v 0 -0.1 0.2
v 0.1 -0.1 0.2
v 0.2 -0.1 0.2
v 0.3 -0.1 0.2
v 0.4 -0.1 0.2
v -0.3 -0.1 0.1
v -0.2 -0.1 0.1
v 0 -0.1 0.1
v 0.1 -0.1 0.1
v -0.4 -0.1 0
v -0.3 -0.1 0
v -0.4 -0.1 -0.1
v -0.3 -0.1 -0.1
v 0.3 -0.1 -0.1
v 0.4 -0.1 -0.1
v -0.3 -0.1 -0.2
v -0.2 -0.1 -0.2
v -0.1 -0.1 -0.2
v 0 -0.1 -0.2
v 0.2 -0.1 -0.2
v 0.3 -0.1 -0.2
v 0.4 -0.1 -0.2
v -0.3 -0.1 -0.3
v -0.2 -0.1 -0.3
v -0.1 -0.1 -0.3
v 0 -0.1 -0.3
v 0.2 -0.1 -0.3
v 0.3 -0.1 -0.3
v 0.1 0 0.3
v 0.2 0 0.3
v -0.2 0 0.2
v -0.1 0 0.2
v 0 0 0.2
v 0.1 0 0.2
v 0.2 0 0.2
v 0.3 0 0.2
v 0.4 0 0.2
v -0.3 0 0.1
v -0.2 0 0.1
v -0.1 0 0.1
v 0 0 0.1
v 0.3 0 0.1
v 0.4 0 0.1
v 0.5 0 0.1
v -0.3 0 0
v -0.2 0 0
v 0.4 0 0
v 0.5 0 0
v -0.4 0 -0.1
v -0.3 0 -0.1
v -0.4 0 -0.2
v -0.3 0 -0.2
v -0.2 0 -0.2
v -0.1 0 -0.2
v 0 0 -0.2
v 0.1 0 -0.2
v -0.2 0 -0.3
v -0.1 0 -0.3
v 0 0 -0.3
v 0.1 0 -0.3
v 0.2 0.1 0.2
v 0.3 0.1 0.2
v -0.2 0.1 0.1
v 0 0.1 0.1
v 0.2 0.1 0.1
v 0.3 0.1 0.1
v 0.4 0.1 0.1
v -0.2 0.1 0
v -0.1 0.1 0
v 0 0.1 0
v 0.3 0.1 0
v 0.4 0.1 0
v 0.5 0.1 0
v -0.3 0.1 -0.1
v -0.2 0.1 -0.1
v -0.1 0.1 -0.1
v 0.3 0.1 -0.1
v 0.4 0.1 -0.1
v 0.5 0.1 -0.1
v -0.3 0.1 -0.2
v -0.1 0.1 -0.2
v 0.1 0.1 -0.2
v 0.2 0.1 -0.2
v 0.3 0.1 -0.2
v 0.4 0.1 -0.2
v 0.1 0.1 -0.3
v 0.2 0.1 -0.3
v 0.1 0.2 0.2
v 0.2 0.2 0.2
v 0 0.2 0.1
v 0.1 0.2 0.1
v 0.2 0.2 0.1
v 0.3 0.2 0.1
v -0.3 0.2 0
v -0.2 0.2 0
v -0.1 0.2 0
v 0 0.2 0
v 0.1 0.2 0
v 0.2 0.2 0
v 0.3 0.2 0
v 0.4 0.2 0
v -0.3 0.2 -0.1
v -0.2 0.2 -0.1
v -0.1 0.2 -0.1
v 0 0.2 -0.1
v 0.1 0.2 -0.1
v 0.2 0.2 -0.1
v 0.3 0.2 -0.1
v 0.4 0.2 -0.1
v -0.1 0.2 -0.2
v 0.1 0.2 -0.2
v 0.2 0.2 -0.2
v 0.3 0.2 -0.2
v 0.1 0.3 0.1
v 0.2 0.3 0.1
v 0 0.3 0
v 0.1 0.3 0
v 0.2 0.3 0
v 0.3 0.3 0
v 0 0.3 -0.1
v 0.1 0.3 -0.1
v 0.2 0.3 -0.1
v 0.3 0.3 -0.1
v 0.1 0.3 -0.2
v 0.2 0.3 -0.2

# faces
f 3/2/1 2/2/1 1/2/1
f 4/2/1 2/2/1 3/2/1
f 6/2/1 5/2/1 4/2/1
f 7/2/1 5/2/1 6/2/1
f 13/2/1 9/2/1 8/2/1
f 14/2/1 9/2/1 13/2/1
f 15/2/1 9/2/1 14/2/1
f 16/2/1 11/2/1 10/2/1
f 17/1/1 12/1/1 11/1/1
f 17/2/1 11/2/1 16/2/1
f 18/1/1 12/1/1 17/1/1
f 19/1/1 15/1/1 14/1/1
f 20/2/1 16/2/1 15/2/1
f 20/1/1 15/1/1 19/1/1
f 21/2/1 16/2/1 20/2/1
f 23/2/1 22/2/1 21/2/1
f 23/2/1 21/2/1 20/2/1
f 24/2/1 22/2/1 23/2/1
f 25/2/1 22/2/1 24/2/1
f 26/3/1 24/3/1 23/3/1
f 27/3/1 24/3/1 26/3/1
f 32/3/1 29/3/1 28/3/1
f 33/3/1 29/3/1 32/3/1
f 35/1/1 31/1/1 30/1/1
f 36/1/1 31/1/1 35/1/1
f 37/2/1 34/2/1 33/2/1
f 38/2/1 34/2/1 37/2/1
f 41/2/1 40/2/1 39/2/1
f 42/2/1 40/2/1 41/2/1
f 45/2/1 44/2/1 43/2/1
f 46/2/1 44/2/1 45/2/1
f 49/2/1 48/2/1 47/2/1
f 50/2/1 48/2/1 49/2/1
f 53/1/1 52/1/1 51/1/1
f 54/1/1 52/1/1 53/1/1
f 56/1/1 55/1/1 54/1/1
f 57/1/1 55/1/1 56/1/1
f 60/2/1 59/2/1 58/2/1
f 61/2/1 59/2/1 60/2/1
f 63/1/1 61/1/1 60/1/1
f 64/2/1 62/2/1 61/2/1
f 64/1/1 61/1/1 63/1/1
f 65/2/1 62/2/1 64/2/1
f 68/1/1 65/1/1 64/1/1
f 69/1/1 65/1/1 68/1/1
f 70/1/1 67/1/1 66/1/1
f 71/1/1 67/1/1 70/1/1
f 72/2/1 69/2/1 68/2/1
f 73/2/1 69/2/1 72/2/1
f 77/3/1 74/3/1 73/3/1
f 78/3/1 74/3/1 77/3/1
f 79/2/1 76/2/1 75/2/1
f 80/2/1 76/2/1 79/2/1
f 83/2/1 82/2/1 81/2/1
f 84/2/1 82/2/1 83/2/1
f 85/2/2 86/2/2 87/2/2
f 87/2/2 86/2/2 88/2/2
f 89/1/2 90/1/2 91/1/2
f 91/1/2 90/1/2 92/1/2
f 93/2/2 94/2/2 97/2/2
f 97/2/2 94/2/2 98/2/2
f 95/1/2 96/1/2 99/1/2
f 99/1/2 96/1/2 100/1/2
f 101/1/2 102/1/2 105/1/2
f 105/1/2 102/1/2 106/1/2
f 103/2/2 104/2/2 107/2/2
f 107/2/2 104/2/2 108/2/2
f 107/1/2 108/1/2 111/1/2
f 111/1/2 108/1/2 112/1/2
f 109/2/2 110/2/2 113/2/2
f 113/2/2 110/2/2 114/2/2
f 114/3/2 115/3/2 118/3/2
f 118/3/2 115/3/2 119/3/2
f 116/2/2 117/2/2 120/2/2
f 120/2/2 117/2/2 121/2/2
f 122/2/2 123/2/2 125/2/2
f 125/2/2 123/2/2 126/2/2
f 124/2/2 125/2/2 129/2/2
f 129/2/2 125/2/2 130/2/2
f 127/1/2 128/1/2 131/1/2
f 131/1/2 128/1/2 132/1/2
f 132/2/2 133/2/2 136/2/2
f 136/2/2 133/2/2 137/2/2
f 134/1/2 135/1/2 138/1/2
f 138/1/2 135/1/2 139/1/2
f 137/2/2 138/2/2 140/2/2
f 140/2/2 138/2/2 141/2/2
f 142/1/2 143/1/2 145/1/2
f 143/2/2 144/2/2 146/2/2
f 145/1/2 143/1/2 146/1/2
f 146/2/2 144/2/2 147/2/2
f 147/2/2 144/2/2 148/2/2
f 148/2/2 144/2/2 149/2/2
f 149/2/2 144/2/2 150/2/2
f 146/2/2 147/2/2 151/2/2
f 151/2/2 147/2/2 152/2/2
f 148/2/2 149/2/2 153/2/2
f 153/2/2 149/2/2 154/2/2
f 152/2/2 153/2/2 156/2/2
f 156/2/2 153/2/2 157/2/2
f 154/1/2 155/1/2 158/1/2
f 158/1/2 155/1/2 159/1/2
f 157/1/2 158/1/2 160/1/2
f 160/1/2 158/1/2 161/1/2
f 162/2/2 163/2/2 164/2/2
f 164/2/2 163/2/2 165/2/2
f 165/2/2 166/2/2 167/2/2
f 167/2/2 166/2/2 168/2/2
f 172/2/3 170/2/3 169/2/3
f 172/1/3 171/1/3 170/1/3
f 173/1/3 171/1/3 172/1/3
f 174/2/3 172/2/3 169/2/3
f 175/2/3 172/2/3 174/2/3
f 176/1/3 175/1/3 174/1/3
f 177/1/3 175/1/3 176/1/3
f 180/2/3 179/2/3 178/2/3
f 182/2/3 180/2/3 178/2/3
f 183/3/3 181/3/3 180/3/3
f 183/2/3 180/2/3 182/2/3
f 184/3/3 181/3/3 183/3/3
f 186/1/3 184/1/3 183/1/3
f 187/1/3 184/1/3 186/1/3
f 188/2/3 186/2/3 185/2/3
f 189/2/3 186/2/3 188/2/3
f 194/1/3 191/1/3 190/1/3
f 195/2/3 192/2/3 191/2/3
f 195/1/3 191/1/3 194/1/3
f 196/2/3 192/2/3 195/2/3
f 197/2/3 194/2/3 193/2/3
f 198/1/3 195/1/3 194/1/3
f 198/2/3 194/2/3 197/2/3
f 199/1/3 195/1/3 198/1/3
f 200/2/3 198/2/3 197/2/3
f 201/2/3 198/2/3 200/2/3
f 204/1/3 203/1/3 202/1/3
f 205/1/3 203/1/3 204/1/3
f 209/2/3 206/2/3 205/2/3
f 210/2/3 208/2/3 207/2/3
f 211/2/3 208/2/3 210/2/3
f 212/2/3 206/2/3 209/2/3
f 213/2/3 206/2/3 212/2/3
f 215/2/3 212/2/3 211/2/3
f 215/2/3 213/2/3 212/2/3
f 216/2/3 213/2/3 215/2/3
f 217/1/3 214/1/3 213/1/3
f 217/2/3 213/2/3 216/2/3
f 218/1/3 214/1/3 217/1/3
f 221/3/3 219/3/3 218/3/3
f 222/3/3 219/3/3 221/3/3
f 224/2/3 221/2/3 220/2/3
f 225/2/3 221/2/3 224/2/3
f 227/2/3 224/2/3 223/2/3
f 228/2/3 224/2/3 227/2/3
f 229/2/3 227/2/3 226/2/3
f 230/2/3 227/2/3 229/2/3
f 233/2/3 232/2/3 231/2/3
f 234/2/3 232/2/3 233/2/3
f 238/2/3 236/2/3 235/2/3
f 239/3/3 237/3/3 236/3/3
f 239/2/3 236/2/3 238/2/3
f 240/3/3 237/3/3 239/3/3
f 241/1/3 240/1/3 239/1/3
f 242/1/3 240/1/3 241/1/3
f 243/2/3 242/2/3 241/2/3
f 244/2/3 242/2/3 243/2/3
f 246/1/3 245/1/3 244/1/3
f 247/1/3 245/1/3 246/1/3
f 251/2/3 249/2/3 248/2/3
f 252/2/3 249/2/3 251/2/3
f 254/1/3 251/1/3 250/1/3
f 255/1/3 251/1/3 254/1/3
f 256/2/3 254/2/3 253/2/3
f 257/2/3 254/2/3 256/2/3
f 260/2/3 259/2/3 258/2/3
f 261/2/3 259/2/3 260/2/3
f 262/2/4 263/2/4 264/2/4
f 264/2/4 263/2/4 265/2/4
f 266/2/4 267/2/4 268/2/4
f 268/2/4 267/2/4 269/2/4
f 270/3/4 271/3/4 272/3/4
f 272/3/4 271/3/4 273/3/4
f 272/1/4 273/1/4 274/1/4
f 274/1/4 273/1/4 275/1/4
f 276/1/4 277/1/4 278/1/4
f 278/1/4 277/1/4 279/1/4
f 280/2/4 281/2/4 285/2/4
f 285/2/4 281/2/4 286/2/4
f 282/2/4 283/2/4 287/2/4
f 287/2/4 283/2/4 288/2/4
f 284/1/4 285/1/4 289/1/4
f 289/1/4 285/1/4 290/1/4
f 288/2/4 289/2/4 291/2/4
f 291/2/4 289/2/4 292/2/4
f 293/2/4 294/2/4 295/2/4
f 295/2/4 294/2/4 296/2/4
f 295/2/4 296/2/4 298/2/4
f 296/2/4 297/2/4 298/2/4
f 298/2/4 297/2/4 299/2/4
f 299/2/4 297/2/4 301/2/4
f 301/2/4 297/2/4 302/2/4
f 300/2/4 301/2/4 305/2/4
f 302/2/4 303/2/4 305/2/4
f 301/2/4 302/2/4 305/2/4
f 305/2/4 303/2/4 306/2/4
f 306/2/4 303/2/4 307/2/4
f 307/2/4 303/2/4 308/2/4
f 308/2/4 303/2/4 309/2/4
f 304/2/4 305/2/4 311/2/4
f 311/2/4 305/2/4 312/2/4
f 309/2/4 310/2/4 314/2/4
f 308/2/4 309/2/4 314/2/4
f 314/2/4 310/2/4 315/2/4
f 315/2/4 310/2/4 316/2/4
f 312/2/4 313/2/4 318/2/4
f 313/2/4 314/2/4 318/2/4
f 318/2/4 314/2/4 319/2/4
f 314/1/4 315/1/4 320/1/4
f 319/2/4 314/2/4 320/2/4
f 320/1/4 315/1/4 321/1/4
f 317/2/4 318/2/4 322/2/4
f 322/2/4 318/2/4 323/2/4
f 319/1/4 320/1/4 324/1/4
f 324/1/4 320/1/4 325/1/4
f 326/1/4 327/1/4 328/1/4
f 328/1/4 327/1/4 329/1/4
f 328/2/4 329/2/4 331/2/4
f 329/1/4 330/1/4 331/1/4
f 331/1/4 330/1/4 332/1/4
f 328/2/4 331/2/4 333/2/4
f 333/2/4 331/2/4 334/2/4
f 334/2/4 335/2/4 336/2/4
f 334/2/4 336/2/4 339/2/4
f 336/1/4 337/1/4 340/1/4
f 339/2/4 336/2/4 340/2/4
f 340/1/4 337/1/4 341/1/4
f 338/2/4 339/2/4 342/2/4
f 342/2/4 339/2/4 343/2/4
f 350/2/5 345/2/5 344/2/5
f 351/1/5 346/1/5 345/1/5
f 351/2/5 345/2/5 350/2/5
f 352/1/5 346/1/5 351/1/5
f 353/2/5 348/2/5 347/2/5
f 354/2/5 350/2/5 349/2/5
f 354/2/5 351/2/5 350/2/5
f 354/2/5 352/2/5 351/2/5
f 356/2/5 353/2/5 347/2/5
f 356/2/5 354/2/5 353/2/5
f 357/2/5 356/2/5 355/2/5
f 358/2/5 354/2/5 356/2/5
f 358/2/5 356/2/5 357/2/5
f 359/2/5 354/2/5 358/2/5
f 360/2/5 354/2/5 359/2/5
f 361/2/5 352/2/5 354/2/5
f 361/2/5 354/2/5 360/2/5
f 362/2/5 352/2/5 361/2/5
f 363/2/5 352/2/5 362/2/5
f 364/2/5 352/2/5 363/2/5
f 365/1/5 360/1/5 359/1/5
f 366/2/5 361/2/5 360/2/5
f 366/1/5 360/1/5 365/1/5
f 367/2/5 361/2/5 366/2/5
f 368/2/5 363/2/5 362/2/5
f 369/2/5 363/2/5 368/2/5
f 372/1/5 371/1/5 370/1/5
f 373/1/5 371/1/5 372/1/5
f 376/2/5 375/2/5 374/2/5
f 377/2/5 375/2/5 376/2/5
f 380/2/5 379/2/5 378/2/5
f 381/2/5 379/2/5 380/2/5
f 384/2/5 383/2/5 382/2/5
f 385/2/5 383/2/5 384/2/5
f 389/2/5 387/2/5 386/2/5
f 390/2/5 387/2/5 389/2/5
f 391/1/5 389/1/5 388/1/5
f 392/1/5 389/1/5 391/1/5
f 393/2/6 394/2/6 400/2/6
f 394/1/6 395/1/6 401/1/6
f 400/2/6 394/2/6 401/2/6
f 401/1/6 395/1/6 402/1/6
f 396/2/6 397/2/6 403/2/6
f 403/2/6 397/2/6 404/2/6
f 398/2/6 399/2/6 405/2/6
f 405/2/6 399/2/6 406/2/6
f 407/2/6 408/2/6 409/2/6
f 409/2/6 408/2/6 410/2/6
f 411/2/6 412/2/6 418/2/6
f 418/2/6 412/2/6 419/2/6
f 413/1/6 414/1/6 420/1/6
f 420/1/6 414/1/6 421/1/6
f 415/2/6 416/2/6 422/2/6
f 422/2/6 416/2/6 423/2/6
f 417/2/6 418/2/6 424/2/6
f 424/2/6 418/2/6 425/2/6
f 426/1/6 427/1/6 431/1/6
f 431/1/6 427/1/6 432/1/6
f 428/3/6 429/3/6 436/3/6
f 429/1/6 430/1/6 437/1/6
f 436/3/6 429/3/6 437/3/6
f 437/1/6 430/1/6 438/1/6
f 433/2/6 434/2/6 439/2/6
f 439/2/6 434/2/6 440/2/6
f 435/1/6 436/1/6 442/1/6
f 442/1/6 436/1/6 443/1/6
f 440/2/6 441/2/6 444/2/6
f 444/2/6 441/2/6 445/2/6
f 446/2/6 447/2/6 448/2/6
f 448/2/6 447/2/6 449/2/6
f 450/1/6 451/1/6 454/1/6
f 454/1/6 451/1/6 455/1/6
f 452/2/6 453/2/6 456/2/6
f 456/2/6 453/2/6 457/2/6
f 458/1/6 459/1/6 462/1/6
f 462/1/6 459/1/6 463/1/6
f 460/2/6 461/2/6 465/2/6
f 465/2/6 461/2/6 466/2/6
f 466/2/6 461/2/6 467/2/6
f 463/2/6 464/2/6 468/2/6
f 468/2/6 464/2/6 469/2/6
f 469/2/6 470/2/6 475/2/6
f 475/2/6 470/2/6 476/2/6
f 472/2/6 473/2/6 477/2/6
f 471/2/6 472/2/6 477/2/6
f 477/2/6 473/2/6 478/2/6
f 474/1/6 475/1/6 481/1/6
f 481/1/6 475/1/6 482/1/6
f 479/1/6 480/1/6 483/1/6
f 483/1/6 480/1/6 484/1/6
f 485/2/6 486/2/6 488/2/6
f 488/2/6 486/2/6 489/2/6
f 487/1/6 488/1/6 494/1/6
f 494/1/6 488/1/6 495/1/6
f 489/2/6 490/2/6 496/2/6
f 496/2/6 490/2/6 497/2/6
f 491/3/6 492/3/6 499/3/6
f 492/1/6 493/1/6 500/1/6
f 499/3/6 492/3/6 500/3/6
f 493/2/6 494/2/6 501/2/6
f 500/1/6 493/1/6 501/1/6
f 501/2/6 494/2/6 502/2/6
f 497/1/6 498/1/6 505/1/6
f 505/1/6 498/1/6 506/1/6
f 502/2/6 503/2/6 507/2/6
f 501/2/6 502/2/6 507/2/6
f 507/2/6 503/2/6 508/2/6
f 504/1/6 505/1/6 509/1/6
f 509/1/6 505/1/6 510/1/6
f 511/3/6 512/3/6 514/3/6
f 514/3/6 512/3/6 515/3/6
f 513/1/6 514/1/6 517/1/6
f 515/2/6 516/2/6 518/2/6
f 517/1/6 514/1/6 518/1/6
f 514/2/6 515/2/6 518/2/6
f 518/2/6 516/2/6 519/2/6
f 519/2/6 516/2/6 520/2/6
f 518/2/6 519/2/6 521/2/6
f 521/2/6 519/2/6 522/2/6
