# MagicaVoxel @ Ephtracy

# group
o 

# material
mtllib cubeland1-39.mtl
usemtl palette

# normals
vn -1 0 0
vn 1 0 0
vn 0 0 1
vn 0 0 -1
vn 0 -1 0
vn 0 1 0

# texcoords
vt 0.00195312 0.5
vt 0.0136719 0.5
vt 0.0175781 0.5
vt 0.0214844 0.5
vt 0.0292969 0.5

# verts
v -0.2 0.5 0
v -0.2 0.5 -0.1
v -0.2 0.6 0
v -0.2 0.6 -0.1
v -0.1 0.4 0
v -0.1 0.4 -0.1
v -0.1 0.5 0
v -0.1 0.5 -0.1
v -0.1 0.6 0
v -0.1 0.6 -0.1
v -0.1 0.7 0
v -0.1 0.7 -0.1
v 0 -0.8 0
v 0 -0.8 -0.1
v 0 -0.1 0
v 0 -0.1 -0.1
v 0 0.2 0
v 0 0.2 -0.1
v 0 0.3 0
v 0 0.3 -0.1
v 0 0.4 0
v 0 0.4 -0.1
v 0 0.7 0
v 0 0.7 -0.1
v 0 0.9 0
v 0 0.9 -0.1
v 0.1 -0.8 0
v 0.1 -0.8 -0.1
v 0.1 -0.1 0
v 0.1 -0.1 -0.1
v 0.1 0.2 0
v 0.1 0.2 -0.1
v 0.1 0.3 0
v 0.1 0.3 -0.1
v 0.1 0.4 0
v 0.1 0.4 -0.1
v 0.1 0.7 0
v 0.1 0.7 -0.1
v 0.1 0.9 0
v 0.1 0.9 -0.1
v 0.2 0.4 0
v 0.2 0.4 -0.1
v 0.2 0.5 0
v 0.2 0.5 -0.1
v 0.2 0.6 0
v 0.2 0.6 -0.1
v 0.2 0.7 0
v 0.2 0.7 -0.1
v 0.3 0.5 0
v 0.3 0.5 -0.1
v 0.3 0.6 0
v 0.3 0.6 -0.1
v -0.2 0.5 0
v -0.2 0.6 0
v -0.1 0.4 0
v -0.1 0.5 0
v -0.1 0.6 0
v -0.1 0.7 0
v 0 -0.8 0
v 0 -0.1 0
v 0 0.2 0
v 0 0.3 0
v 0 0.4 0
v 0 0.5 0
v 0 0.6 0
v 0 0.7 0
v 0 0.9 0
v 0.1 -0.8 0
v 0.1 -0.1 0
v 0.1 0.2 0
v 0.1 0.3 0
v 0.1 0.4 0
v 0.1 0.5 0
v 0.1 0.6 0
v 0.1 0.7 0
v 0.1 0.9 0
v 0.2 0.4 0
v 0.2 0.5 0
v 0.2 0.6 0
v 0.2 0.7 0
v 0.3 0.5 0
v 0.3 0.6 0
v -0.2 0.5 -0.1
v -0.2 0.6 -0.1
v -0.1 0.4 -0.1
v -0.1 0.5 -0.1
v -0.1 0.6 -0.1
v -0.1 0.7 -0.1
v 0 -0.8 -0.1
v 0 -0.1 -0.1
v 0 0.2 -0.1
v 0 0.3 -0.1
v 0 0.4 -0.1
v 0 0.5 -0.1
v 0 0.6 -0.1
v 0 0.7 -0.1
v 0 0.9 -0.1
v 0.1 -0.8 -0.1
v 0.1 -0.1 -0.1
v 0.1 0.2 -0.1
v 0.1 0.3 -0.1
v 0.1 0.4 -0.1
v 0.1 0.5 -0.1
v 0.1 0.6 -0.1
v 0.1 0.7 -0.1
v 0.1 0.9 -0.1
v 0.2 0.4 -0.1
v 0.2 0.5 -0.1
v 0.2 0.6 -0.1
v 0.2 0.7 -0.1
v 0.3 0.5 -0.1
v 0.3 0.6 -0.1
v 0 -0.8 0
v 0.1 -0.8 0
v 0 -0.8 -0.1
v 0.1 -0.8 -0.1
v -0.1 0.4 0
v 0 0.4 0
v 0.1 0.4 0
v 0.2 0.4 0
v -0.1 0.4 -0.1
v 0 0.4 -0.1
v 0.1 0.4 -0.1
v 0.2 0.4 -0.1
v -0.2 0.5 0
v -0.1 0.5 0
v 0.2 0.5 0
v 0.3 0.5 0
v -0.2 0.5 -0.1
v -0.1 0.5 -0.1
v 0.2 0.5 -0.1
v 0.3 0.5 -0.1
v -0.2 0.6 0
v -0.1 0.6 0
v 0.2 0.6 0
v 0.3 0.6 0
v -0.2 0.6 -0.1
v -0.1 0.6 -0.1
v 0.2 0.6 -0.1
v 0.3 0.6 -0.1
v -0.1 0.7 0
v 0 0.7 0
v 0.1 0.7 0
v 0.2 0.7 0
v -0.1 0.7 -0.1
v 0 0.7 -0.1
v 0.1 0.7 -0.1
v 0.2 0.7 -0.1
v 0 0.9 0
v 0.1 0.9 0
v 0 0.9 -0.1
v 0.1 0.9 -0.1

# faces
f 3/3/1 2/3/1 1/3/1
f 4/3/1 2/3/1 3/3/1
f 7/1/1 6/1/1 5/1/1
f 8/1/1 6/1/1 7/1/1
f 11/1/1 10/1/1 9/1/1
f 12/1/1 10/1/1 11/1/1
f 15/5/1 14/5/1 13/5/1
f 16/5/1 14/5/1 15/5/1
f 17/2/1 16/2/1 15/2/1
f 18/2/1 16/2/1 17/2/1
f 19/5/1 18/5/1 17/5/1
f 20/5/1 18/5/1 19/5/1
f 21/1/1 20/1/1 19/1/1
f 22/1/1 20/1/1 21/1/1
f 25/3/1 24/3/1 23/3/1
f 26/3/1 24/3/1 25/3/1
f 27/5/2 28/5/2 29/5/2
f 29/5/2 28/5/2 30/5/2
f 29/2/2 30/2/2 31/2/2
f 31/2/2 30/2/2 32/2/2
f 31/5/2 32/5/2 33/5/2
f 33/5/2 32/5/2 34/5/2
f 33/1/2 34/1/2 35/1/2
f 35/1/2 34/1/2 36/1/2
f 37/3/2 38/3/2 39/3/2
f 39/3/2 38/3/2 40/3/2
f 41/1/2 42/1/2 43/1/2
f 43/1/2 42/1/2 44/1/2
f 45/1/2 46/1/2 47/1/2
f 47/1/2 46/1/2 48/1/2
f 49/3/2 50/3/2 51/3/2
f 51/3/2 50/3/2 52/3/2
f 56/3/3 54/3/3 53/3/3
f 57/3/3 54/3/3 56/3/3
f 63/1/3 56/1/3 55/1/3
f 64/3/3 57/3/3 56/3/3
f 64/1/3 56/1/3 63/1/3
f 65/1/3 58/1/3 57/1/3
f 65/3/3 57/3/3 64/3/3
f 66/1/3 58/1/3 65/1/3
f 68/5/3 60/5/3 59/5/3
f 69/2/3 61/2/3 60/2/3
f 69/5/3 60/5/3 68/5/3
f 70/5/3 62/5/3 61/5/3
f 70/2/3 61/2/3 69/2/3
f 71/1/3 63/1/3 62/1/3
f 71/5/3 62/5/3 70/5/3
f 72/4/3 64/4/3 63/4/3
f 72/1/3 63/1/3 71/1/3
f 73/1/3 65/1/3 64/1/3
f 73/4/3 64/4/3 72/4/3
f 74/3/3 67/3/3 66/3/3
f 74/1/3 65/1/3 73/1/3
f 74/3/3 66/3/3 65/3/3
f 75/3/3 67/3/3 74/3/3
f 76/3/3 67/3/3 75/3/3
f 77/1/3 73/1/3 72/1/3
f 78/3/3 74/3/3 73/3/3
f 78/1/3 73/1/3 77/1/3
f 79/1/3 75/1/3 74/1/3
f 79/3/3 74/3/3 78/3/3
f 80/1/3 75/1/3 79/1/3
f 81/3/3 79/3/3 78/3/3
f 82/3/3 79/3/3 81/3/3
f 83/3/4 84/3/4 86/3/4
f 86/3/4 84/3/4 87/3/4
f 85/1/4 86/1/4 93/1/4
f 86/3/4 87/3/4 94/3/4
f 93/1/4 86/1/4 94/1/4
f 87/1/4 88/1/4 95/1/4
f 94/3/4 87/3/4 95/3/4
f 95/1/4 88/1/4 96/1/4
f 89/5/4 90/5/4 98/5/4
f 90/2/4 91/2/4 99/2/4
f 98/5/4 90/5/4 99/5/4
f 91/5/4 92/5/4 100/5/4
f 99/2/4 91/2/4 100/2/4
f 92/1/4 93/1/4 101/1/4
f 100/5/4 92/5/4 101/5/4
f 93/4/4 94/4/4 102/4/4
f 101/1/4 93/1/4 102/1/4
f 94/1/4 95/1/4 103/1/4
f 102/4/4 94/4/4 103/4/4
f 96/3/4 97/3/4 104/3/4
f 103/1/4 95/1/4 104/1/4
f 95/3/4 96/3/4 104/3/4
f 104/3/4 97/3/4 105/3/4
f 105/3/4 97/3/4 106/3/4
f 102/1/4 103/1/4 107/1/4
f 103/3/4 104/3/4 108/3/4
f 107/1/4 103/1/4 108/1/4
f 104/1/4 105/1/4 109/1/4
f 108/3/4 104/3/4 109/3/4
f 109/1/4 105/1/4 110/1/4
f 108/3/4 109/3/4 111/3/4
f 111/3/4 109/3/4 112/3/4
f 115/5/5 114/5/5 113/5/5
f 116/5/5 114/5/5 115/5/5
f 121/1/5 118/1/5 117/1/5
f 122/1/5 118/1/5 121/1/5
f 123/1/5 120/1/5 119/1/5
f 124/1/5 120/1/5 123/1/5
f 129/3/5 126/3/5 125/3/5
f 130/3/5 126/3/5 129/3/5
f 131/3/5 128/3/5 127/3/5
f 132/3/5 128/3/5 131/3/5
f 133/3/6 134/3/6 137/3/6
f 137/3/6 134/3/6 138/3/6
f 135/3/6 136/3/6 139/3/6
f 139/3/6 136/3/6 140/3/6
f 141/1/6 142/1/6 145/1/6
f 145/1/6 142/1/6 146/1/6
f 143/1/6 144/1/6 147/1/6
f 147/1/6 144/1/6 148/1/6
f 149/3/6 150/3/6 151/3/6
f 151/3/6 150/3/6 152/3/6
